<svg xmlns="http://www.w3.org/2000/svg" width="576.415" height="238.516" version="1.0"><path d="M942.994 528.505h-.012c-1.07 0-2.015.353-2.903 1.07-.66.524-1.115 1.23-1.48 2.015h.046c.364-.785.82-1.49 1.469-2.014.887-.718 1.832-1.06 2.88-1.07zM943.028 528.505h-.034c1.104.013 1.833.388 2.322 1.196.217.341.33.854.33 1.502 0 .114-.022.262-.034.387h.046c0-.125.022-.273.022-.387 0-.648-.102-1.16-.318-1.502-.49-.82-1.23-1.196-2.334-1.196z" style="fill:#bd0000;fill-opacity:1;fill-rule:evenodd;stroke:none;stroke-width:1.7332pt;stroke-linecap:butt;stroke-linejoin:miter" transform="translate(-611.23 -384.062)"/><g style="fill:#636;fill-opacity:1"><g style="fill:#636;fill-opacity:1;fill-rule:evenodd;stroke:none;stroke-width:1pt;stroke-linecap:butt;stroke-linejoin:miter"><path d="M0 36h7.46l3.35-14h12.12l1.56-6H12.32l2.02-9h12.95l1.56-7H8.4L0 36z" style="fill:#636;fill-opacity:1" transform="translate(0 197.535) scale(1.13832)"/></g><g style="fill:#636;fill-opacity:1;fill-rule:evenodd;stroke:none;stroke-width:1pt;stroke-linecap:butt;stroke-linejoin:miter"><path d="m7.51 26 2.24-9.4c1.18-5.09 3.67-9.6 8.38-9.6.42 0 .83.21 1.14.26L21.09.05c-.42 0-.88-.05-1.4-.05-3.47 0-6.38 2.44-8.32 5.94h-.2c.29-1.71.54-3.33.73-4.94H5.47c-.37 2.08-.94 6.15-1.81 9.82L0 26h7.51z" style="fill:#636;fill-opacity:1" transform="translate(29.54 208.919) scale(1.13832)"/></g><g style="fill:#636;fill-opacity:1;fill-rule:evenodd;stroke:none;stroke-width:1pt;stroke-linecap:butt;stroke-linejoin:miter"><path d="M20.06 19.25c-2.07 1.01-4.43.75-7.18.75-2.17 0-3.85-.38-4.77-1.12-.48-.81-.68-2.07-.64-2.88 10.13.27 16.52-2.07 16.84-8.47C24.55 2.7 21.02 0 15.89 0 6.73 0 .73 8.08.34 15.86 0 22.65 3.52 26 10.78 26c2.79 0 6.49-.32 9.52-1.23l-.24-5.52zM17.32 7.53c-.12 2.38-3.06 2.52-8.85 2.47.63-2.09 2.75-4 6.22-4 1.71 0 2.69.65 2.63 1.53z" style="fill:#636;fill-opacity:1" transform="translate(53.023 208.919) scale(1.13832)"/></g><g style="fill:#636;fill-opacity:1;fill-rule:evenodd;stroke:none;stroke-width:1pt;stroke-linecap:butt;stroke-linejoin:miter"><path d="M20.05 19.25c-2.07 1.01-4.43.75-7.17.75-2.18 0-3.85-.38-4.77-1.12-.48-.81-.69-2.07-.65-2.88 10.14.27 16.52-2.07 16.85-8.47C24.55 2.7 21.02 0 15.89 0 6.72 0 .72 8.08.33 15.86 0 22.65 3.52 26 10.77 26c2.8 0 6.5-.32 9.53-1.23l-.25-5.52zM17.32 7.53c-.12 2.38-3.06 2.52-8.86 2.47.64-2.09 2.75-4 6.22-4 1.71 0 2.7.65 2.64 1.53z" style="fill:#636;fill-opacity:1" transform="translate(83.211 208.919) scale(1.13832)"/></g><g style="fill:#636;fill-opacity:1;fill-rule:evenodd;stroke:none;stroke-width:1pt;stroke-linecap:butt;stroke-linejoin:miter"><path d="M22.74 26c.06-3.17.82-8.15 1.61-11.42L27.56 1c-2.04-.69-5.22-1-8.28-1C6.86 0 .7 9.2.27 17.82 0 23.23 2.93 26 7.49 26c2.95 0 6.28-1.43 8.87-5.73h.11c-.2 2.07-.44 4.08-.57 5.73h6.84zm-5.13-14.28C16.15 18.08 13.17 20 10.95 20c-2.07 0-2.97-1.47-2.85-3.61C8.34 11.56 12.16 6 16.98 6c.78 0 1.39-.14 1.96-.28l-1.33 6z" style="fill:#636;fill-opacity:1" transform="translate(124.088 208.919) scale(1.13832)"/></g><g style="fill:#636;fill-opacity:1;fill-rule:evenodd;stroke:none;stroke-width:1pt;stroke-linecap:butt;stroke-linejoin:miter"><path d="M0 24.82c1.44 1.12 4.46 1.13 7.61 1.18 6.73.05 11.81-2.89 12.11-8.29.17-3.6-2.62-5.73-5.35-7.16-1.97-.95-2.96-1.86-2.91-2.92C11.53 6.2 12.87 6 14.84 6c2.22 0 4 .27 5.02.47l2.02-5.42C20.73.36 18.43 0 15.48 0 8.95 0 4.17 3.45 3.9 8.69c-.16 3.24 2.17 5.42 4.99 6.9 2.28 1.17 3.06 2.07 3 3.34-.07 1.28-1.21 1.07-3.28 1.07-2.43 0-5.12-.32-6.54-.54L0 24.82z" style="fill:#636;fill-opacity:1" transform="translate(155.54 208.919) scale(1.13832)"/></g><g style="fill:#636;fill-opacity:1;fill-rule:evenodd;stroke:none;stroke-width:1pt;stroke-linecap:butt;stroke-linejoin:miter"><path d="m7.45 37 6.05-25H6.09L0 37h7.45zm3.47-28c2.54 0 4.8-2.1 4.94-5.7C15.98.86 14.4 0 12.07 0 9.64 0 7.42 1.58 7.29 3.94 7.17 6.32 8.75 9 10.92 9z" style="fill:#636;fill-opacity:1" transform="translate(192.479 196.397) scale(1.13832)"/></g><g style="fill:#636;fill-opacity:1;fill-rule:evenodd;stroke:none;stroke-width:1pt;stroke-linecap:butt;stroke-linejoin:miter"><path d="m7.46 25.31 2.64-11.26c1.37-5.73 4.32-7.74 6.75-7.74 1.92 0 2.48.82 2.39 2.01-.05.96-.2 1.97-.4 2.87l-3.36 14.12h7.46l3.54-14.81c.27-1.28.57-3.19.63-4.35C27.33 1.64 25.08 0 20.94 0c-3.32 0-6.55 1.54-9.1 4.88h-.1l.68-4.57H5.84c-.43 2.14-.98 4.73-1.76 7.75L0 25.31h7.46z" style="fill:#636;fill-opacity:1" transform="translate(208.745 209.704) scale(1.13832)"/></g><g style="fill:#636;fill-opacity:1;fill-rule:evenodd;stroke:none;stroke-width:1pt;stroke-linecap:butt;stroke-linejoin:miter"><path d="M0 36h7.46l3.36-14h12.11l1.56-6H12.32l2.02-9h12.95l1.56-7H8.4L0 36z" style="fill:#636;fill-opacity:1" transform="translate(253.777 197.535) scale(1.13832)"/></g><g style="fill:#636;fill-opacity:1;fill-rule:evenodd;stroke:none;stroke-width:1pt;stroke-linecap:butt;stroke-linejoin:miter"><path d="m7.51 26 2.24-9.4c1.18-5.09 3.67-9.6 8.38-9.6.42 0 .83.21 1.14.26L21.09.05c-.42 0-.88-.05-1.4-.05-3.47 0-6.38 2.44-8.32 5.94h-.2c.29-1.71.54-3.33.73-4.94H5.47c-.36 2.08-.94 6.15-1.81 9.82L0 26h7.51z" style="fill:#636;fill-opacity:1" transform="translate(283.317 208.919) scale(1.13832)"/></g><g style="fill:#636;fill-opacity:1;fill-rule:evenodd;stroke:none;stroke-width:1pt;stroke-linecap:butt;stroke-linejoin:miter"><path d="M20.06 19.25c-2.07 1.01-4.43.75-7.18.75-2.17 0-3.85-.38-4.77-1.12-.48-.81-.68-2.07-.64-2.88 10.13.27 16.52-2.07 16.84-8.47C24.55 2.7 21.02 0 15.89 0 6.73 0 .73 8.08.34 15.86 0 22.65 3.53 26 10.78 26c2.79 0 6.5-.32 9.52-1.23l-.24-5.52zM17.32 7.53c-.12 2.38-3.06 2.52-8.85 2.47.63-2.09 2.75-4 6.22-4 1.71 0 2.69.65 2.63 1.53z" style="fill:#636;fill-opacity:1" transform="translate(306.8 208.919) scale(1.13832)"/></g><g style="fill:#636;fill-opacity:1;fill-rule:evenodd;stroke:none;stroke-width:1pt;stroke-linecap:butt;stroke-linejoin:miter"><path d="M20.05 19.25c-2.07 1.01-4.43.75-7.17.75-2.18 0-3.85-.38-4.77-1.12-.48-.81-.69-2.07-.65-2.88 10.14.27 16.52-2.07 16.85-8.47C24.55 2.7 21.02 0 15.89 0 6.72 0 .72 8.08.33 15.86 0 22.65 3.52 26 10.77 26c2.8 0 6.5-.32 9.53-1.23l-.25-5.52zM17.32 7.53c-.12 2.38-3.06 2.52-8.86 2.47.64-2.09 2.75-4 6.22-4 1.71 0 2.7.65 2.64 1.53z" style="fill:#636;fill-opacity:1" transform="translate(336.988 208.919) scale(1.13832)"/></g><g style="fill:#636;fill-opacity:1;fill-rule:evenodd;stroke:none;stroke-width:1pt;stroke-linecap:butt;stroke-linejoin:miter"><path d="M23.31 0 20.5 11.36c-1.02-.42-2.35-.36-3.39-.36C7.53 11 .75 19.2.3 28.08 0 34.34 3.34 37 7.64 37c3.01 0 6.18-1.33 8.58-4.77h.1L15.75 37h6.78c.31-3 .96-6.57 1.69-9.83L30.71 0h-7.4zm-5.84 24.42C16.3 29.35 13.54 31 11.36 31c-2.17 0-3.38-1.51-3.23-4.2.25-4.98 3.67-9.8 8.12-9.8 1.25 0 2.32.19 2.91.47l-1.69 6.95z" style="fill:#636;fill-opacity:1" transform="translate(367.017 196.397) scale(1.13832)"/></g><g style="fill:#636;fill-opacity:1;fill-rule:evenodd;stroke:none;stroke-width:1pt;stroke-linecap:butt;stroke-linejoin:miter"><path d="M10.61 26c8.7 0 15.41-6.59 15.88-15.56C26.78 4.5 23.08 0 16.25 0 7.23 0 .76 7.3.31 16.12 0 22.54 4.14 26 10.61 26zm1.17-6c-2.54 0-3.94-1.62-3.79-4.04.2-4.03 2.69-9.96 6.98-9.96 2.96 0 3.87 2.27 3.75 4.5-.22 4.4-2.9 9.5-6.94 9.5z" style="fill:#636;fill-opacity:1" transform="translate(400.837 208.919) scale(1.13832)"/></g><g style="fill:#636;fill-opacity:1;fill-rule:evenodd;stroke:none;stroke-width:1pt;stroke-linecap:butt;stroke-linejoin:miter"><path d="m7.2 26 2.7-11.42C11.03 9.49 13.85 6 16.38 6c1.82 0 2.32 1.33 2.23 3.07-.05.9-.25 1.91-.46 2.91L14.81 26h7.2l2.7-11.47C25.95 9.28 28.61 6 31.09 6c1.71 0 2.42 1.22 2.34 2.96-.05 1.01-.26 2.12-.52 3.13L29.67 26h7.25l3.49-14.81c.27-1.33.58-3.4.63-4.46.22-4.4-1.93-6.73-5.81-6.73-3.32 0-6.55 1.5-9 4.66C26.14 2.38 24.51 0 20.47 0c-3.27 0-6.39 1.48-8.89 4.83h-.1L12.15 1H5.73c-.42 2.14-.93 4.73-1.71 7.75L0 26h7.2z" style="fill:#636;fill-opacity:1" transform="translate(433.347 208.919) scale(1.13832)"/></g></g><path d="M972.05 546.201c.463 1.188.925 2.374 1.406 3.534.741 1.576 1.598 3.085 2.628 4.493 5.565 7.564 14.884 11.706 26.715 12.737h12.727c4.024-.314 8.24-.9 12.611-1.754 7.538-1.474 15.529-3.738 23.827-6.764a213.04 213.04 0 0 0 19.302-8.156c14.277-6.844 29.026-15.67 43.495-26.323a288.814 288.814 0 0 0 13.728-10.76 273.4 273.4 0 0 0 11.572-10.186c10.29-9.917 18.06-19.99 22.46-28.834 4.582-9.21 5.496-17.085 1.742-22.046-2.3-3.045-6.152-4.677-11.11-5.061 22.335-16.759 35.35-37.088 30.682-49.905-1.483-4.09-4.747-7.143-9.425-8.83-2.08-.748-4.419-1.222-6.97-1.438h-6.874c-9.598.693-23.555 4.13-35.397 9.932" style="fill:#fff;fill-opacity:0;fill-rule:evenodd;stroke:#663266;stroke-width:5.69161;stroke-linecap:butt;stroke-linejoin:miter;stroke-miterlimit:4;stroke-opacity:1" transform="translate(-611.23 -384.062)"/><path d="m660.947 391.361-39.592 172.74H1003.954c-11.349-.99-20.309-4.974-25.648-12.237-.99-1.343-1.808-2.79-2.525-4.304a148.901 148.901 0 0 1-1.316-3.38c-1.139-3.62-1.593-7.636-1.388-11.916.57-11.93 6.167-26.12 15.866-40.98 10.301-15.792 25.232-32.343 43.718-47.702 4.144-3.44 8.428-6.838 12.913-10.139 5.544-4.078 11.13-7.835 16.72-11.347 20.591-12.965 41.132-22.036 59.334-26.644-17.393 5.674-36.934 15.308-56.24 28.422-.694.47-1.38.95-2.063 1.423-10.712 7.422-20.416 15.304-28.885 23.265-27.252 25.623-41.656 52.175-35.11 67.73a19.44 19.44 0 0 0 1.672 3.059c7.035 10.347 24.47 12.136 46.564 6.58a137.37 137.37 0 0 0 4.553-1.244c7.058-2.038 14.551-4.79 22.269-8.182a218.02 218.02 0 0 0 5.62-2.561c.194-.091.376-.182.57-.285 24.36-12.103 43.08-26.03 47.133-34.398.888-1.82 1.101-3.372.498-4.59-2.891-5.862-23.123-1.901-47.632 8.716a255.03 255.03 0 0 0-5.976 2.668c1.64-1.522 3.346-3.05 5.087-4.553a172.605 172.605 0 0 1 8.715-7.044 173.928 173.928 0 0 1 14.407-9.818c22.334-16.85 33.625-32.788 31.269-38.703-.444-1.114-1.39-1.88-2.846-2.347-4.656-1.481-13.154.286-23.478 4.517-8.515 3.493-18.294 8.672-28.21 15.119l-1.35.89-.25.141-4.766 3.166 2.739-5.015c4.063-7.44 10.683-15.2 18.924-22.411 6.044-5.272 12.95-10.239 20.383-14.585a129.97 129.97 0 0 1 8.43-4.553 121.166 121.166 0 0 1 8.574-3.77c8.168-3.231 17.142-7.31 23.942-7.845-.62 0-20.278 2.117-20.278 2.117H660.947zm308.395.25c-1.115 17.025 2.186 41.963 9.676 69.65a386.549 386.549 0 0 0 4.375 15.012c.99 3.131 2.012 6.214 3.06 9.248-.615.904-1.234 1.802-1.815 2.704-9.345 14.322-14.808 27.858-16.185 39.628-3.95-13.228-6.924-27.716-8.609-43.079a262.232 262.232 0 0 1-1.102-13.055c-1.845-31.239 2.234-59.557 10.6-80.109zm-186.506 22.16c.213-.004.423 0 .64 0h42.082c3.597 0 6.379.675 8.36 2.028 1.969 1.362 2.707 3.123 2.24 5.265l-5.015 22.66h-14.834l4.874-22.055h-37.138l-13.41 60.615-4.839 21.949h37.102l.036-.143 7.435-33.58h-17.43l1.671-7.577h32.264l-9.248 41.904a5.928 5.928 0 0 1-.64 1.672c-.764 1.389-2.094 2.578-3.95 3.558-2.572 1.354-5.651 2.027-9.248 2.027H761.74c-3.597 0-6.379-.673-8.36-2.027-1.969-1.355-2.719-3.085-2.24-5.23l18.533-83.773c.478-2.142 1.969-3.903 4.553-5.265.091-.049.194-.06.285-.106 2.358-1.182 5.126-1.846 8.324-1.921zm65.951 0h52.967c3.552 0 6.344.675 8.324 2.028 1.992 1.362 2.755 3.123 2.277 5.265l-9.89 44.68c-.466 2.128-1.993 3.865-4.588 5.228-2.595 1.369-5.65 2.063-9.213 2.063h-38.49l-7.434 33.545-1.21 5.514h-14.514l1.103-4.98 20.668-93.342zm73.173 0h14.513l-16.434 74.24-3.593 16.222h34.719c.364 2.662.79 5.277 1.245 7.861h-52.22l4.126-18.64 17.644-79.682zm-60.402 7.898-9.64 43.47h36.177l9.604-43.47h-36.141zm-77.144 102.596c.142-.005.284 0 .427 0 1.685 0 3.156.295 4.34.853 1.264.592 2.167 1.471 2.668 2.633.49 1.127.618 2.406.356 3.806l-.107.533h-4.162l.036-.498c.107-.978-.014-1.747-.391-2.276a2.438 2.438 0 0 0-.179-.214 2.311 2.311 0 0 0-.355-.284c-.583-.367-1.493-.57-2.668-.57-1.56 0-2.725.272-3.522.819-.774.535-1.263 1.132-1.423 1.85-.16.728.103 1.11.285 1.316l.035.035c.231.197 1.032.658 3.522 1.245 2.254.547 3.746 1.038 4.589 1.459 1.275.648 2.166 1.49 2.632 2.525.467 1.025.57 2.224.285 3.522-.285 1.264-.93 2.429-1.886 3.522-.944 1.092-2.147 1.958-3.592 2.561a12.145 12.145 0 0 1-4.625.925c-2.049 0-3.694-.31-4.98-.925-1.343-.637-2.312-1.644-2.881-2.953-.547-1.274-.663-2.722-.356-4.304l.107-.498h4.09l-.035.498c-.102.945 0 1.708.249 2.277.24.546.694.999 1.423 1.351.774.376 1.742.57 2.846.57.99 0 1.895-.167 2.703-.463.797-.284 1.43-.66 1.886-1.138.444-.478.704-.983.818-1.53.114-.49.086-.903-.107-1.245-.216-.364-.644-.687-1.316-.96l-3.486-1.032c-1.947-.49-3.257-.956-4.02-1.423-1.036-.614-1.783-1.403-2.17-2.347-.387-.934-.428-1.968-.178-3.095.262-1.207.844-2.355 1.743-3.38.911-1.036 2.086-1.848 3.487-2.383a12.246 12.246 0 0 1 3.912-.783zm37.352.07c.225-.017.436 0 .675 0l2.562.285.853.071-1.245 3.166-.249.498-1.956-.178c-.578 0-1.002.09-1.28.285-.02.014-.055.056-.072.071-.037.033-.1.09-.142.143-.172.224-.38.626-.534 1.351 0 0-.074.308-.142.57h3.059l-.782 3.521h-2.989c-.227 1.025-3.023 13.553-3.023 13.553h-4.127s2.682-12.039 3.024-13.553h-2.383l.782-3.521h2.348c.114-.49.284-1.103.284-1.103.251-1.139.513-1.957.854-2.526a5.372 5.372 0 0 1 1.957-1.92c.684-.398 1.55-.636 2.525-.712zm9.853.179-1.351 6.083h2.667l-.782 3.521h-2.668c-.216.979-1.921 8.573-1.921 8.573s-.142.912-.142 1.174V543.936c0 .002.034-.001.035 0l.427.035 1.956-.142-.213 3.166.036.57-2.81.32c-1.116 0-1.934-.183-2.526-.57-.626-.41-.99-.953-1.139-1.636-.022-.125-.07-.307-.07-.57 0-.511.096-1.378.426-2.88 0 0 1.495-6.7 1.814-8.111h-1.956l.782-3.522h1.957c.182-.82.818-3.628.818-3.628l3.308-1.743 1.352-.712zm-131.085.142h16.008l-.89 3.984H703.95c-.182.808-.912 4.08-1.173 5.265h10.138l-.89 3.984h-10.138c-.216.99-2.17 9.782-2.17 9.782h-4.304l5.122-23.015zm21.45 5.62c.161-.02.337 0 .499 0 1.024 0 1.97.312 2.881.96l.57.392-2.206 3.629-.605-.427a2.6 2.6 0 0 0-1.423-.427c-.432 0-.835.154-1.245.427a3.144 3.144 0 0 0-1.067 1.174c-.478.876-.828 1.858-1.067 2.916l-1.921 8.751h-4.127l3.807-17.074h3.841s-.132.517-.177.71c.182-.136.374-.323.533-.426a4.394 4.394 0 0 1 1.708-.605zm12.238 0c.248-.018.493 0 .747 0 2.322 0 4.08.814 5.229 2.42.717 1.035 1.103 2.316 1.103 3.841 0 .842-.104 1.749-.32 2.74l-.32 1.244h-11.597a7.853 7.853 0 0 0-.036.712c0 .888.182 1.586.57 2.098.183.25.396.476.64.64.458.3 1.05.463 1.743.463.842 0 1.582-.232 2.276-.676.66-.42 1.292-1.094 1.85-2.027h4.411l-.391.853c-.843 1.708-2.018 3.04-3.486 3.985-1.469.944-3.223 1.458-5.158 1.458-2.516 0-4.389-.814-5.55-2.419-1.15-1.57-1.397-3.742-.782-6.474.614-2.778 1.84-4.997 3.628-6.545 1.602-1.39 3.42-2.16 5.443-2.313zm18.533 0c.248-.018.493 0 .747 0 2.322 0 4.08.814 5.23 2.42.716 1.035 1.102 2.316 1.102 3.841 0 .831-.104 1.725-.32 2.704l-.32 1.28h-11.597l-.036.463c-.009.06.003.15 0 .213v.036c0 .17.025.338.036.498.057.648.226 1.19.533 1.6.06.08.114.178.178.25.522.557 1.26.853 2.206.853.842 0 1.593-.232 2.276-.676.66-.42 1.293-1.094 1.85-2.027h4.447l-.427.853c-.843 1.708-2.018 3.04-3.486 3.985-1.469.944-3.223 1.458-5.158 1.458-2.516 0-4.388-.814-5.55-2.419-.75-1.024-1.102-2.33-1.102-3.877 0-.24.012-.497.035-.748.046-.591.137-1.189.285-1.85.615-2.765 1.805-4.996 3.593-6.545 1.601-1.388 3.455-2.159 5.478-2.312zm50.477 0c.254-.02.488 0 .747 0 2.368 0 4.188.801 5.372 2.384 1.172 1.582 1.457 3.716.854 6.403-.467 2.094-1.142 3.786-2.064 5.016a9.717 9.717 0 0 1-3.486 2.916 9.654 9.654 0 0 1-4.304 1.032c-2.413 0-4.21-.825-5.372-2.419-.75-1.013-1.138-2.318-1.138-3.877 0-.843.093-1.738.32-2.74.683-3.05 2.078-5.374 4.127-6.865 1.504-1.086 3.165-1.713 4.944-1.85zm62.501 0c.3-.018.578 0 .89 0 1.434 0 2.56.146 3.414.498.911.365 1.557.88 1.921 1.494.353.58.534 1.294.534 2.17l-.427 2.597-.782 3.522c-.672 3.005-.82 4.132-.854 4.553-.034.57.018 1.124.178 1.637l.284.924h-4.197l-.178-.533c-.069-.25-.049-.57-.071-.854-.797.49-1.595.923-2.313 1.174-1.058.364-2.157.569-3.272.569-1.935 0-3.368-.504-4.234-1.494-.66-.728-.96-1.62-.96-2.632 0-.387.051-.789.142-1.21a5.928 5.928 0 0 1 1.103-2.383 6.662 6.662 0 0 1 1.921-1.708c.706-.42 1.493-.72 2.312-.925l2.526-.426c1.947-.228 3.4-.511 4.447-.819.022-.113.07-.249.07-.249.166-.732.145-1.283-.035-1.565-.014-.018-.056-.055-.071-.07-.038-.042-.097-.106-.142-.143-.428-.339-1.158-.498-2.135-.498-1.104 0-1.92.18-2.49.533-.558.353-1.074 1-1.53 1.921h-4.304l.392-.853c.512-1.184 1.122-2.166 1.885-2.917.763-.752 1.793-1.334 2.988-1.744a11.846 11.846 0 0 1 2.988-.569zm18.035 0c.161-.02.337 0 .498 0 1.036 0 2.007.312 2.918.96l.533.392-2.205 3.629-.605-.427c-.444-.285-.898-.427-1.387-.427-.433 0-.86.154-1.281.427-.433.284-.747.661-1.032 1.174a11.677 11.677 0 0 0-1.067 2.916l-1.956 8.751h-4.127l3.807-17.074h3.841s-.096.517-.142.71c.182-.136.363-.323.534-.426.542-.329 1.098-.534 1.671-.605zm12.202 0c.248-.018.493 0 .747 0 2.322 0 4.09.814 5.23 2.42.728 1.035 1.102 2.316 1.102 3.841 0 .842-.14 1.749-.356 2.74l-.285 1.244h-11.596c-.023.24-.071.495-.071.712 0 .888.193 1.586.569 2.098.058.08.149.179.213.25.038.04.103.105.143.142.508.462 1.201.711 2.063.711.842 0 1.582-.232 2.276-.676.66-.42 1.281-1.094 1.85-2.027h4.447l-.427.853c-.842 1.708-2.03 3.04-3.486 3.985-1.48.944-3.212 1.458-5.158 1.458-2.516 0-4.353-.814-5.514-2.419-1.15-1.57-1.421-3.742-.818-6.474.615-2.778 1.806-4.997 3.593-6.545 1.612-1.39 3.457-2.16 5.478-2.312zm-62.288.32h4.234s.522 10.133.533 10.281c.17-.363.303-.668.32-.712l4.66-9.568h3.878s.355 10.01.355 10.066c.114-.204 5.3-10.066 5.3-10.066h4.198l-9.249 17.074h-3.806s-.368-9.258-.391-9.782c-1.571 3.221-4.767 9.782-4.767 9.782h-3.913l-1.352-17.074zm-99.39 3.238c-.98.041-1.87.394-2.703 1.067-.66.523-1.105 1.242-1.458 2.027h7.008c.012-.125.035-.277.035-.39 0-.65-.115-1.153-.32-1.495-.5-.82-1.244-1.21-2.348-1.21-.066 0-.148-.002-.213 0zm18.534 0c-.98.041-1.871.394-2.703 1.067-.66.523-1.095 1.242-1.459 2.027h7.008c.012-.125.036-.277.036-.39 0-.65-.104-1.153-.32-1.495a2.877 2.877 0 0 0-.356-.462c-.476-.491-1.13-.747-1.992-.747-.067 0-.148-.003-.214 0zm143.357 0c-1.008.03-1.95.372-2.81 1.067-.649.523-1.094 1.242-1.458 2.027h6.972c.012-.125.036-.277.036-.39 0-.65-.104-1.153-.32-1.495-.49-.808-1.244-1.198-2.348-1.21h-.072zm-93.2.07c-.94.112-1.816.542-2.632 1.281-.979.888-1.69 2.283-2.099 4.127-.17.774-.249 1.436-.249 2.027 0 .808.155 1.443.463 1.921.081.123.19.253.284.356.506.537 1.213.818 2.099.818 1.15 0 2.163-.428 3.13-1.316.98-.9 1.678-2.308 2.1-4.198.386-1.73.332-3.022-.214-3.841-.524-.797-1.29-1.174-2.348-1.174-.18 0-.36-.021-.534 0zm64.28 6.226c-.968.262-2.052.482-3.486.676-1.07.16-1.833.327-2.277.498-.387.16-.698.38-.96.676-.25.284-.419.583-.498.925a2.501 2.501 0 0 0-.036.39v.036c.001.027-.003.08 0 .107.007.052.022.13.036.178.005.015.03.056.035.07.012.032.02.079.036.108.015.028.052.079.07.106.03.041.071.104.108.143.284.318.852.462 1.671.462.9 0 1.765-.17 2.562-.57a4.982 4.982 0 0 0 1.885-1.635c.342-.478.615-1.214.854-2.17zM649.98 511.608l95.469-98.57h15.59l-23.051 98.57h-12.823l6.545-28.374h-40.022l-27.198 28.374h-14.51m51.433-38.527h32.734l6.039-24.744c2.437-9.816 4.784-17.997 7.039-24.542-4.507 5.648-10.469 12.35-17.887 20.104l-27.925 29.182" style="fill:#636;fill-opacity:1;fill-rule:evenodd;stroke:none;stroke-width:1.7332pt;stroke-linecap:butt;stroke-linejoin:miter;stroke-opacity:1" transform="translate(-611.23 -384.062)"/></svg>