<svg width="64" height="64" color-interpolation="linearRGB" xmlns="http://www.w3.org/2000/svg"><path style="fill:#000;fill-opacity:.3882" d="M60 31.39 32 60h6l26-26.61-4-2z"/><path style="fill:none;stroke:#000;stroke-width:4" d="M2 31v12l30 15 26-26V20L30 10 2 31z"/><linearGradient id="a" gradientUnits="userSpaceOnUse" x1="45.2" y1="-3.44" x2="66.1" y2="20.77"><stop offset="0" stop-color="#3578dc"/><stop offset="1" stop-color="#124ea9"/></linearGradient><path style="fill:url(#a)" d="M32 44 2 31v12l30 15V44z"/><linearGradient id="b" gradientUnits="userSpaceOnUse" x1="56.48" y1="3.36" x2="71.86" y2="12.73"><stop offset="0" stop-color="#033177"/><stop offset="1" stop-color="#154ea2"/></linearGradient><path style="fill:url(#b)" d="m32 44 26-24v12L32 58V44z"/><linearGradient id="c" gradientUnits="userSpaceOnUse" x1="8" y1="-64" x2="56" y2="-64"><stop offset="0" stop-color="#c0d9ff"/><stop offset="1" stop-color="#5e95e8"/></linearGradient><path style="fill:url(#c)" d="m32 44 26-24-28-10L2 31l30 13z"/><path style="fill:#c7ddff" d="m34.62 13.91.2 1.71 2 .76-19.49 17.48.19.73L38.51 15.6l-3.89-1.69z"/><linearGradient id="d" gradientUnits="userSpaceOnUse" x1="56.48" y1="3.36" x2="71.86" y2="12.73"><stop offset="0" stop-color="#033177"/><stop offset="1" stop-color="#154ea2"/></linearGradient><path style="fill:url(#d)" d="m15.33 32.87 19.48-17.25-.19-1.71-20.98 18.73 3.88 1.95-.19-.73-2-.99z"/><path style="fill:#140262" d="m17.33 33.86 19.48-17.48-2-.76-19.48 17.25 2 .99z"/><path style="fill:none;stroke:#000;stroke-width:4" d="m22 20-3 3v3l6 3 3-3v-3s-1.48-1.24-3-2c-1.48-.74-3-1-3-1z"/><linearGradient id="e" gradientUnits="userSpaceOnUse" x1="29.57" y1="15.76" x2="33.84" y2="20.45"><stop offset="0" stop-color="#fff"/><stop offset="1" stop-color="#c9c9c9"/></linearGradient><path style="fill:url(#e)" d="m22 20-3 3s1.5.25 3 1 3 2 3 2l3-3s-1.5-1.25-3-2-3-1-3-1z"/><linearGradient id="f" gradientUnits="userSpaceOnUse" x1="62.28" y1="-13.24" x2="69.02" y2="-5.42"><stop offset="0" stop-color="#e2e2e2"/><stop offset="1" stop-color="#898989"/></linearGradient><path style="fill:url(#f)" d="M19 23v3l6 3v-3s-1.5-1.25-3-2-3-1-3-1z"/><path style="fill:#979797" d="M25 26v3l3-3v-3l-3 3z"/><path style="fill:none;stroke:#000;stroke-width:2" d="M29 35c-1.11 0-2 .67-2 1.5 0 .82.89 1.5 2 1.5 1.1 0 2-.68 2-1.5 0-.83-.9-1.5-2-1.5z"/><radialGradient id="g" gradientUnits="userSpaceOnUse" cx="0" cy="0" r="64" gradientTransform="matrix(.0781 0 0 .0468 30 37)"><stop offset="0" stop-color="#75ff75"/><stop offset="1" stop-color="#04a904"/></radialGradient><path style="fill:url(#g)" d="M29 35c-1.11 0-2 .67-2 1.5 0 .82.89 1.5 2 1.5 1.1 0 2-.68 2-1.5 0-.83-.9-1.5-2-1.5z"/><path style="fill:none;stroke:#000;stroke-width:2" d="M29 35c-1.11 0-2 .67-2 1.5 0 .82.89 1.5 2 1.5 1.1 0 2-.68 2-1.5 0-.83-.9-1.5-2-1.5z" transform="translate(5 -5)"/><radialGradient id="h" gradientUnits="userSpaceOnUse" cx="0" cy="0" r="64" gradientTransform="matrix(.0781 0 0 .0468 30 37)"><stop offset="0" stop-color="#75ff75"/><stop offset="1" stop-color="#04a904"/></radialGradient><path style="fill:url(#h)" d="M29 35c-1.11 0-2 .67-2 1.5 0 .82.89 1.5 2 1.5 1.1 0 2-.68 2-1.5 0-.83-.9-1.5-2-1.5z" transform="translate(5 -5)"/><path style="fill:none;stroke:#000;stroke-width:2" d="M29 35c-1.11 0-2 .67-2 1.5 0 .82.89 1.5 2 1.5 1.1 0 2-.68 2-1.5 0-.83-.9-1.5-2-1.5z" transform="translate(10 -10)"/><radialGradient id="i" gradientUnits="userSpaceOnUse" cx="0" cy="0" r="64" gradientTransform="matrix(.0781 0 0 .0468 30 37)"><stop offset="0" stop-color="#fff589"/><stop offset="1" stop-color="#ff9630"/></radialGradient><path style="fill:url(#i)" d="M29 35c-1.11 0-2 .67-2 1.5 0 .82.89 1.5 2 1.5 1.1 0 2-.68 2-1.5 0-.83-.9-1.5-2-1.5z" transform="translate(10 -10)"/><path style="fill:none;stroke:#000;stroke-width:2" d="M29 35c-1.11 0-2 .67-2 1.5 0 .82.89 1.5 2 1.5 1.1 0 2-.68 2-1.5 0-.83-.9-1.5-2-1.5z" transform="translate(15 -15)"/><radialGradient id="j" gradientUnits="userSpaceOnUse" cx="0" cy="0" r="64" gradientTransform="matrix(.0781 0 0 .0468 30 37)"><stop offset="0" stop-color="#ffb3b3"/><stop offset="1" stop-color="#ed0606"/></radialGradient><path style="fill:url(#j)" d="M29 35c-1.11 0-2 .67-2 1.5 0 .82.89 1.5 2 1.5 1.1 0 2-.68 2-1.5 0-.83-.9-1.5-2-1.5z" transform="translate(15 -15)"/></svg>