<svg width="64" height="64" color-interpolation="linearRGB" xmlns="http://www.w3.org/2000/svg"><path style="fill:#010101;fill-opacity:.5529" d="M29 4C16.84 4 6 14 4 26c-2 11.98 7 27 19 26 9.96-.84 16.54-7.54 22-20 7-16-3.85-28-16-28z" transform="matrix(1.0909 0 0 .4615 9.636 32.154)"/><path style="fill:none;stroke:#010101;stroke-width:4" d="M29 4C16.84 4 6 14 4 26c-2 11.98 7 27 19 26 9.96-.84 16.54-7.54 22-20 7-16-3.85-28-16-28z" transform="translate(2 2)"/><radialGradient id="a" gradientUnits="userSpaceOnUse" cx="0" cy="0" r="64" gradientTransform="translate(16 16) scale(.5625)"><stop offset=".004" stop-color="#ffc7c7"/><stop offset=".441" stop-color="#fb2a2a"/><stop offset=".595" stop-color="#fd1818"/><stop offset=".749" stop-color="#fe0808"/><stop offset=".976" stop-color="#db0b0b"/><stop offset=".858" stop-color="red"/></radialGradient><path style="fill:url(#a)" d="M29 4C16.84 4 6 14 4 26c-2 11.98 7 27 19 26 9.96-.84 16.54-7.54 22-20 7-16-3.85-28-16-28z" transform="translate(2 2)"/><path style="fill:none;stroke:#010101;stroke-width:3" d="M39 7c-7 4-25 38-24 45"/><path style="fill:#010101" d="M23 12c-5 0-5 7 0 7s5-7 0-7z" transform="translate(-4 5)"/><path style="fill:#010101" d="M23 12c-5 0-5 7 0 7s5-7 0-7z" transform="translate(-10 18)"/><path style="fill:#010101" d="M23 12c-5 0-5 7 0 7s5-7 0-7z" transform="translate(12 14)"/><path style="fill:#010101" d="M23 12c-5 0-5 7 0 7s5-7 0-7z" transform="translate(4 25)"/><linearGradient id="b" gradientUnits="userSpaceOnUse" x1="-64" y1="-64" x2="64" y2="-64"><stop offset=".316" stop-color="#010000" stop-opacity=".502"/><stop offset=".818" stop-color="#010000"/></linearGradient><path style="fill:url(#b)" d="m18 8 32 20s4-11-8-20C32.23.67 18 8 18 8z"/><path style="fill:#fff" d="M23 12c-5 0-5 7 0 7s5-7 0-7z" transform="matrix(.5406 .2503 -.2401 .5185 25.788 -6.796)"/><path style="fill:#fff" d="M23 12c-5 0-5 7 0 7s5-7 0-7z" transform="matrix(.3526 .4802 -.4605 .3382 43.528 -2.287)"/></svg>