<svg xmlns="http://www.w3.org/2000/svg" xmlns:xlink="http://www.w3.org/1999/xlink" version="1.0" width="96" height="96"><defs><linearGradient x1="45.448" y1="92.54" x2="45.448" y2="7.017" id="d" gradientUnits="userSpaceOnUse" gradientTransform="scale(1.00587 .99417)"><stop style="stop-color:#000;stop-opacity:1" offset="0"/><stop style="stop-color:#000;stop-opacity:.58823532" offset="1"/></linearGradient><linearGradient id="a"><stop style="stop-color:#fff;stop-opacity:1" offset="0"/><stop style="stop-color:#fff;stop-opacity:0" offset="1"/></linearGradient><linearGradient id="b"><stop style="stop-color:#d70751;stop-opacity:1" offset="0"/><stop style="stop-color:#e7466b;stop-opacity:1" offset="1"/></linearGradient><linearGradient x1="36.357" y1="6" x2="36.357" y2="63.893" id="k" xlink:href="#a" gradientUnits="userSpaceOnUse"/><linearGradient x1="48" y1="20.221" x2="48" y2="138.661" id="n" xlink:href="#a" gradientUnits="userSpaceOnUse"/><linearGradient x1="48" y1="90" x2="48" y2="5.988" id="j" xlink:href="#b" gradientUnits="userSpaceOnUse"/><linearGradient x1="45.448" y1="92.54" x2="45.448" y2="7.017" id="c" gradientUnits="userSpaceOnUse" gradientTransform="matrix(1.00587 0 0 .99417 100 0)"><stop style="stop-color:#000;stop-opacity:1" offset="0"/><stop style="stop-color:#000;stop-opacity:.58823532" offset="1"/></linearGradient><linearGradient x1="32.251" y1="6.132" x2="32.251" y2="90.239" id="f" xlink:href="#c" gradientUnits="userSpaceOnUse" gradientTransform="matrix(1.0238 0 0 1.0119 -1.143 -98.071)"/><linearGradient x1="32.251" y1="6.132" x2="32.251" y2="90.239" id="g" xlink:href="#c" gradientUnits="userSpaceOnUse" gradientTransform="matrix(1.0238 0 0 1.0119 -1.143 -98.071)"/><linearGradient x1="32.251" y1="6.132" x2="32.251" y2="90.239" id="h" xlink:href="#c" gradientUnits="userSpaceOnUse" gradientTransform="matrix(1.0238 0 0 1.0119 -1.143 -98.071)"/><linearGradient x1="32.251" y1="6.132" x2="32.251" y2="90.239" id="i" xlink:href="#c" gradientUnits="userSpaceOnUse" gradientTransform="translate(0 -97)"/><linearGradient x1="32.251" y1="6.132" x2="32.251" y2="90.239" id="e" xlink:href="#c" gradientUnits="userSpaceOnUse" gradientTransform="matrix(1.0238 0 0 1.0119 -1.143 -98.071)"/><radialGradient cx="48" cy="90.172" r="42" fx="48" fy="90.172" id="l" xlink:href="#a" gradientUnits="userSpaceOnUse" gradientTransform="matrix(1.15731 0 0 .9959 -7.551 .197)"/><clipPath id="m"><rect width="84" height="84" rx="6" ry="6" x="6" y="6" style="fill:#fff;fill-opacity:1;fill-rule:nonzero;stroke:none"/></clipPath></defs><g style="display:none"><rect width="86" height="85" rx="6" ry="6" x="5" y="7" style="opacity:.9;fill:url(#d);fill-opacity:1;fill-rule:nonzero;stroke:none;filter:url(#filter3174)"/></g><g transform="scale(1 -1)"><path d="M12-95.031c-5.511 0-10.031 4.52-10.031 10.031v71C1.969-8.489 6.489-3.969 12-3.969h72c5.511 0 10.031-4.52 10.031-10.031v-71c0-5.511-4.52-10.031-10.031-10.031H12z" style="opacity:.07999998;fill:url(#e);fill-opacity:1;fill-rule:nonzero;stroke:none;display:inline"/><path d="M12-94.031c-4.972 0-9.031 4.06-9.031 9.031v71c0 4.972 4.06 9.031 9.031 9.031h72c4.972 0 9.031-4.06 9.031-9.031v-71c0-4.972-4.06-9.031-9.031-9.031H12z" style="opacity:.1;fill:url(#f);fill-opacity:1;fill-rule:nonzero;stroke:none;display:inline"/><path d="M12-93c-4.41 0-8 3.59-8 8v71c0 4.41 3.59 8 8 8h72c4.41 0 8-3.59 8-8v-71c0-4.41-3.59-8-8-8H12z" style="opacity:.2;fill:url(#g);fill-opacity:1;fill-rule:nonzero;stroke:none;display:inline"/><rect width="86" height="85" rx="7" ry="7" x="5" y="-92" style="opacity:.3;fill:url(#h);fill-opacity:1;fill-rule:nonzero;stroke:none;display:inline"/><rect width="84" height="84" rx="6" ry="6" x="6" y="-91" style="opacity:.45;fill:url(#i);fill-opacity:1;fill-rule:nonzero;stroke:none;display:inline"/></g><rect width="84" height="84" rx="6" ry="6" x="6" y="6" style="fill:url(#j);fill-opacity:1;fill-rule:nonzero;stroke:none"/><path d="M12 6c-3.324 0-6 2.676-6 6v72c0 .335.041.65.094.969.048.295.097.597.187.875l.032.094c.098.287.234.547.375.812.144.274.315.536.5.781a6.105 6.105 0 0 0 2.094 1.781c.278.14.573.247.874.344a4.843 4.843 0 0 1-.719-.375c-.007-.004-.023.005-.03 0-.033-.02-.063-.042-.095-.062-.12-.077-.23-.164-.343-.25-.106-.081-.214-.161-.313-.25a5.042 5.042 0 0 1-.5-.531 5.092 5.092 0 0 1-.312-.407c-.025-.038-.039-.086-.063-.125-.065-.103-.13-.204-.187-.312a5.371 5.371 0 0 1-.282-.625c-.007-.022-.023-.04-.03-.063-.033-.092-.037-.187-.063-.281-.03-.107-.07-.203-.094-.313A5.098 5.098 0 0 1 7 85V13c0-2.782 2.218-5 5-5h72c2.782 0 5 2.218 5 5v72c0 .364-.052.721-.125 1.063a4.896 4.896 0 0 1-.156.593c-.008.022-.024.04-.031.063a5.482 5.482 0 0 1-.22.531c-.04.083-.078.17-.124.25-.055.097-.127.188-.188.281a5.092 5.092 0 0 1-.312.406 5.05 5.05 0 0 1-.469.5l-.031.032a4.818 4.818 0 0 1-.438.344c-.102.073-.204.153-.312.218-.008.005-.024-.004-.031 0a4.843 4.843 0 0 1-.72.375c.302-.097.597-.204.876-.344a6.105 6.105 0 0 0 2.094-1.78c.184-.246.355-.508.5-.782a5.69 5.69 0 0 0 .374-.813l.032-.093c.09-.278.139-.58.187-.875.053-.318.094-.634.094-.969V12c0-3.324-2.676-6-6-6H12z" style="opacity:.4;fill:url(#k);fill-opacity:1;fill-rule:nonzero;stroke:none"/><path d="M12 90c-3.324 0-6-2.676-6-6V12c0-.335.041-.65.094-.969.048-.295.097-.597.187-.875l.032-.094a5.69 5.69 0 0 1 .375-.812c.144-.274.315-.536.5-.781a6.105 6.105 0 0 1 2.094-1.781c.278-.14.573-.247.874-.344-.256.1-.486.236-.719.375-.007.004-.023-.005-.03 0-.033.019-.063.042-.095.062-.12.077-.23.164-.343.25-.106.081-.214.161-.313.25a5.042 5.042 0 0 0-.5.532c-.107.13-.218.265-.312.406-.025.038-.039.086-.063.125-.065.103-.13.204-.187.312a5.371 5.371 0 0 0-.282.625c-.007.022-.023.04-.03.063-.033.092-.037.187-.063.281-.03.107-.07.203-.094.313A5.098 5.098 0 0 0 7 11v72c0 2.782 2.218 5 5 5h72c2.782 0 5-2.218 5-5V11c0-.364-.052-.721-.125-1.063a4.896 4.896 0 0 0-.156-.593c-.008-.022-.024-.04-.031-.063a5.482 5.482 0 0 0-.22-.531c-.04-.083-.078-.17-.124-.25-.055-.097-.127-.188-.188-.281a5.092 5.092 0 0 0-.312-.406 5.05 5.05 0 0 0-.469-.5l-.031-.032a4.818 4.818 0 0 0-.438-.343c-.102-.074-.204-.154-.312-.22-.008-.004-.024.005-.031 0a4.843 4.843 0 0 0-.72-.374c.302.097.597.204.876.343a6.105 6.105 0 0 1 2.094 1.782c.184.245.355.507.5.781.14.265.276.525.374.813l.032.093c.09.278.139.58.187.875.053.318.094.634.094.969v72c0 3.324-2.676 6-6 6H12z" style="opacity:.2;fill:url(#l);fill-opacity:1;fill-rule:nonzero;stroke:none"/><path d="M69.584 42.96c.07 1.89-.551 2.807-1.113 4.43l-1.011.503c-.826 1.606.082 1.02-.51 2.296-1.291 1.147-3.913 3.588-4.753 3.811-.614-.013.415-.724.55-1.001-1.728 1.185-1.387 1.78-4.028 2.5l-.077-.172c-6.512 3.065-15.56-3.008-15.44-11.292-.07.526-.199.394-.342.606-.337-4.262 1.968-8.542 5.855-10.293 3.802-1.881 8.26-1.11 10.98 1.43-1.494-1.96-4.472-4.037-7.999-3.844-3.456.056-6.69 2.252-7.77 4.638-1.77 1.114-1.976 4.296-2.747 4.88-1.039 7.63 1.953 10.925 7.013 14.804.795.536.224.618.33 1.026-1.68-.786-3.22-1.974-4.486-3.43.673.983 1.397 1.939 2.335 2.69-1.587-.536-3.705-3.842-4.321-3.976 2.732 4.892 11.084 8.58 15.46 6.75-2.025.075-4.596.041-6.87-.8-.958-.49-2.255-1.508-2.022-1.698 5.97 2.229 12.135 1.687 17.3-2.453 1.314-1.024 2.75-2.765 3.165-2.788-.625.94.107.452-.373 1.281 1.307-2.112-.57-.86 1.353-3.646l.71.977c-.266-1.754 2.177-3.882 1.928-6.655.56-.847.625.913.03 2.863.826-2.163.219-2.51.43-4.297.227.6.53 1.238.684 1.872-.538-2.091.55-3.52.82-4.736-.267-.117-.83.924-.96-1.545.02-1.073.3-.562.407-.826-.21-.121-.762-.944-1.097-2.52.241-.372.65.96.982 1.014-.214-1.253-.58-2.21-.596-3.172-.97-2.025-.343.27-1.128-.87-1.032-3.216.855-.746.983-2.206 1.562 2.263 2.453 5.773 2.863 7.227-.312-1.773-.817-3.49-1.434-5.152.477.201-.765-3.645.619-1.098-1.477-5.43-6.316-10.504-10.768-12.883.543.498 1.23 1.123.985 1.222-2.216-1.318-1.826-1.422-2.144-1.978-1.802-.735-1.922.06-3.114.001-3.401-1.804-4.056-1.613-7.186-2.742l.142.666c-2.252-.75-2.624.283-5.058.002-.148-.115.78-.419 1.545-.53-2.178.288-2.077-.43-4.208.08.525-.369 1.081-.613 1.641-.926-1.775.108-4.24 1.034-3.48.19-2.896 1.294-8.041 3.109-10.929 5.816l-.09-.607c-1.323 1.588-5.77 4.743-6.123 6.801l-.354.082c-.688 1.166-1.134 2.486-1.68 3.685-.9 1.535-1.32.59-1.191.832-1.771 3.59-2.652 6.606-3.411 9.081.54.81.013 4.872.217 8.124-.888 16.061 11.272 31.655 24.564 35.254 1.949.698 4.845.673 7.31.742-2.907-.832-3.282-.44-6.116-1.428-2.043-.963-2.49-2.061-3.938-3.318l.573 1.013c-2.838-1.005-1.65-1.243-3.96-1.974l.613-.798c-.92-.07-2.437-1.55-2.852-2.372l-1.007.04c-1.208-1.49-1.853-2.566-1.806-3.4l-.325.58c-.368-.633-4.449-5.597-2.332-4.441-.393-.358-.916-.584-1.483-1.615l.43-.492c-1.016-1.311-1.874-2.991-1.808-3.551.543.733.92.87 1.294.997-2.573-6.383-2.718-.351-4.665-6.497l.41-.033c-.314-.478-.507-.993-.76-1.5l.18-1.787c-1.852-2.139-.518-9.104-.25-12.923.183-1.553 1.545-3.206 2.58-5.8l-.63-.107c1.205-2.102 6.881-8.443 9.511-8.118 1.274-1.6-.253-.006-.503-.408 2.798-2.895 3.678-2.045 5.566-2.567 2.035-1.208-1.747.473-.783-.46 3.52-.898 2.494-2.044 7.086-2.5.485.276-1.124.426-1.527.783 2.932-1.435 9.28-1.108 13.404.796 4.782 2.237 10.159 8.845 10.372 15.063l.241.065c-.122 2.472.379 5.331-.49 7.956l.587-1.244" style="fill:#fff;display:inline"/><g><rect width="66" height="66" rx="12" ry="12" x="15" y="15" clip-path="url(#m)" style="opacity:.1;fill:url(#n);fill-opacity:1;fill-rule:nonzero;stroke:#fff;stroke-width:.5;stroke-linecap:round;stroke-linejoin:miter;stroke-miterlimit:4;stroke-opacity:1;stroke-dasharray:none;stroke-dashoffset:0;filter:url(#filter3794)"/></g></svg>