<svg width="64" height="64" color-interpolation="linearRGB" xmlns="http://www.w3.org/2000/svg"><path style="fill:#010000;fill-opacity:.4431" d="M38 58h5l21-22-8-4H38v26z"/><path style="fill:none;stroke:#010000;stroke-width:4" d="m2 30 19-16 37 14v8L38 56 2 38v-8z"/><linearGradient id="a" gradientUnits="userSpaceOnUse" x1="35.39" y1="14.68" x2="50.49" y2="42.9"><stop offset="0" stop-color="#c2772f"/><stop offset="1" stop-color="#7f4c00"/></linearGradient><path style="fill:url(#a)" d="M38 56 2 38v-8l36 16v10z"/><linearGradient id="b" gradientUnits="userSpaceOnUse" x1="35.46" y1="64.93" x2="27.91" y2="55.93"><stop offset="0" stop-color="#e6e276"/><stop offset="1" stop-color="#e8bf71"/></linearGradient><path style="fill:url(#b)" d="M38 46v10l20-20v-8L38 46z"/><radialGradient id="c" gradientUnits="userSpaceOnUse" cx="0" cy="0" r="64" gradientTransform="matrix(.6073 .2281 -.0814 .2168 31.667 28.574)"><stop offset="0" stop-color="#ffb267"/><stop offset="1" stop-color="#a35d01"/></radialGradient><path style="fill:url(#c)" d="M4.23 28.11 21 14l37 14-18 16L4.23 28.11z"/><linearGradient id="d" gradientUnits="userSpaceOnUse" x1="33.55" y1="5.08" x2="57.12" y2="26.73"><stop offset="0" stop-color="#f0b840"/><stop offset="1" stop-color="#b96d23"/></linearGradient><path style="fill:url(#d)" d="m2 30 2.23-1.89 36.14 15.75L38 46 2 30z"/><linearGradient id="e" gradientUnits="userSpaceOnUse" x1="26" y1="-48" x2="62" y2="-48"><stop offset="0" stop-color="#7f4c00"/><stop offset="1" stop-color="#e8bf71"/></linearGradient><path style="fill:url(#e)" d="M58 32 34 54h2" transform="matrix(.8333 0 0 .8363 9.667 3.236)"/><linearGradient id="f" gradientUnits="userSpaceOnUse" x1="26" y1="-48" x2="62" y2="-48"><stop offset="0" stop-color="#7f4c00"/><stop offset="1" stop-color="#e8bf71"/></linearGradient><path style="fill:url(#f)" d="M58 32 34 54h2" transform="matrix(.8333 0 0 .8363 9.667 5.996)"/><linearGradient id="g" gradientUnits="userSpaceOnUse" x1="26" y1="-48" x2="62" y2="-48"><stop offset="0" stop-color="#7f4c00"/><stop offset="1" stop-color="#e8bf71"/></linearGradient><path style="fill:url(#g)" d="M58 32 34 54h2" transform="matrix(.8333 0 0 .8363 9.667 7.836)"/><path style="fill:none;stroke:#3c2401;stroke-width:1" d="M58 28 40 44l-1.13 1.75-.12 4.87L39 56l19.25-19.13"/><path style="fill:none;stroke:#3c2401;stroke-width:1" d="m4 28 37 16-2.13 1.75-.12 4.87L39 56l19.25-19.13"/></svg>