<svg width="64" height="64" color-interpolation="linearRGB" xmlns="http://www.w3.org/2000/svg"><path style="fill:#010101;fill-opacity:.4549" d="M39 64s5-11 13-13 12-2 12-2l-20-9-9 22 4 2z"/><path style="fill:none;stroke:#010101;stroke-width:4" d="M34 62s6.43-5.65 8-8c4-6 10.97-22.23 15.52-32.23C59.61 17.17 62 14 62 14L28 6s-6.66 16.13-14 28C8.67 42.59 2 48 2 48l32 14z"/><linearGradient id="a" gradientUnits="userSpaceOnUse" x1="-67.48" y1="18.77" x2="-50.02" y2="-27.07"><stop offset="0" stop-color="#f6d177"/><stop offset=".165" stop-color="#ffdc89"/><stop offset="1" stop-color="#e3b043"/></linearGradient><path style="fill:url(#a)" d="M34 62s6.43-5.65 8-8c4-6 10.97-22.23 15.52-32.23C59.61 17.17 62 14 62 14L28 6s-6.66 16.13-14 28C8.67 42.59 2 48 2 48l32 14z"/><path style="fill:#ae0303" d="M8 43h4l4-3-1 4 3 4-4-1-4.63 3.5L11 46l-3-3zm3-1 1-1 3 8h-1l-3-7z"/><path style="fill:#ae0303" d="m11 42 1-1 3 8h-1l-3-7z" transform="scale(-1) rotate(-87.897 -46.684 13.487)"/><path style="fill:none;stroke:#ae0303;stroke-width:1" d="M10.03 2.28 13 6.01V2.28h1v5h-1.04L10 3.51v3.77H9v-5h1.03z" transform="rotate(28.992 -46.888 33.39) scale(.9999)"/><path style="fill:#535353" d="m17 51 17 7 1-2-17-7-1 2z"/><path style="fill:#535353" d="m19 47 1 1-3 5-1-1 3-5z"/><path style="fill:#535353" d="m19 47 1 1-3 5-1-1 3-5z" transform="translate(8 3)"/><path style="fill:#535353" d="m19 47 1 1-3 5-1-1 3-5z" transform="translate(16 7)"/><linearGradient id="b" gradientUnits="userSpaceOnUse" x1="27.18" y1="-17.95" x2="73.19" y2="-1.94"><stop offset="0" stop-color="#29c505"/><stop offset="1" stop-color="#146002"/></linearGradient><path style="fill:url(#b)" d="m40 30.55-2 10h-4l2-10L26 30v-3l10 .55v-1.23l-1.02-3.77L26 22v-3l7.34.55-7.34-13h5.53l7.43 14.97 8.5-16.97L53 4l-8.4 15.55H51v3h-8.02l-3.03 3.77v1.23H50V31l-10-.45z" transform="rotate(22.558 19.95 19.033) scale(.9999)"/><path style="fill:none;stroke:#010101;stroke-opacity:.4549;stroke-width:2" d="m40 30.55-2 10h-4l2-10L26 30v-3l10 .55v-1.23l-1.02-3.77L26 22v-3l7.34.55-7.34-13h5.53l7.43 14.97 8.5-16.97L53 4l-8.4 15.55H51v3h-8.02l-3.03 3.77v1.23H50V31l-10-.45z" transform="rotate(22.558 19.95 19.033) scale(.9999)"/><linearGradient id="c" gradientUnits="userSpaceOnUse" x1="27.18" y1="-17.95" x2="73.19" y2="-1.94"><stop offset="0" stop-color="#29c505"/><stop offset="1" stop-color="#146002"/></linearGradient><path style="fill:url(#c)" d="M41.12 10.62c2.88.25 4.5 1 4.5 1s.25 1.5-.5 3.63c-.75 2.12-3.25 1.5-3.25 1.5s-.37.25-1.5-1.38C39.25 13.75 39 11.12 39 11.12s-.75-.75 2.12-.5z"/><path style="fill:none;stroke:#010101;stroke-opacity:.4549;stroke-width:1.5" d="M41.12 10.62c2.88.25 4.5 1 4.5 1s.25 1.5-.5 3.63c-.75 2.12-3.25 1.5-3.25 1.5s-.37.25-1.5-1.38C39.25 13.75 39 11.12 39 11.12s-.75-.75 2.12-.5z"/><linearGradient id="d" gradientUnits="userSpaceOnUse" x1="27.18" y1="-17.95" x2="73.19" y2="-1.94"><stop offset="0" stop-color="#29c505"/><stop offset="1" stop-color="#146002"/></linearGradient><path style="fill:url(#d)" d="M41.12 10.62c2.88.25 4.5 1 4.5 1s.25 1.5-.5 3.63c-.75 2.12-3.25 1.5-3.25 1.5s-.37.25-1.5-1.38C39.25 13.75 39 11.12 39 11.12s-.75-.75 2.12-.5z" transform="matrix(.5522 -.3814 .332 .4806 23.896 36.71)"/><linearGradient id="e" gradientUnits="userSpaceOnUse" x1="27.18" y1="-17.95" x2="73.19" y2="-1.94"><stop offset="0" stop-color="#29c505"/><stop offset="1" stop-color="#146002"/></linearGradient><path style="fill:url(#e)" d="M41.12 10.62c2.88.25 4.5 1 4.5 1s.25 1.5-.5 3.63c-.75 2.12-3.25 1.5-3.25 1.5s-.37.25-1.5-1.38C39.25 13.75 39 11.12 39 11.12s-.75-.75 2.12-.5z" transform="matrix(1.2862 .8086 -1.0433 .7781 -3.964 3.116)"/><path style="fill:none;stroke:#010101;stroke-opacity:.4549;stroke-width:1.5" d="M41.12 10.62c2.88.25 4.5 1 4.5 1s.25 1.5-.5 3.63c-.75 2.12-3.25 1.5-3.25 1.5s-.37.25-1.5-1.38C39.25 13.75 39 11.12 39 11.12s-.75-.75 2.12-.5z" transform="matrix(1.2862 .8086 -1.0433 .7781 -3.964 3.116)"/></svg>