<svg width="64" height="64" color-interpolation="linearRGB" xmlns="http://www.w3.org/2000/svg"><path style="fill:#010101;fill-opacity:.5725" d="M40 62h2l2 1 20-28-9-6-18 32h2l1 1z"/><path style="fill:none;stroke:#010101;stroke-width:4" d="M2.62 38.87s8.33 5.39 16.38 11c8.44 5.88 16.75 10.88 16.75 10.88l22.37-26.38-32.12-17-23.38 21.5z"/><radialGradient id="a" gradientUnits="userSpaceOnUse" cx="0" cy="0" r="64" gradientTransform="matrix(.2756 .4683 -.39 .2295 31.326 28.388)"><stop offset="1" stop-color="#c0d5ff"/><stop offset=".489" stop-color="#896eff"/></radialGradient><path style="fill:url(#a)" d="M2.62 38.87s8.33 5.39 16.38 11c8.44 5.88 16.75 10.88 16.75 10.88l22.37-26.38-32.12-17-23.38 21.5z"/><path style="fill:none;stroke:#010101;stroke-width:4" d="M2.62 30.87s8.01 5.88 16.38 11c10 6.13 16.75 9.88 16.75 9.88l22.37-25.38L26 9.37 2.62 30.87z"/><radialGradient id="b" gradientUnits="userSpaceOnUse" cx="0" cy="0" r="64" gradientTransform="matrix(.3055 .4867 -.3665 .23 28.202 16.06)"><stop offset="1" stop-color="#c0d5ff"/><stop offset=".489" stop-color="#896eff"/></radialGradient><path style="fill:url(#b)" d="M2.62 30.87s8.01 5.88 16.38 11c10 6.13 16.75 9.88 16.75 9.88l22.37-25.38L26 9.37 2.62 30.87z"/><path style="fill:none;stroke:#010101;stroke-width:4" d="M2.62 22.87s7.85 6.15 16.38 11c9 5.13 16.75 8.88 16.75 8.88l22.37-24.38s-12.68-4.67-22.75-10C30.18 5.62 26 3 26 3L2.62 22.87z"/><linearGradient id="c" gradientUnits="userSpaceOnUse" x1="105.45" y1="-31.42" x2="119.92" y2="26.32"><stop offset="0" stop-color="#a5b1ff"/><stop offset=".739" stop-color="#eaf1ff"/><stop offset="1" stop-color="#b3b8ff"/></linearGradient><path style="fill:url(#c)" d="M2.62 22.87s7.85 6.15 16.38 11c9 5.13 16.75 8.88 16.75 8.88l22.37-24.38s-12.68-4.67-22.75-10C30.18 5.62 26 3 26 3L2.62 22.87z"/></svg>