<svg width="64" height="64" color-interpolation="linearRGB" xmlns="http://www.w3.org/2000/svg"><path style="fill:#010101;fill-opacity:.4627" d="M44 62c2 0 7 0 11-1 0 0 2 1 3 0s1-3 1-3c1-1 5-6 4.96-10.94C64 44 62 41 60 40c2-2 0-8-6-8L8 38l16 22h14s4 1 6 2z"/><path style="fill:none;stroke:#010101;stroke-width:4" d="M30 2c15.68 0 28 12.31 28 28 0 15.68-12.32 28-28 28C14.31 58 2 45.68 2 30 2 14.31 14.31 2 30 2z"/><radialGradient id="a" gradientUnits="userSpaceOnUse" cx="0" cy="0" r="64" gradientTransform="matrix(.625 0 0 .625 18 18)"><stop offset=".003" stop-color="#fff"/><stop offset=".495" stop-color="#ff8752"/><stop offset="1" stop-color="#c90505"/></radialGradient><path style="fill:url(#a)" d="M30 2c15.68 0 28 12.31 28 28 0 15.68-12.32 28-28 28C14.31 58 2 45.68 2 30 2 14.31 14.31 2 30 2z"/><path style="fill:#870303;fill-opacity:.4627" d="M6 15c3 0 10 1 12-1s1-5-2-8m16 14c0 2 4 3 7 5s7 8 9 8c3 0 3-10 3-13H32z"/><path style="fill:none;stroke:#010101;stroke-width:4" d="M15 13c1-1 1-6-1-6l-3 1C8 3 4 0 2 3c0 2 3 11 4 12m40 12c1 0 11-8 11-12 0-3-8 1-13 1-5.1 0-11 1-10 4"/><path style="fill:#d21111" d="M16 14c0-1 0-7-2-7h-3C8 5 4-1 2 3c0-2 14 10 14 11zm16 6c0-1 25-6 25-5 0-3-8 1-13 1-5.1 0-12 1-12 4z"/><path style="fill:#bc0505" d="M6 15c1 0 2-1 4-1h6C16 13 2 1 2 3s3 11 4 12zm26 5c0 2 5 2 8 4s4 5 6 5c1 0 11-10 11-14 0-1-25 4-25 5z"/><path style="fill:#fff" d="M16 14c-2.23-1.78-5.03-2.05-7-5C7 6 3 .88 3 2c.57-2.86 4 2 6 6 1.66 3.33 5.71 4.28 7 6zm16 6c1.09-.55 15.03-2.35 17-3 3-1 8-3.36 8-2 0-.44-3.97 4.25-6 4-2.04-.26-19 .43-19 1z"/></svg>