<svg width="64" height="64" color-interpolation="linearRGB" xmlns="http://www.w3.org/2000/svg"><linearGradient id="a" gradientUnits="userSpaceOnUse" x1="75" y1="7" x2="75" y2="59"><stop offset="0" stop-color="#010101" stop-opacity=".4"/><stop offset="1" stop-color="#010101" stop-opacity=".521"/></linearGradient><path style="fill:url(#a)" d="M2 58h6c6-5 9-9 9-9s8 7 12 7v-5c11 5 23-1 23-1l-1-3s8-1 13-7c0-7-17-9-17-9 8-5 9-15 9-15s-5-2-4-6c-3 1-6 1-6 1L3 45c3 2 10 2 10 2L2 58z"/><path style="fill:none;stroke:#000;stroke-width:4;stroke-linejoin:round" d="M46 6s-8 5-12 4c-7 4-10 12-10 12l3 12 11-14 8-14zM2 22c-1 9 6 18 6 18l-4 1s3 4 11 3l12-10-3-12-8-12-4 2-4-3c-4 4-2 13-2 13H2zm15 23c0 7 8 9 8 9l1-5s15 4 22-2l-2-3s7-1 12-8l-4-2v-2l-13-2-14 4-10 11zm-2-1C9 50 2 55 2 55l4 1s6-5 11-11l-2-1zm26-14s8.37-8.51 9-15c-2.86-1.23-4-9-4-9l-8 14-11 14 14-4z"/><radialGradient id="b" gradientUnits="userSpaceOnUse" cx="0" cy="0" r="64" gradientTransform="matrix(.082 .3615 -1.0116 .2297 31.39 34)"><stop offset="0" stop-color="#fdb33d"/><stop offset="1" stop-color="#da4c05"/></radialGradient><path style="fill:url(#b)" d="M2 22c-1 9 6 18 6 18l-4 1s3 4 11 3l12-10-3-12-8-12-4 2-4-3c-4 4-2 13-2 13H2z"/><radialGradient id="c" gradientUnits="userSpaceOnUse" cx="0" cy="0" r="64" gradientTransform="matrix(-.3947 .4201 -.322 -.3026 32.79 40.125)"><stop offset="0" stop-color="#ffd659"/><stop offset="1" stop-color="#f7702e"/></radialGradient><path style="fill:url(#c)" d="M17 45c0 7 8 9 8 9l1-5s15 4 22-2l-2-3s7-1 12-8l-4-2v-2l-13-2-14 4-10 11z"/><radialGradient id="d" gradientUnits="userSpaceOnUse" cx="0" cy="0" r="64" gradientTransform="matrix(.1608 .3371 -.6549 .3123 41.384 7.91)"><stop offset="0" stop-color="#da4c05"/><stop offset=".996" stop-color="#ffb643"/></radialGradient><path style="fill:url(#d)" d="M46 6s-8 5-12 4c-7 4-10 12-10 12l3 12 11-14 8-14z"/><radialGradient id="e" gradientUnits="userSpaceOnUse" cx="0" cy="0" r="64" gradientTransform="matrix(.1608 .3371 -.6549 .3123 41.384 7.91)"><stop offset="0" stop-color="#f7702e"/><stop offset="1" stop-color="#ffd659"/></radialGradient><path style="fill:url(#e)" d="M41 30s8.37-8.51 9-15c-2.86-1.23-4-9-4-9l-8 14-11 14 14-4z"/><linearGradient id="f" gradientUnits="userSpaceOnUse" x1="-1.2" y1="90.17" x2="-27.84" y2="60.86"><stop offset="0" stop-color="#ffab3e"/><stop offset="1" stop-color="#dd7a29"/></linearGradient><path style="fill:url(#f)" d="M15.37 44.5s2-1.82 3.88-3.5C15 38 12 34 12 34s5 4 8.57 5.82l2.14-1.72C21 32 13 20 13 20s8.62 11.5 11 17c6-7 16-20 16-20s-8 15-14.23 20.27C33.37 38.5 51 36 51 36s-19 5-26.54 2.69L23 41c5.87 3.73 8 5 8 5s-5-1-9-4c-1.84 1.7-5 5-5 5l-1.63-2.5z"/><linearGradient id="g" gradientUnits="userSpaceOnUse" x1="34.1" y1="32.73" x2="37.72" y2="38.74"><stop offset="0" stop-color="#ffd75f"/><stop offset="1" stop-color="#a4370b"/></linearGradient><path style="fill:url(#g)" d="M15 44C9 50 2 55 2 55l4 1s6-5 11-11l-2-1z"/><linearGradient id="h" gradientUnits="userSpaceOnUse" x1="74.22" y1="41.1" x2="56.23" y2="68.36"><stop offset="0" stop-color="#ffc14b"/><stop offset="1" stop-color="#ffd75f"/></linearGradient><path style="fill:url(#h)" d="M15 44s3.71-3.31 9-8c9-8 20-27 20-27S34 28 25.39 36.77C34 37 45 37 45 37s-10 1-20.92 1.19l-1.96 2.07C28 44 38 47 38 47s-8.88-1.88-16.97-5.48C19.19 43.23 17 45 17 45l-2-1z"/></svg>