<svg xmlns="http://www.w3.org/2000/svg" xmlns:xlink="http://www.w3.org/1999/xlink" color-interpolation="linearRGB" height="98.694" width="236.957"><path style="fill:none;stroke:#000;stroke-width:4;stroke-linecap:round;stroke-linejoin:round;stroke-opacity:.4" d="M40 21 20 40V30H2V12h18V2z" transform="matrix(.39161 0 0 .39161 24.94 34.833)"/><path style="fill:none;stroke:#005900;stroke-width:4;stroke-linecap:round;stroke-linejoin:round" d="M40 21 20 40V30H2V12h18V2z" transform="matrix(.39161 0 0 .39161 24.156 34.05)"/><path style="fill:url(#a)" d="M40 21 20 40V30H2V12h18V2z" transform="matrix(.39161 0 0 .39161 24.156 34.05)"/><defs><linearGradient id="d" gradientUnits="userSpaceOnUse" x1="107.04" y1="-17.09" x2="118.33" y2="27.99" gradientTransform="matrix(.2601 0 0 .2601 25.34 32.162)"><stop offset="0" stop-color="#d6d6d6"/><stop offset=".742" stop-color="#f5f5f5"/><stop offset="1" stop-color="#e6e6e6"/></linearGradient><linearGradient id="e" gradientUnits="userSpaceOnUse" x1="-32" y1="-16" x2="48" y2="-16" gradientTransform="matrix(.2601 0 0 .2601 25.34 32.162)"><stop offset="1" stop-color="#1467ff"/><stop offset=".404" stop-color="#06f8b7"/></linearGradient><linearGradient id="l" gradientUnits="userSpaceOnUse" x1="107.04" y1="-17.09" x2="118.33" y2="27.99" gradientTransform="matrix(.2601 0 0 .2601 34.712 23.494)"><stop offset="0" stop-color="#a5c5ff"/><stop offset=".742" stop-color="#eaf2ff"/><stop offset="1" stop-color="#d5e3ff"/></linearGradient><linearGradient id="m" gradientUnits="userSpaceOnUse" x1="-16.88" y1="12.97" x2="2.32" y2="-12.12" gradientTransform="matrix(.2601 0 0 .2601 34.712 23.494)"><stop offset="0" stop-color="#010101"/><stop offset="1" stop-color="#272727"/></linearGradient><linearGradient id="f" gradientUnits="userSpaceOnUse" x1="35.39" y1="14.68" x2="50.49" y2="42.9"><stop offset="0" stop-color="#686868"/><stop offset="1" stop-color="#393939"/></linearGradient><linearGradient id="g" gradientUnits="userSpaceOnUse" x1="39.81" y1="66.3" x2="30.43" y2="59.24"><stop offset="0" stop-color="#505050"/><stop offset="1" stop-color="#222"/></linearGradient><linearGradient id="h" gradientUnits="userSpaceOnUse" x1="49.05" y1="4.66" x2="61.23" y2="34.25"><stop offset="0" stop-color="#aeaeae"/><stop offset="1" stop-color="#7c7c7c"/></linearGradient><linearGradient id="i" gradientUnits="userSpaceOnUse" x1="33.55" y1="5.08" x2="57.12" y2="26.73"><stop offset="0" stop-color="#8e8e8e"/><stop offset="1" stop-color="#5a5a5a"/></linearGradient><linearGradient id="j" gradientUnits="userSpaceOnUse" x1="17.54" y1="4.52" x2="49.01" y2="6.15"><stop offset="0" stop-color="#3c3b3b"/><stop offset=".268" stop-color="#737373"/><stop offset="1" stop-color="#3a3a3a"/></linearGradient><linearGradient id="k" gradientUnits="userSpaceOnUse" x1="41.84" y1="1.06" x2="63.9" y2="24.25"><stop offset="0" stop-color="#fff"/><stop offset="1" stop-color="#e8e8e8"/></linearGradient><linearGradient id="C" gradientUnits="userSpaceOnUse" x1="105.45" y1="-23.42" x2="119.92" y2="34.32" gradientTransform="matrix(.2601 0 0 .2601 192.063 73.576)"><stop offset="0" stop-color="#a5b1ff"/><stop offset=".739" stop-color="#eaf1ff"/><stop offset="1" stop-color="#b3b8ff"/></linearGradient><linearGradient id="D" gradientUnits="userSpaceOnUse" x1="19.58" y1="-2" x2="37.95" y2=".06" gradientTransform="matrix(.2601 0 0 .2601 192.063 73.576)"><stop offset="0" stop-color="#fff9ba"/><stop offset="1" stop-color="#ffc104"/></linearGradient><linearGradient id="E" gradientUnits="userSpaceOnUse" x1="27.29" y1="19.16" x2="46.61" y2="24.04" gradientTransform="matrix(.2601 0 0 .2601 192.063 73.576)"><stop offset="0" stop-color="#badcff"/><stop offset="1" stop-color="#2a20f1"/></linearGradient><linearGradient id="F" gradientUnits="userSpaceOnUse" x1="39.27" y1="-4.08" x2="53.93" y2="-1.85" gradientTransform="matrix(.2601 0 0 .2601 192.063 73.576)"><stop offset="0" stop-color="#e99797"/><stop offset="1" stop-color="#ce3232"/></linearGradient><linearGradient id="G" gradientUnits="userSpaceOnUse" x1="107.04" y1="-17.09" x2="118.33" y2="27.99" gradientTransform="matrix(.2601 0 0 .2601 201.32 64.597)"><stop offset="0" stop-color="#ffce89"/><stop offset=".742" stop-color="#ffeace"/><stop offset="1" stop-color="#ffdab3"/></linearGradient><linearGradient id="H" gradientUnits="userSpaceOnUse" x1="-62.14" y1="43.08" x2="-58.5" y2="14.4" gradientTransform="matrix(.2601 0 0 .2601 201.32 64.597)"><stop offset="0" stop-color="#7f004c"/><stop offset=".961" stop-color="#d60580"/></linearGradient><linearGradient id="I" gradientUnits="userSpaceOnUse" x1="107.04" y1="-17.09" x2="118.33" y2="27.99" gradientTransform="matrix(.2601 0 0 .2601 210.884 55.043)"><stop offset=".008" stop-color="#bfdef4"/><stop offset=".742" stop-color="#fff"/><stop offset="1" stop-color="#e7eefb"/></linearGradient><linearGradient id="b" gradientUnits="userSpaceOnUse" x1="-47.14" y1="-10.78" x2="-28.46" y2="-32.85"><stop offset="0" stop-color="#010101"/><stop offset="1" stop-color="#5296cb"/></linearGradient><linearGradient xlink:href="#b" id="J" gradientUnits="userSpaceOnUse" x1="-47.14" y1="-10.78" x2="-28.46" y2="-32.85" gradientTransform="matrix(.2601 0 0 .2601 210.884 53.743)"/><linearGradient xlink:href="#b" id="K" gradientUnits="userSpaceOnUse" x1="-47.14" y1="-10.78" x2="-28.46" y2="-32.85" gradientTransform="matrix(.2601 0 0 .2601 210.884 53.743)"/><linearGradient id="o" gradientUnits="userSpaceOnUse" x1="107.04" y1="-17.09" x2="118.33" y2="27.99" gradientTransform="matrix(1.30888 0 0 1.09687 .952 -.716)"><stop offset="0" stop-color="#ffefa5"/><stop offset=".742" stop-color="#fffcc0"/><stop offset="1" stop-color="#fff890"/></linearGradient><linearGradient id="c" gradientUnits="userSpaceOnUse" x1="-47.14" y1="-15.78" x2="-28.46" y2="-37.85"><stop offset="0" stop-color="#010101"/><stop offset="1" stop-color="#9e9e9e"/></linearGradient><linearGradient xlink:href="#c" id="L" gradientUnits="userSpaceOnUse" x1="-47.14" y1="-15.78" x2="-28.46" y2="-37.85" gradientTransform="rotate(2 -52.393 11.274)"/><linearGradient xlink:href="#c" id="M" gradientUnits="userSpaceOnUse" x1="-47.14" y1="-15.78" x2="-28.46" y2="-37.85" gradientTransform="rotate(2 -52.393 11.274)"/><linearGradient id="a" gradientUnits="userSpaceOnUse" x1="128" y1="1.99" x2="128" y2="40"><stop offset="0" stop-color="#80ff80"/><stop offset="1" stop-color="#00b300"/></linearGradient><linearGradient id="N" gradientUnits="userSpaceOnUse" x1="128" y1="1.99" x2="128" y2="40"><stop offset="0" stop-color="#80ff80"/><stop offset="1" stop-color="#00b300"/></linearGradient><linearGradient id="O" gradientUnits="userSpaceOnUse" x1="128" y1="1.99" x2="128" y2="40"><stop offset="0" stop-color="#80ff80"/><stop offset="1" stop-color="#00b300"/></linearGradient><linearGradient xlink:href="#d" id="P" gradientUnits="userSpaceOnUse" gradientTransform="matrix(.2601 0 0 .2601 25.34 32.162)" x1="107.04" y1="-17.09" x2="118.33" y2="27.99"/><linearGradient xlink:href="#e" id="Q" gradientUnits="userSpaceOnUse" gradientTransform="matrix(.2601 0 0 .2601 25.34 32.162)" x1="-32" y1="-16" x2="48" y2="-16"/><linearGradient xlink:href="#f" id="R" gradientUnits="userSpaceOnUse" x1="35.39" y1="14.68" x2="50.49" y2="42.9"/><linearGradient xlink:href="#g" id="S" gradientUnits="userSpaceOnUse" x1="39.81" y1="66.3" x2="30.43" y2="59.24"/><linearGradient xlink:href="#h" id="T" gradientUnits="userSpaceOnUse" x1="49.05" y1="4.66" x2="61.23" y2="34.25"/><linearGradient xlink:href="#i" id="U" gradientUnits="userSpaceOnUse" x1="33.55" y1="5.08" x2="57.12" y2="26.73"/><linearGradient xlink:href="#j" id="V" gradientUnits="userSpaceOnUse" x1="17.54" y1="4.52" x2="49.01" y2="6.15"/><linearGradient xlink:href="#k" id="W" gradientUnits="userSpaceOnUse" x1="41.84" y1="1.06" x2="63.9" y2="24.25"/><linearGradient xlink:href="#l" id="X" gradientUnits="userSpaceOnUse" gradientTransform="matrix(.2601 0 0 .2601 34.712 23.494)" x1="107.04" y1="-17.09" x2="118.33" y2="27.99"/><linearGradient xlink:href="#m" id="Z" gradientUnits="userSpaceOnUse" gradientTransform="matrix(.2601 0 0 .2601 34.712 23.494)" x1="-16.88" y1="12.97" x2="2.32" y2="-12.12"/><linearGradient id="aa" gradientUnits="userSpaceOnUse" x1="13.84" y1="-38.14" x2="58.34" y2="-27.7"><stop offset="0" stop-color="#fff"/><stop offset="1" stop-color="#d3d3d3"/></linearGradient><linearGradient id="ab" gradientUnits="userSpaceOnUse" x1="44.72" y1="-7.9" x2="86.1" y2="10.51"><stop offset="0" stop-color="#474747"/><stop offset="1" stop-color="#a5a0a0"/></linearGradient><linearGradient id="ac" gradientUnits="userSpaceOnUse" x1="22.97" y1="92.59" x2="-14.6" y2="67.29"><stop offset="0" stop-color="#7d7d7d"/><stop offset="1" stop-color="#d4d4d4"/></linearGradient><linearGradient id="ad" gradientUnits="userSpaceOnUse" x1="32.05" y1="9.68" x2="43.48" y2="24.05"><stop offset="0" stop-color="#596756"/><stop offset="1" stop-color="#ebb2b2"/></linearGradient><linearGradient id="ae" gradientUnits="userSpaceOnUse" x1="19.72" y1="26.9" x2="38.64" y2="42.79"><stop offset="0" stop-color="#747474"/><stop offset="1" stop-color="#3e3d3d"/></linearGradient><linearGradient id="af" gradientUnits="userSpaceOnUse" x1="51.18" y1="11.2" x2="59.72" y2="35.74"><stop offset="0" stop-color="#b0b0b0"/><stop offset="1" stop-color="#838383"/></linearGradient><linearGradient id="n" gradientUnits="userSpaceOnUse" x1="44.86" y1="36.73" x2="50.72" y2="42.17"><stop offset="0" stop-color="#5a5a5a"/><stop offset=".223" stop-color="#dcdcdc"/><stop offset="1" stop-color="#7e7e7e"/></linearGradient><linearGradient xlink:href="#n" id="ag" gradientUnits="userSpaceOnUse" x1="44.86" y1="36.73" x2="50.72" y2="42.17"/><linearGradient xlink:href="#n" id="ah" gradientUnits="userSpaceOnUse" x1="44.86" y1="36.73" x2="50.72" y2="42.17"/><linearGradient xlink:href="#n" id="ai" gradientUnits="userSpaceOnUse" x1="44.86" y1="36.73" x2="50.72" y2="42.17"/><linearGradient xlink:href="#n" id="aj" gradientUnits="userSpaceOnUse" x1="44.86" y1="36.73" x2="50.72" y2="42.17"/><linearGradient id="ak" gradientUnits="userSpaceOnUse" x1="13.84" y1="-38.14" x2="58.34" y2="-27.7"><stop offset="0" stop-color="#fff"/><stop offset="1" stop-color="#d3d3d3"/></linearGradient><linearGradient id="al" gradientUnits="userSpaceOnUse" x1="44.72" y1="-7.9" x2="86.1" y2="10.51"><stop offset="0" stop-color="#474747"/><stop offset="1" stop-color="#a5a0a0"/></linearGradient><linearGradient id="am" gradientUnits="userSpaceOnUse" x1="22.97" y1="92.59" x2="-14.6" y2="67.29"><stop offset="0" stop-color="#7d7d7d"/><stop offset="1" stop-color="#d4d4d4"/></linearGradient><linearGradient id="an" gradientUnits="userSpaceOnUse" x1="32.05" y1="9.68" x2="43.48" y2="24.05"><stop offset="0" stop-color="#596756"/><stop offset="1" stop-color="#ebb2b2"/></linearGradient><linearGradient id="ao" gradientUnits="userSpaceOnUse" x1="19.72" y1="26.9" x2="38.64" y2="42.79"><stop offset="0" stop-color="#747474"/><stop offset="1" stop-color="#3e3d3d"/></linearGradient><linearGradient id="ap" gradientUnits="userSpaceOnUse" x1="51.18" y1="11.2" x2="59.72" y2="35.74"><stop offset="0" stop-color="#b0b0b0"/><stop offset="1" stop-color="#838383"/></linearGradient><linearGradient xlink:href="#n" id="at" gradientUnits="userSpaceOnUse" x1="44.86" y1="36.73" x2="50.72" y2="42.17"/><linearGradient xlink:href="#n" id="aq" gradientUnits="userSpaceOnUse" x1="44.86" y1="36.73" x2="50.72" y2="42.17"/><linearGradient xlink:href="#n" id="ar" gradientUnits="userSpaceOnUse" x1="44.86" y1="36.73" x2="50.72" y2="42.17"/><linearGradient xlink:href="#n" id="as" gradientUnits="userSpaceOnUse" x1="44.86" y1="36.73" x2="50.72" y2="42.17"/><linearGradient id="au" gradientUnits="userSpaceOnUse" x1="13.84" y1="-38.14" x2="58.34" y2="-27.7"><stop offset="0" stop-color="#fff"/><stop offset="1" stop-color="#d3d3d3"/></linearGradient><linearGradient id="av" gradientUnits="userSpaceOnUse" x1="44.72" y1="-7.9" x2="86.1" y2="10.51"><stop offset="0" stop-color="#474747"/><stop offset="1" stop-color="#a5a0a0"/></linearGradient><linearGradient id="aw" gradientUnits="userSpaceOnUse" x1="22.97" y1="92.59" x2="-14.6" y2="67.29"><stop offset="0" stop-color="#7d7d7d"/><stop offset="1" stop-color="#d4d4d4"/></linearGradient><linearGradient id="ax" gradientUnits="userSpaceOnUse" x1="32.05" y1="9.68" x2="43.48" y2="24.05"><stop offset="0" stop-color="#596756"/><stop offset="1" stop-color="#ebb2b2"/></linearGradient><linearGradient id="ay" gradientUnits="userSpaceOnUse" x1="19.72" y1="26.9" x2="38.64" y2="42.79"><stop offset="0" stop-color="#747474"/><stop offset="1" stop-color="#3e3d3d"/></linearGradient><linearGradient id="az" gradientUnits="userSpaceOnUse" x1="51.18" y1="11.2" x2="59.72" y2="35.74"><stop offset="0" stop-color="#b0b0b0"/><stop offset="1" stop-color="#838383"/></linearGradient><linearGradient xlink:href="#n" id="aD" gradientUnits="userSpaceOnUse" x1="44.86" y1="36.73" x2="50.72" y2="42.17"/><linearGradient xlink:href="#n" id="aA" gradientUnits="userSpaceOnUse" x1="44.86" y1="36.73" x2="50.72" y2="42.17"/><linearGradient xlink:href="#n" id="aB" gradientUnits="userSpaceOnUse" x1="44.86" y1="36.73" x2="50.72" y2="42.17"/><linearGradient xlink:href="#n" id="aC" gradientUnits="userSpaceOnUse" x1="44.86" y1="36.73" x2="50.72" y2="42.17"/><linearGradient xlink:href="#o" id="aE" gradientUnits="userSpaceOnUse" gradientTransform="matrix(1.30888 0 0 1.09687 -12.873 -92.415)" x1="107.04" y1="-17.09" x2="118.33" y2="27.99"/><linearGradient xlink:href="#c" id="aF" gradientUnits="userSpaceOnUse" gradientTransform="rotate(2 -52.393 11.274)" x1="-47.14" y1="-15.78" x2="-28.46" y2="-37.85"/><linearGradient xlink:href="#c" id="aG" gradientUnits="userSpaceOnUse" gradientTransform="rotate(2 -52.393 11.274)" x1="-47.14" y1="-15.78" x2="-28.46" y2="-37.85"/><linearGradient xlink:href="#d" id="aH" gradientUnits="userSpaceOnUse" gradientTransform="matrix(.2601 0 0 .2601 25.34 32.162)" x1="107.04" y1="-17.09" x2="118.33" y2="27.99"/><linearGradient xlink:href="#e" id="aI" gradientUnits="userSpaceOnUse" gradientTransform="matrix(.2601 0 0 .2601 25.34 32.162)" x1="-32" y1="-16" x2="48" y2="-16"/><linearGradient xlink:href="#o" id="aJ" gradientUnits="userSpaceOnUse" gradientTransform="matrix(1.30888 0 0 1.09687 -12.873 -92.415)" x1="107.04" y1="-17.09" x2="118.33" y2="27.99"/><linearGradient xlink:href="#c" id="aK" gradientUnits="userSpaceOnUse" gradientTransform="rotate(2 -52.393 11.274)" x1="-47.14" y1="-15.78" x2="-28.46" y2="-37.85"/><linearGradient xlink:href="#c" id="aL" gradientUnits="userSpaceOnUse" gradientTransform="rotate(2 -52.393 11.274)" x1="-47.14" y1="-15.78" x2="-28.46" y2="-37.85"/><linearGradient xlink:href="#o" id="aM" gradientUnits="userSpaceOnUse" gradientTransform="matrix(1.30888 0 0 1.09687 -12.873 -92.415)" x1="107.04" y1="-17.09" x2="118.33" y2="27.99"/><linearGradient xlink:href="#c" id="aN" gradientUnits="userSpaceOnUse" gradientTransform="rotate(2 -52.393 11.274)" x1="-47.14" y1="-15.78" x2="-28.46" y2="-37.85"/><linearGradient xlink:href="#c" id="aO" gradientUnits="userSpaceOnUse" gradientTransform="rotate(2 -52.393 11.274)" x1="-47.14" y1="-15.78" x2="-28.46" y2="-37.85"/><linearGradient xlink:href="#l" id="aP" gradientUnits="userSpaceOnUse" gradientTransform="matrix(.2601 0 0 .2601 34.712 23.494)" x1="107.04" y1="-17.09" x2="118.33" y2="27.99"/><linearGradient xlink:href="#m" id="aR" gradientUnits="userSpaceOnUse" gradientTransform="matrix(.2601 0 0 .2601 34.712 23.494)" x1="-16.88" y1="12.97" x2="2.32" y2="-12.12"/><linearGradient xlink:href="#f" id="aS" gradientUnits="userSpaceOnUse" x1="35.39" y1="14.68" x2="50.49" y2="42.9"/><linearGradient xlink:href="#g" id="aT" gradientUnits="userSpaceOnUse" x1="39.81" y1="66.3" x2="30.43" y2="59.24"/><linearGradient xlink:href="#h" id="aU" gradientUnits="userSpaceOnUse" x1="49.05" y1="4.66" x2="61.23" y2="34.25"/><linearGradient xlink:href="#i" id="aV" gradientUnits="userSpaceOnUse" x1="33.55" y1="5.08" x2="57.12" y2="26.73"/><linearGradient xlink:href="#j" id="aW" gradientUnits="userSpaceOnUse" x1="17.54" y1="4.52" x2="49.01" y2="6.15"/><linearGradient xlink:href="#k" id="aX" gradientUnits="userSpaceOnUse" x1="41.84" y1="1.06" x2="63.9" y2="24.25"/><linearGradient id="p" gradientUnits="userSpaceOnUse" x1="128" y1="1.99" x2="128" y2="40"><stop offset="0" stop-color="#80ff80"/><stop offset="1" stop-color="#00b300"/></linearGradient><linearGradient xlink:href="#p" id="aY" gradientUnits="userSpaceOnUse" x1="128" y1="1.99" x2="128" y2="40"/><linearGradient xlink:href="#p" id="aZ" gradientUnits="userSpaceOnUse" x1="128" y1="1.99" x2="128" y2="40"/><linearGradient xlink:href="#p" id="ba" gradientUnits="userSpaceOnUse" x1="128" y1="1.99" x2="128" y2="40"/><linearGradient xlink:href="#p" id="bd" gradientUnits="userSpaceOnUse" x1="128" y1="1.99" x2="128" y2="40"/><linearGradient xlink:href="#p" id="bb" gradientUnits="userSpaceOnUse" x1="128" y1="1.99" x2="128" y2="40"/><linearGradient xlink:href="#p" id="bc" gradientUnits="userSpaceOnUse" x1="128" y1="1.99" x2="128" y2="40"/><linearGradient xlink:href="#o" id="q" gradientUnits="userSpaceOnUse" gradientTransform="matrix(1.30888 0 0 1.09687 155.232 32.079)" x1="107.04" y1="-17.09" x2="118.33" y2="27.99"/><linearGradient xlink:href="#d" id="r" gradientUnits="userSpaceOnUse" gradientTransform="matrix(.2601 0 0 .2601 25.34 32.162)" x1="107.04" y1="-17.09" x2="118.33" y2="27.99"/><linearGradient xlink:href="#e" id="s" gradientUnits="userSpaceOnUse" gradientTransform="matrix(.2601 0 0 .2601 25.34 32.162)" x1="-32" y1="-16" x2="48" y2="-16"/><linearGradient xlink:href="#l" id="t" gradientUnits="userSpaceOnUse" gradientTransform="matrix(.2601 0 0 .2601 34.712 23.494)" x1="107.04" y1="-17.09" x2="118.33" y2="27.99"/><linearGradient xlink:href="#m" id="v" gradientUnits="userSpaceOnUse" gradientTransform="matrix(.2601 0 0 .2601 34.712 23.494)" x1="-16.88" y1="12.97" x2="2.32" y2="-12.12"/><linearGradient xlink:href="#f" id="w" gradientUnits="userSpaceOnUse" x1="35.39" y1="14.68" x2="50.49" y2="42.9"/><linearGradient xlink:href="#g" id="x" gradientUnits="userSpaceOnUse" x1="39.81" y1="66.3" x2="30.43" y2="59.24"/><linearGradient xlink:href="#h" id="y" gradientUnits="userSpaceOnUse" x1="49.05" y1="4.66" x2="61.23" y2="34.25"/><linearGradient xlink:href="#i" id="z" gradientUnits="userSpaceOnUse" x1="33.55" y1="5.08" x2="57.12" y2="26.73"/><linearGradient xlink:href="#j" id="A" gradientUnits="userSpaceOnUse" x1="17.54" y1="4.52" x2="49.01" y2="6.15"/><linearGradient xlink:href="#k" id="B" gradientUnits="userSpaceOnUse" x1="41.84" y1="1.06" x2="63.9" y2="24.25"/><radialGradient id="u" gradientUnits="userSpaceOnUse" cx="0" cy="0" r="64" gradientTransform="matrix(.04052 -.04981 .1182 .09616 41.963 30.646)"><stop offset="0" stop-color="#485c85"/><stop offset="1" stop-color="#bbcff7"/></radialGradient><radialGradient id="Y" gradientUnits="userSpaceOnUse" cx="0" cy="0" r="64" gradientTransform="matrix(.04052 -.04981 .1182 .09616 41.963 30.646)"><stop offset="0" stop-color="#485c85"/><stop offset="1" stop-color="#bbcff7"/></radialGradient><radialGradient id="aQ" gradientUnits="userSpaceOnUse" cx="0" cy="0" r="64" gradientTransform="matrix(.04052 -.04981 .1182 .09616 41.963 30.646)"><stop offset="0" stop-color="#485c85"/><stop offset="1" stop-color="#bbcff7"/></radialGradient><path id="be" d="M152.911 122.909h104.371v91.182H152.911z"/></defs><path style="fill:#000;fill-opacity:0;stroke:#000;stroke-width:4.79278;stroke-opacity:.57" d="M159.965 68.343s10.903 5.912 21.44 12.065c11.046 6.45 21.923 11.934 21.923 11.934l29.28-28.935s-16.597-6.22-29.778-12.066c-6.793-3.016-12.264-6.581-12.264-6.581z"/><path style="fill:none;stroke:#010101;stroke-width:4.79278" d="M158.661 65.939s10.903 5.912 21.44 12.066c11.047 6.45 21.923 11.934 21.923 11.934l29.28-28.936s-16.597-6.22-29.777-12.065c-6.793-3.017-12.264-6.582-12.264-6.582z"/><path style="fill:url(#q);stroke-width:1.19819" d="M158.661 65.939s10.903 5.912 21.44 12.066c11.047 6.45 21.923 11.934 21.923 11.934l29.28-28.936s-16.597-6.22-29.777-12.065c-6.793-3.017-12.264-6.582-12.264-6.582z"/><path style="fill:none;stroke:#010101;stroke-width:1.04042" d="M26.022 40.191s2.166 1.402 4.26 2.861a88.254 88.254 0 0 0 4.357 2.83l5.818-6.861s-3.298-1.475-5.917-2.861c-1.35-.716-2.437-1.561-2.437-1.561z" transform="translate(154.28 32.794)"/><path style="fill:none;stroke:#010101;stroke-width:1.04042;stroke-opacity:.57" d="M26.123 41.17s2.167 1.403 4.26 2.862a88.258 88.258 0 0 0 4.357 2.83L40.56 40s-3.298-1.474-5.917-2.86c-1.35-.716-2.438-1.561-2.438-1.561z" transform="translate(154.28 32.794)"/><path style="fill:url(#r);stroke-width:.260105" d="M26.022 40.191s2.166 1.402 4.26 2.861a88.254 88.254 0 0 0 4.357 2.83l5.818-6.861s-3.298-1.475-5.917-2.861c-1.35-.716-2.437-1.561-2.437-1.561z" transform="translate(154.28 32.794)"/><path style="fill:url(#s);stroke-width:.260105" d="m27.42 39.965 5.723 3.641 4.682-5.202-5.722-2.6z" transform="translate(154.28 32.794)"/><path style="fill:none;stroke:#010101;stroke-width:1.04043" d="M35.393 31.524s2.167 1.402 4.26 2.86c2.196 1.53 4.357 2.83 4.357 2.83l5.82-6.86s-3.3-1.476-5.918-2.862a18.8 18.8 0 0 1-2.438-1.56z" transform="translate(154.28 32.794)"/><path style="fill:none;stroke:#010101;stroke-width:1.04043;stroke-opacity:.57" d="M35.471 32.491s2.167 1.402 4.26 2.862c2.196 1.529 4.357 2.83 4.357 2.83l5.819-6.862s-3.298-1.475-5.918-2.861a18.8 18.8 0 0 1-2.437-1.56z" transform="translate(154.28 32.794)"/><path style="fill:url(#t);stroke-width:.260107" d="M35.393 31.524s2.167 1.402 4.26 2.86c2.196 1.53 4.357 2.83 4.357 2.83l5.82-6.86s-3.3-1.476-5.918-2.862a18.8 18.8 0 0 1-2.438-1.56z" transform="translate(154.28 32.794)"/><path style="fill:none;stroke:url(#u);stroke-width:.260107" d="m43.295 36.24 5.202-5.723M41.995 35.2l4.942-5.462m-6.503 4.422 5.202-5.202m-6.503 4.161 4.942-4.942m-6.502 3.902 5.202-5.202" transform="translate(154.28 32.794)"/><path style="fill:url(#v);stroke-width:.260107" d="M41.735 34.419c1.082.72 2.6-1.56 1.56-2.341-1.04-.78-2.861-1.3-2.861-1.3l2.307-1.92 3.155 1.92c-.78.26-1.3 1.82-.52 2.34 1.082.72 2.601-1.56 1.56-2.34-1.04-.781-5.201-3.122-5.201-3.122l-3.382 2.601 3.902 1.82c-.78.26-1.3 1.822-.52 2.342z" transform="translate(154.28 32.794)"/><path style="fill:#010000;fill-opacity:.4431" d="M38 58h5l21-22-8-4H38z" transform="matrix(.26269 0 0 .26269 197.829 47.289)"/><path style="fill:none;stroke:#010000;stroke-width:4" d="m2 30 19-16 37 14v8L38 56 2 38z" transform="matrix(.26269 0 0 .26269 197.829 47.289)"/><path style="fill:url(#w)" d="M38 56 2 38v-8l36 16z" transform="matrix(.26269 0 0 .26269 197.829 47.289)"/><path style="fill:url(#x)" d="M38 46v10l20-20v-8z" transform="matrix(.26269 0 0 .26269 197.829 47.289)"/><path style="fill:url(#y)" d="M4.23 28.11 21 14l37 14-17.63 15.86z" transform="matrix(.26269 0 0 .26269 197.829 47.289)"/><path style="fill:url(#z)" d="m2 30 2.23-1.89 36.14 15.75L38 46z" transform="matrix(.26269 0 0 .26269 197.829 47.289)"/><path style="fill:none;stroke:#010000;stroke-width:2" d="M39 36c-2-1-21-9-23-10s-2-3 0-5 5-3 7-2 22 8 24 9 4 3 1 6-7 3-9 2z" transform="matrix(.26269 0 0 .26269 197.829 47.289)"/><path style="fill:url(#A)" d="M39 36c-2-1-21-9-23-10s-2-3 0-5 5-3 7-2 22 8 24 9 4 3 1 6-7 3-9 2z" transform="matrix(.26269 0 0 .26269 197.829 47.289)"/><path style="fill:#828282" d="M23 22c-1.66 0-3 .89-3 2 0 1.1 1.34 2 3 2 1.65 0 3-.9 3-2 0-1.11-1.35-2-3-2z" transform="matrix(.26269 0 0 .26269 197.829 47.289)"/><path style="fill:#7c7c7c" d="M23 22c-1.66 0-3 .89-3 2 0 1.1 1.34 2 3 2 1.65 0 3-.9 3-2 0-1.11-1.35-2-3-2z" transform="matrix(.26269 0 0 .26269 202.294 49.226)"/><path style="fill:url(#B)" d="M34.62 33.37 21 28l7.12-6.13 13.88 5z" transform="matrix(.26269 0 0 .26269 197.829 47.289)"/><path style="fill:none;stroke:#090909;stroke-width:1" d="m4 28 37 16 1.5-1.5v3L39 56" transform="matrix(.26269 0 0 .26269 197.829 47.289)"/><path style="fill:none;stroke:#010101;stroke-width:1.04043" d="M192.744 81.606s2.167 1.402 4.26 2.86c2.196 1.53 4.358 2.83 4.358 2.83l5.818-6.86s-3.298-1.476-5.917-2.862a18.8 18.8 0 0 1-2.437-1.56z"/><path style="fill:none;stroke:#010101;stroke-width:1.04043;stroke-opacity:.57" d="M192.831 82.695s2.167 1.402 4.26 2.862a88.254 88.254 0 0 0 4.357 2.83l5.819-6.862s-3.298-1.475-5.917-2.861a18.8 18.8 0 0 1-2.438-1.56z"/><path style="fill:url(#C);stroke-width:.260107" d="M192.744 81.606s2.167 1.402 4.26 2.86c2.196 1.53 4.358 2.83 4.358 2.83l5.818-6.86s-3.298-1.476-5.917-2.862a18.8 18.8 0 0 1-2.437-1.56z"/><path style="fill:none;stroke:#010101;stroke-width:1.04043" d="M196.745 79.299v1.82l2.08 1.04 1.561-.78v-1.82l-1.82-1.04zm2.08 3.38v1.822l1.561.78 1.56-.78V82.68l-1.3-.78zm2.081-3.12v1.82l1.561 1.04 1.56-.78v-1.56l-1.56-1.04z"/><path style="fill:url(#D);stroke-width:.260107" d="M196.745 79.299v1.82l2.08 1.04 1.561-.78v-1.82l-1.82-1.04z"/><path style="fill:url(#E);stroke-width:.260107" d="M198.826 82.68v1.82l1.56.781 1.56-.78V82.68l-1.3-.78z"/><path style="fill:url(#F);stroke-width:.260107" d="M200.906 79.559v1.82l1.561 1.04 1.56-.78v-1.56l-1.56-1.04z"/><path style="fill:none;stroke:#010101;stroke-width:1.04043" d="M202 72.626s2.167 1.402 4.261 2.861a88.261 88.261 0 0 0 4.357 2.83l5.819-6.861s-3.299-1.475-5.918-2.862a18.8 18.8 0 0 1-2.437-1.56z"/><path style="fill:none;stroke:#010101;stroke-width:1.04043;stroke-opacity:.57" d="M202.017 73.52s2.167 1.402 4.26 2.86a88.256 88.256 0 0 0 4.357 2.83l5.819-6.86s-3.298-1.476-5.917-2.862a18.8 18.8 0 0 1-2.438-1.56z"/><path style="fill:url(#G);stroke-width:.260107" d="M202 72.626s2.167 1.402 4.261 2.861a88.261 88.261 0 0 0 4.357 2.83l5.819-6.861s-3.299-1.475-5.918-2.862a18.8 18.8 0 0 1-2.437-1.56z"/><path style="fill:url(#H);stroke-width:.260107" d="M206.618 70.155s-1.049.44-1.691 1.103c-.682.702-1.147 1.914-.328 2.018.78.097 1.758.583 3.71.164 1.55-.338 2.067-.504 2.634-.718.679-.26 2.047.097 1.69-.486-.137-.226-.36-.39.55-.554.91-.164.835-1.106-.94-1.3-1.792-.193-2.832.717-4.065 1.238-1.238.52-2.04.442-2.408.356-.81-.198.848-1.82.848-1.82zm5.105 3.025c-.554.029-.78.549.13.679s.42-.713-.13-.679zm2.24-1.108c-.289.034-.39.26-.029.39.357.13.323-.424.029-.39z"/><path style="fill:none;stroke:#010101;stroke-width:.364098" d="m209.901 69.884-.364.728h-.91l.728.547-.364.91.91-.546.91.546-.364-.91.729-.547h-.91z"/><path style="fill:#fff5b3;stroke-width:.182049" d="m209.901 69.884-.364.728h-.91l.728.547-.364.91.91-.546.91.546-.364-.91.729-.547h-.91z"/><path style="fill:none;stroke:#010101;stroke-width:.520214" d="m213.024 67.718-.52 1.04h-1.3l1.04.78-.52 1.301 1.3-.78 1.3.78-.52-1.3 1.04-.78h-1.3z"/><path style="fill:#fff5b3;stroke-width:.260107" d="m213.024 67.718-.52 1.04h-1.3l1.04.78-.52 1.301 1.3-.78 1.3.78-.52-1.3 1.04-.78h-1.3z"/><path style="fill:none;stroke:#010101;stroke-width:1.04043" d="M211.566 63.073s2.166 1.402 4.26 2.86c2.196 1.53 4.357 2.83 4.357 2.83l5.819-6.86s-3.299-1.476-5.918-2.862a18.8 18.8 0 0 1-2.437-1.56z"/><path style="fill:none;stroke:#010101;stroke-width:1.04043;stroke-opacity:.57" d="M211.65 63.855s2.167 1.402 4.26 2.861a88.257 88.257 0 0 0 4.358 2.83l5.818-6.861s-3.298-1.475-5.917-2.861a18.8 18.8 0 0 1-2.437-1.561z"/><path style="fill:url(#I);stroke-width:.260107" d="M211.566 63.073s2.166 1.402 4.26 2.86c2.196 1.53 4.357 2.83 4.357 2.83l5.819-6.86s-3.299-1.476-5.918-2.862a18.8 18.8 0 0 1-2.437-1.56z"/><path style="fill:none;stroke:url(#J);stroke-width:.260107" d="m214.526 63.366 2.34-2.34m-.26 3.901 4.162-4.162m-3.121 4.942 4.162-4.161"/><path style="fill:none;stroke:url(#K);stroke-width:.260107" d="m216.607 63.106 2.86-2.86"/><path style="fill:none;stroke:#010101;stroke-width:.260107" d="m217.127 59.985.26.52.52.26M217.647 59.465l.52.26.26.52M215.566 63.366l.26.52.52.26M218.947 65.707l.52.26.26.52"/><text xml:space="preserve" style="font-style:normal;font-weight:400;font-size:7.33333px;line-height:1.25;font-family:sans-serif;fill:#000;fill-opacity:1;stroke:none" x="188.297" y="-27.915" transform="rotate(22)"/><text xml:space="preserve" style="font-style:normal;font-weight:400;font-size:40px;line-height:1.25;font-family:sans-serif;fill:#000;fill-opacity:1;stroke:none" x="203.936" y="13.033"/><text xml:space="preserve" style="font-style:normal;font-weight:400;font-size:40px;line-height:1.25;font-family:sans-serif;fill:#000;fill-opacity:1;stroke:none" x="209.28" y="10.006"/><text xml:space="preserve" style="font-style:normal;font-weight:400;font-size:40px;line-height:1.25;font-family:sans-serif;fill:#000;fill-opacity:1;stroke:none" x="205.825" y="10.913"/><path style="fill:none;stroke:url(#L);stroke-width:1" d="m25.363 22.764-12.127 11.54zm5.842 3.857L19.094 38.51z" transform="translate(154.71 33.093)"/><path style="fill:none;stroke:url(#M);stroke-width:1" d="M27.676 25.424 16.164 36.408z" transform="translate(154.71 33.093)"/><path style="fill:none;stroke:#000;stroke-width:4;stroke-linecap:round;stroke-linejoin:round;stroke-opacity:.4" d="M40 21 20 40V30H2V12h18V2z" transform="matrix(.39161 0 0 .39161 25.712 59.2)"/><path style="fill:none;stroke:#005900;stroke-width:4;stroke-linecap:round;stroke-linejoin:round" d="M40 21 20 40V30H2V12h18V2z" transform="matrix(.39161 0 0 .39161 24.929 58.417)"/><path style="fill:url(#N)" d="M40 21 20 40V30H2V12h18V2z" transform="matrix(.39161 0 0 .39161 24.929 58.417)"/><g><path style="fill:none;stroke:#000;stroke-width:4;stroke-linecap:round;stroke-linejoin:round;stroke-opacity:.4" d="M40 21 20 40V30H2V12h18V2z" transform="matrix(.39161 0 0 .39161 26.44 82.246)"/><path style="fill:none;stroke:#005900;stroke-width:4;stroke-linecap:round;stroke-linejoin:round" d="M40 21 20 40V30H2V12h18V2z" transform="matrix(.39161 0 0 .39161 25.657 81.463)"/><path style="fill:url(#O)" d="M40 21 20 40V30H2V12h18V2z" transform="matrix(.39161 0 0 .39161 25.657 81.463)"/></g><g><path style="fill:none;stroke:#010101;stroke-width:1.04042" d="M26.022 40.191s2.166 1.402 4.26 2.861a88.254 88.254 0 0 0 4.357 2.83l5.818-6.861s-3.298-1.475-5.917-2.861c-1.35-.716-2.437-1.561-2.437-1.561z" transform="matrix(1.17074 0 0 1.17074 -29.447 -5.154)"/><path style="fill:none;stroke:#010101;stroke-width:1.04042;stroke-opacity:.57" d="M26.123 41.17s2.167 1.403 4.26 2.862a88.258 88.258 0 0 0 4.357 2.83L40.56 40s-3.298-1.474-5.917-2.86c-1.35-.716-2.438-1.561-2.438-1.561z" transform="matrix(1.17074 0 0 1.17074 -29.447 -5.154)"/><path style="fill:url(#P);stroke-width:.260105" d="M26.022 40.191s2.166 1.402 4.26 2.861a88.254 88.254 0 0 0 4.357 2.83l5.818-6.861s-3.298-1.475-5.917-2.861c-1.35-.716-2.437-1.561-2.437-1.561z" transform="matrix(1.17074 0 0 1.17074 -29.447 -5.154)"/><path style="fill:url(#Q);stroke-width:.260105" d="m27.42 39.965 5.723 3.641 4.682-5.202-5.722-2.6z" transform="matrix(1.17074 0 0 1.17074 -29.447 -5.154)"/></g><g><path style="fill:#010000;fill-opacity:.4431" d="M38 58h5l21-22-8-4H38z" transform="matrix(.30754 0 0 .30754 0 79.78)"/><path style="fill:none;stroke:#010000;stroke-width:4" d="m2 30 19-16 37 14v8L38 56 2 38z" transform="matrix(.30754 0 0 .30754 0 79.78)"/><path style="fill:url(#R)" d="M38 56 2 38v-8l36 16z" transform="matrix(.30754 0 0 .30754 0 79.78)"/><path style="fill:url(#S)" d="M38 46v10l20-20v-8z" transform="matrix(.30754 0 0 .30754 0 79.78)"/><path style="fill:url(#T)" d="M4.23 28.11 21 14l37 14-17.63 15.86z" transform="matrix(.30754 0 0 .30754 0 79.78)"/><path style="fill:url(#U)" d="m2 30 2.23-1.89 36.14 15.75L38 46z" transform="matrix(.30754 0 0 .30754 0 79.78)"/><path style="fill:none;stroke:#010000;stroke-width:2" d="M39 36c-2-1-21-9-23-10s-2-3 0-5 5-3 7-2 22 8 24 9 4 3 1 6-7 3-9 2z" transform="matrix(.30754 0 0 .30754 0 79.78)"/><path style="fill:url(#V)" d="M39 36c-2-1-21-9-23-10s-2-3 0-5 5-3 7-2 22 8 24 9 4 3 1 6-7 3-9 2z" transform="matrix(.30754 0 0 .30754 0 79.78)"/><path style="fill:#828282" d="M23 22c-1.66 0-3 .89-3 2 0 1.1 1.34 2 3 2 1.65 0 3-.9 3-2 0-1.11-1.35-2-3-2z" transform="matrix(.30754 0 0 .30754 0 79.78)"/><path style="fill:#7c7c7c" d="M23 22c-1.66 0-3 .89-3 2 0 1.1 1.34 2 3 2 1.65 0 3-.9 3-2 0-1.11-1.35-2-3-2z" transform="matrix(.30754 0 0 .30754 5.228 82.048)"/><path style="fill:url(#W)" d="M34.62 33.37 21 28l7.12-6.13 13.88 5z" transform="matrix(.30754 0 0 .30754 0 79.78)"/><path style="fill:none;stroke:#090909;stroke-width:1" d="m4 28 37 16 1.5-1.5v3L39 56" transform="matrix(.30754 0 0 .30754 0 79.78)"/></g><g><path style="fill:none;stroke:#010101;stroke-width:1.04043" d="M35.393 31.524s2.167 1.402 4.26 2.86c2.196 1.53 4.357 2.83 4.357 2.83l5.82-6.86s-3.3-1.476-5.918-2.862a18.8 18.8 0 0 1-2.438-1.56z" transform="matrix(1.17074 0 0 1.17074 -40.403 30.119)"/><path style="fill:none;stroke:#010101;stroke-width:1.04043;stroke-opacity:.57" d="M35.471 32.491s2.167 1.402 4.26 2.862c2.196 1.529 4.357 2.83 4.357 2.83l5.819-6.862s-3.298-1.475-5.918-2.861a18.8 18.8 0 0 1-2.437-1.56z" transform="matrix(1.17074 0 0 1.17074 -40.403 30.119)"/><path style="fill:url(#X);stroke-width:.260107" d="M35.393 31.524s2.167 1.402 4.26 2.86c2.196 1.53 4.357 2.83 4.357 2.83l5.82-6.86s-3.3-1.476-5.918-2.862a18.8 18.8 0 0 1-2.438-1.56z" transform="matrix(1.17074 0 0 1.17074 -40.403 30.119)"/><path style="fill:none;stroke:url(#Y);stroke-width:.260107" d="m43.295 36.24 5.202-5.723M41.995 35.2l4.942-5.462m-6.503 4.422 5.202-5.202m-6.503 4.161 4.942-4.942m-6.502 3.902 5.202-5.202" transform="matrix(1.17074 0 0 1.17074 -40.403 30.119)"/><path style="fill:url(#Z);stroke-width:.260107" d="M41.735 34.419c1.082.72 2.6-1.56 1.56-2.341-1.04-.78-2.861-1.3-2.861-1.3l2.307-1.92 3.155 1.92c-.78.26-1.3 1.82-.52 2.34 1.082.72 2.601-1.56 1.56-2.34-1.04-.781-5.201-3.122-5.201-3.122l-3.382 2.601 3.902 1.82c-.78.26-1.3 1.822-.52 2.342z" transform="matrix(1.17074 0 0 1.17074 -40.403 30.119)"/></g><text xml:space="preserve" style="font-style:normal;font-weight:400;font-size:40px;line-height:1.25;font-family:sans-serif;fill:#000;fill-opacity:1;stroke:none" x="114.271" y="38.394"/><text xml:space="preserve" style="font-style:normal;font-weight:400;font-size:8px;line-height:1.25;font-family:sans-serif;fill:#000;fill-opacity:1;stroke:none" x="57.952" y="6.078"><tspan x="57.952" y="6.078" style="font-weight:700;font-size:8px;text-align:center;text-anchor:middle">Binary</tspan><tspan x="57.952" y="16.078" style="font-weight:700;font-size:8px;text-align:center;text-anchor:middle">to Text</tspan><tspan x="57.952" y="26.078" style="font-weight:700;font-size:8px;text-align:center;text-anchor:middle">Encoding</tspan></text><g><path style="fill:#010101;fill-opacity:.5019" d="M36 61h5l23-31-6-3 1 4z" transform="matrix(.29688 0 0 .29688 46.749 33.24)"/><path style="fill:none;stroke:#010000;stroke-width:4" d="M2 28v13l34 18 22-29V17L25 5z" transform="matrix(.29688 0 0 .29688 46.749 33.24)"/><path style="fill:url(#aa)" d="m2 28 34 15 22-26L25 5z" transform="matrix(.29688 0 0 .29688 46.749 33.24)"/><path style="fill:url(#ab)" d="M36 43v16l22-29V17z" transform="matrix(.29688 0 0 .29688 46.749 33.24)"/><path style="fill:url(#ac)" d="M2 28v13l34 18V43z" transform="matrix(.29688 0 0 .29688 46.749 33.24)"/><path style="fill:none;stroke:url(#ad);stroke-width:5;stroke-linecap:round" d="m7 35 5.75 2.5" transform="matrix(.29688 0 0 .29688 46.749 33.24)"/><path style="fill:none;stroke:red;stroke-width:2" d="m6 35 3 1" transform="matrix(.29688 0 0 .29688 47.936 33.685)"/><path style="fill:none;stroke:#a7ff00;stroke-width:2" d="m6 35 3 1" transform="matrix(.29688 0 0 .29688 46.749 33.166)"/><path style="fill:#010000;fill-opacity:.4156" d="M28 60h4l2 2h6l2-2-4-2-1-15z" transform="matrix(.19338 -.0092 .0097 .20413 53.7 27.655)"/><path style="fill:#010000;fill-opacity:.4156" d="M28 60h4l2 2h6l2-2-4-2-1-15z" transform="matrix(.19338 -.0092 .0097 .20413 52.211 28.953)"/><path style="fill:#010000;fill-opacity:.4156" d="M28 60h4l2 2h6l2-2-4-2-1-15z" transform="matrix(.19338 -.0092 .0097 .20413 50.742 30.66)"/><path style="fill:#010000;fill-opacity:.4156" d="M28 60h4l2 2h6l2-2-4-2-1-15z" transform="matrix(.19338 -.0092 .0097 .20413 49.253 31.959)"/><path style="fill:none;stroke:#010000;stroke-width:4" d="M34 14 4 40v6l24 12 30-30v-6l-9-3c-1 1-4 1-6 0s-3-2-2-3z" transform="rotate(-2.711 696.966 -1014.077) scale(.20436)"/><path style="fill:#333" d="m28 58 30-30v-6L28 50z" transform="rotate(-2.711 696.966 -1014.077) scale(.20436)"/><path style="fill:url(#ae)" d="m4 46 24 12v-8L4 40z" transform="rotate(-2.711 696.966 -1014.077) scale(.20436)"/><path style="fill:url(#af)" d="M34 14 4 40l24 10 30-28-9-3c-1 1-4 1-6 0s-3-2-2-3z" transform="rotate(-2.711 696.966 -1014.077) scale(.20436)"/><path style="fill:none;stroke:#010000;stroke-width:4;stroke-linecap:round;stroke-linejoin:round" d="m34 48-4 4 2 1c1 .5 2 1.85 2 2.99 0 2.37.99 5.01.99 5.01L37 58.99s1-4.63 1-7c0-1.14-1-2.49-2-2.99l-2-1z" transform="matrix(.1928 -.00917 .00876 .18418 53.746 28.572)"/><path style="fill:url(#ag)" d="m34 48-4 4 2 1c1 .5 2 1.85 2 2.99 0 2.37.99 5.01.99 5.01L37 58.99s1-4.63 1-7c0-1.14-1-2.49-2-2.99l-2-1z" transform="matrix(.1928 -.00917 .00876 .18418 53.746 28.572)"/><path style="fill:none;stroke:#010000;stroke-width:4;stroke-linecap:round;stroke-linejoin:round" d="m34 48-4 4 2 1c1 .5 2 1.85 2 2.99 0 2.37.99 5.01.99 5.01L37 58.99s1-4.63 1-7c0-1.14-1-2.49-2-2.99l-2-1z" transform="matrix(.1928 -.00917 .00876 .18418 52.274 30.12)"/><path style="fill:url(#ah)" d="m34 48-4 4 2 1c1 .5 2 1.85 2 2.99 0 2.37.99 5.01.99 5.01L37 58.99s1-4.63 1-7c0-1.14-1-2.49-2-2.99l-2-1z" transform="matrix(.1928 -.00917 .00876 .18418 52.274 30.12)"/><path style="fill:none;stroke:#010000;stroke-width:4;stroke-linecap:round;stroke-linejoin:round" d="m34 48-4 4 2 1c1 .5 2 1.85 2 2.99 0 2.37.99 5.01.99 5.01L37 58.99s1-4.63 1-7c0-1.14-1-2.49-2-2.99l-2-1z" transform="matrix(.1928 -.00917 .00876 .18418 50.802 31.667)"/><path style="fill:url(#ai)" d="m34 48-4 4 2 1c1 .5 2 1.85 2 2.99 0 2.37.99 5.01.99 5.01L37 58.99s1-4.63 1-7c0-1.14-1-2.49-2-2.99l-2-1z" transform="matrix(.1928 -.00917 .00876 .18418 50.802 31.667)"/><path style="fill:none;stroke:#010000;stroke-width:4;stroke-linecap:round;stroke-linejoin:round" d="m34 48-4 4 2 1c1 .5 2 1.85 2 2.99 0 2.37.99 5.01.99 5.01L37 58.99s1-4.63 1-7c0-1.14-1-2.49-2-2.99l-2-1z" transform="matrix(.1928 -.00917 .00876 .18418 49.33 33.214)"/><path style="fill:url(#aj)" d="m34 48-4 4 2 1c1 .5 2 1.85 2 2.99 0 2.37.99 5.01.99 5.01L37 58.99s1-4.63 1-7c0-1.14-1-2.49-2-2.99l-2-1z" transform="matrix(.1928 -.00917 .00876 .18418 49.33 33.214)"/></g><g><path style="fill:#010101;fill-opacity:.5019" d="M36 61h5l23-31-6-3 1 4z" transform="matrix(.29688 0 0 .29688 46.301 57.42)"/><path style="fill:none;stroke:#010000;stroke-width:4" d="M2 28v13l34 18 22-29V17L25 5z" transform="matrix(.29688 0 0 .29688 46.301 57.42)"/><path style="fill:url(#ak)" d="m2 28 34 15 22-26L25 5z" transform="matrix(.29688 0 0 .29688 46.301 57.42)"/><path style="fill:url(#al)" d="M36 43v16l22-29V17z" transform="matrix(.29688 0 0 .29688 46.301 57.42)"/><path style="fill:url(#am)" d="M2 28v13l34 18V43z" transform="matrix(.29688 0 0 .29688 46.301 57.42)"/><path style="fill:none;stroke:url(#an);stroke-width:5;stroke-linecap:round" d="m7 35 5.75 2.5" transform="matrix(.29688 0 0 .29688 46.301 57.42)"/><path style="fill:none;stroke:red;stroke-width:2" d="m6 35 3 1" transform="matrix(.29688 0 0 .29688 47.489 57.865)"/><path style="fill:none;stroke:#a7ff00;stroke-width:2" d="m6 35 3 1" transform="matrix(.29688 0 0 .29688 46.301 57.345)"/><path style="fill:#010000;fill-opacity:.4156" d="M28 60h4l2 2h6l2-2-4-2-1-15z" transform="matrix(.19338 -.0092 .0097 .20413 53.253 51.834)"/><path style="fill:#010000;fill-opacity:.4156" d="M28 60h4l2 2h6l2-2-4-2-1-15z" transform="matrix(.19338 -.0092 .0097 .20413 51.764 53.133)"/><path style="fill:#010000;fill-opacity:.4156" d="M28 60h4l2 2h6l2-2-4-2-1-15z" transform="matrix(.19338 -.0092 .0097 .20413 50.295 54.84)"/><path style="fill:#010000;fill-opacity:.4156" d="M28 60h4l2 2h6l2-2-4-2-1-15z" transform="matrix(.19338 -.0092 .0097 .20413 48.806 56.138)"/><path style="fill:none;stroke:#010000;stroke-width:4" d="M34 14 4 40v6l24 12 30-30v-6l-9-3c-1 1-4 1-6 0s-3-2-2-3z" transform="rotate(-2.711 1205.468 -992.677) scale(.20436)"/><path style="fill:#333" d="m28 58 30-30v-6L28 50z" transform="rotate(-2.711 1205.468 -992.677) scale(.20436)"/><path style="fill:url(#ao)" d="m4 46 24 12v-8L4 40z" transform="rotate(-2.711 1205.468 -992.677) scale(.20436)"/><path style="fill:url(#ap)" d="M34 14 4 40l24 10 30-28-9-3c-1 1-4 1-6 0s-3-2-2-3z" transform="rotate(-2.711 1205.468 -992.677) scale(.20436)"/><path style="fill:none;stroke:#010000;stroke-width:4;stroke-linecap:round;stroke-linejoin:round" d="m34 48-4 4 2 1c1 .5 2 1.85 2 2.99 0 2.37.99 5.01.99 5.01L37 58.99s1-4.63 1-7c0-1.14-1-2.49-2-2.99l-2-1z" transform="matrix(.1928 -.00917 .00876 .18418 53.3 52.752)"/><path style="fill:url(#aq)" d="m34 48-4 4 2 1c1 .5 2 1.85 2 2.99 0 2.37.99 5.01.99 5.01L37 58.99s1-4.63 1-7c0-1.14-1-2.49-2-2.99l-2-1z" transform="matrix(.1928 -.00917 .00876 .18418 53.3 52.752)"/><path style="fill:none;stroke:#010000;stroke-width:4;stroke-linecap:round;stroke-linejoin:round" d="m34 48-4 4 2 1c1 .5 2 1.85 2 2.99 0 2.37.99 5.01.99 5.01L37 58.99s1-4.63 1-7c0-1.14-1-2.49-2-2.99l-2-1z" transform="matrix(.1928 -.00917 .00876 .18418 51.827 54.299)"/><path style="fill:url(#ar)" d="m34 48-4 4 2 1c1 .5 2 1.85 2 2.99 0 2.37.99 5.01.99 5.01L37 58.99s1-4.63 1-7c0-1.14-1-2.49-2-2.99l-2-1z" transform="matrix(.1928 -.00917 .00876 .18418 51.827 54.299)"/><path style="fill:none;stroke:#010000;stroke-width:4;stroke-linecap:round;stroke-linejoin:round" d="m34 48-4 4 2 1c1 .5 2 1.85 2 2.99 0 2.37.99 5.01.99 5.01L37 58.99s1-4.63 1-7c0-1.14-1-2.49-2-2.99l-2-1z" transform="matrix(.1928 -.00917 .00876 .18418 50.355 55.846)"/><path style="fill:url(#as)" d="m34 48-4 4 2 1c1 .5 2 1.85 2 2.99 0 2.37.99 5.01.99 5.01L37 58.99s1-4.63 1-7c0-1.14-1-2.49-2-2.99l-2-1z" transform="matrix(.1928 -.00917 .00876 .18418 50.355 55.846)"/><path style="fill:none;stroke:#010000;stroke-width:4;stroke-linecap:round;stroke-linejoin:round" d="m34 48-4 4 2 1c1 .5 2 1.85 2 2.99 0 2.37.99 5.01.99 5.01L37 58.99s1-4.63 1-7c0-1.14-1-2.49-2-2.99l-2-1z" transform="matrix(.1928 -.00917 .00876 .18418 48.883 57.393)"/><path style="fill:url(#at)" d="m34 48-4 4 2 1c1 .5 2 1.85 2 2.99 0 2.37.99 5.01.99 5.01L37 58.99s1-4.63 1-7c0-1.14-1-2.49-2-2.99l-2-1z" transform="matrix(.1928 -.00917 .00876 .18418 48.883 57.393)"/></g><g><path style="fill:#010101;fill-opacity:.5019" d="M36 61h5l23-31-6-3 1 4z" transform="matrix(.29688 0 0 .29688 46.917 80.117)"/><path style="fill:none;stroke:#010000;stroke-width:4" d="M2 28v13l34 18 22-29V17L25 5z" transform="matrix(.29688 0 0 .29688 46.917 80.117)"/><path style="fill:url(#au)" d="m2 28 34 15 22-26L25 5z" transform="matrix(.29688 0 0 .29688 46.917 80.117)"/><path style="fill:url(#av)" d="M36 43v16l22-29V17z" transform="matrix(.29688 0 0 .29688 46.917 80.117)"/><path style="fill:url(#aw)" d="M2 28v13l34 18V43z" transform="matrix(.29688 0 0 .29688 46.917 80.117)"/><path style="fill:none;stroke:url(#ax);stroke-width:5;stroke-linecap:round" d="m7 35 5.75 2.5" transform="matrix(.29688 0 0 .29688 46.917 80.117)"/><path style="fill:none;stroke:red;stroke-width:2" d="m6 35 3 1" transform="matrix(.29688 0 0 .29688 48.105 80.562)"/><path style="fill:none;stroke:#a7ff00;stroke-width:2" d="m6 35 3 1" transform="matrix(.29688 0 0 .29688 46.917 80.042)"/><path style="fill:#010000;fill-opacity:.4156" d="M28 60h4l2 2h6l2-2-4-2-1-15z" transform="matrix(.19338 -.0092 .0097 .20413 53.869 74.532)"/><path style="fill:#010000;fill-opacity:.4156" d="M28 60h4l2 2h6l2-2-4-2-1-15z" transform="matrix(.19338 -.0092 .0097 .20413 52.38 75.83)"/><path style="fill:#010000;fill-opacity:.4156" d="M28 60h4l2 2h6l2-2-4-2-1-15z" transform="matrix(.19338 -.0092 .0097 .20413 50.91 77.537)"/><path style="fill:#010000;fill-opacity:.4156" d="M28 60h4l2 2h6l2-2-4-2-1-15z" transform="matrix(.19338 -.0092 .0097 .20413 49.422 78.836)"/><path style="fill:none;stroke:#010000;stroke-width:4" d="M34 14 4 40v6l24 12 30-30v-6l-9-3c-1 1-4 1-6 0s-3-2-2-3z" transform="rotate(-2.711 1683.31 -994.387) scale(.20436)"/><path style="fill:#333" d="m28 58 30-30v-6L28 50z" transform="rotate(-2.711 1683.31 -994.387) scale(.20436)"/><path style="fill:url(#ay)" d="m4 46 24 12v-8L4 40z" transform="rotate(-2.711 1683.31 -994.387) scale(.20436)"/><path style="fill:url(#az)" d="M34 14 4 40l24 10 30-28-9-3c-1 1-4 1-6 0s-3-2-2-3z" transform="rotate(-2.711 1683.31 -994.387) scale(.20436)"/><path style="fill:none;stroke:#010000;stroke-width:4;stroke-linecap:round;stroke-linejoin:round" d="m34 48-4 4 2 1c1 .5 2 1.85 2 2.99 0 2.37.99 5.01.99 5.01L37 58.99s1-4.63 1-7c0-1.14-1-2.49-2-2.99l-2-1z" transform="matrix(.1928 -.00917 .00876 .18418 53.915 75.449)"/><path style="fill:url(#aA)" d="m34 48-4 4 2 1c1 .5 2 1.85 2 2.99 0 2.37.99 5.01.99 5.01L37 58.99s1-4.63 1-7c0-1.14-1-2.49-2-2.99l-2-1z" transform="matrix(.1928 -.00917 .00876 .18418 53.915 75.449)"/><path style="fill:none;stroke:#010000;stroke-width:4;stroke-linecap:round;stroke-linejoin:round" d="m34 48-4 4 2 1c1 .5 2 1.85 2 2.99 0 2.37.99 5.01.99 5.01L37 58.99s1-4.63 1-7c0-1.14-1-2.49-2-2.99l-2-1z" transform="matrix(.1928 -.00917 .00876 .18418 52.443 76.996)"/><path style="fill:url(#aB)" d="m34 48-4 4 2 1c1 .5 2 1.85 2 2.99 0 2.37.99 5.01.99 5.01L37 58.99s1-4.63 1-7c0-1.14-1-2.49-2-2.99l-2-1z" transform="matrix(.1928 -.00917 .00876 .18418 52.443 76.996)"/><path style="fill:none;stroke:#010000;stroke-width:4;stroke-linecap:round;stroke-linejoin:round" d="m34 48-4 4 2 1c1 .5 2 1.85 2 2.99 0 2.37.99 5.01.99 5.01L37 58.99s1-4.63 1-7c0-1.14-1-2.49-2-2.99l-2-1z" transform="matrix(.1928 -.00917 .00876 .18418 50.971 78.543)"/><path style="fill:url(#aC)" d="m34 48-4 4 2 1c1 .5 2 1.85 2 2.99 0 2.37.99 5.01.99 5.01L37 58.99s1-4.63 1-7c0-1.14-1-2.49-2-2.99l-2-1z" transform="matrix(.1928 -.00917 .00876 .18418 50.971 78.543)"/><path style="fill:none;stroke:#010000;stroke-width:4;stroke-linecap:round;stroke-linejoin:round" d="m34 48-4 4 2 1c1 .5 2 1.85 2 2.99 0 2.37.99 5.01.99 5.01L37 58.99s1-4.63 1-7c0-1.14-1-2.49-2-2.99l-2-1z" transform="matrix(.1928 -.00917 .00876 .18418 49.499 80.09)"/><path style="fill:url(#aD)" d="m34 48-4 4 2 1c1 .5 2 1.85 2 2.99 0 2.37.99 5.01.99 5.01L37 58.99s1-4.63 1-7c0-1.14-1-2.49-2-2.99l-2-1z" transform="matrix(.1928 -.00917 .00876 .18418 49.499 80.09)"/></g><g><path style="fill:#000;fill-opacity:0;stroke:#000;stroke-width:4.79278;stroke-opacity:.57" d="M-8.14-56.151S2.763-50.24 13.3-44.086c11.046 6.45 21.923 11.934 21.923 11.934l29.28-28.935s-16.597-6.22-29.778-12.066c-6.793-3.016-12.264-6.58-12.264-6.58z" transform="matrix(.35666 0 0 .35666 100.87 61.968)"/><path style="fill:none;stroke:#010101;stroke-width:4.79278" d="M-9.444-58.555s10.903 5.912 21.44 12.066c11.047 6.45 21.923 11.934 21.923 11.934L63.2-63.491S46.602-69.71 33.422-75.556c-6.793-3.017-12.264-6.582-12.264-6.582z" transform="matrix(.35666 0 0 .35666 100.87 61.968)"/><path style="fill:url(#aE);stroke-width:1.19819" d="M-9.444-58.555s10.903 5.912 21.44 12.066c11.047 6.45 21.923 11.934 21.923 11.934L63.2-63.491S46.602-69.71 33.422-75.556c-6.793-3.017-12.264-6.582-12.264-6.582z" transform="matrix(.35666 0 0 .35666 100.87 61.968)"/><path style="fill:none;stroke:url(#aF);stroke-width:1" d="m25.363 22.764-12.127 11.54zm5.842 3.857L19.094 38.51z" transform="matrix(.35666 0 0 .35666 96.093 29.369)"/><path style="fill:none;stroke:url(#aG);stroke-width:1" d="M27.676 25.424 16.164 36.408z" transform="matrix(.35666 0 0 .35666 96.093 29.369)"/></g><g><path style="fill:none;stroke:#010101;stroke-width:1.04042" d="M26.022 40.191s2.166 1.402 4.26 2.861a88.254 88.254 0 0 0 4.357 2.83l5.818-6.861s-3.298-1.475-5.917-2.861c-1.35-.716-2.437-1.561-2.437-1.561z" transform="matrix(1.02124 0 0 1.02124 77.651 .147)"/><path style="fill:none;stroke:#010101;stroke-width:1.04042;stroke-opacity:.57" d="M26.123 41.17s2.167 1.403 4.26 2.862a88.258 88.258 0 0 0 4.357 2.83L40.56 40s-3.298-1.474-5.917-2.86c-1.35-.716-2.438-1.561-2.438-1.561z" transform="matrix(1.02124 0 0 1.02124 77.651 .147)"/><path style="fill:url(#aH);stroke-width:.260105" d="M26.022 40.191s2.166 1.402 4.26 2.861a88.254 88.254 0 0 0 4.357 2.83l5.818-6.861s-3.298-1.475-5.917-2.861c-1.35-.716-2.437-1.561-2.437-1.561z" transform="matrix(1.02124 0 0 1.02124 77.651 .147)"/><path style="fill:url(#aI);stroke-width:.260105" d="m27.42 39.965 5.723 3.641 4.682-5.202-5.722-2.6z" transform="matrix(1.02124 0 0 1.02124 77.651 .147)"/></g><g><path style="fill:#000;fill-opacity:0;stroke:#000;stroke-width:4.79278;stroke-opacity:.57" d="M-8.14-56.151S2.763-50.24 13.3-44.086c11.046 6.45 21.923 11.934 21.923 11.934l29.28-28.935s-16.597-6.22-29.778-12.066c-6.793-3.016-12.264-6.58-12.264-6.58z" transform="matrix(.35666 0 0 .35666 100.041 85.175)"/><path style="fill:none;stroke:#010101;stroke-width:4.79278" d="M-9.444-58.555s10.903 5.912 21.44 12.066c11.047 6.45 21.923 11.934 21.923 11.934L63.2-63.491S46.602-69.71 33.422-75.556c-6.793-3.017-12.264-6.582-12.264-6.582z" transform="matrix(.35666 0 0 .35666 100.041 85.175)"/><path style="fill:url(#aJ);stroke-width:1.19819" d="M-9.444-58.555s10.903 5.912 21.44 12.066c11.047 6.45 21.923 11.934 21.923 11.934L63.2-63.491S46.602-69.71 33.422-75.556c-6.793-3.017-12.264-6.582-12.264-6.582z" transform="matrix(.35666 0 0 .35666 100.041 85.175)"/><path style="fill:none;stroke:url(#aK);stroke-width:1" d="m25.363 22.764-12.127 11.54zm5.842 3.857L19.094 38.51z" transform="matrix(.35666 0 0 .35666 95.264 52.576)"/><path style="fill:none;stroke:url(#aL);stroke-width:1" d="M27.676 25.424 16.164 36.408z" transform="matrix(.35666 0 0 .35666 95.264 52.576)"/></g><g><path style="fill:#000;fill-opacity:0;stroke:#000;stroke-width:4.79278;stroke-opacity:.57" d="M-8.14-56.151S2.763-50.24 13.3-44.086c11.046 6.45 21.923 11.934 21.923 11.934l29.28-28.935s-16.597-6.22-29.778-12.066c-6.793-3.016-12.264-6.58-12.264-6.58z" transform="matrix(.35666 0 0 .35666 99.342 107.99)"/><path style="fill:none;stroke:#010101;stroke-width:4.79278" d="M-9.444-58.555s10.903 5.912 21.44 12.066c11.047 6.45 21.923 11.934 21.923 11.934L63.2-63.491S46.602-69.71 33.422-75.556c-6.793-3.017-12.264-6.582-12.264-6.582z" transform="matrix(.35666 0 0 .35666 99.342 107.99)"/><path style="fill:url(#aM);stroke-width:1.19819" d="M-9.444-58.555s10.903 5.912 21.44 12.066c11.047 6.45 21.923 11.934 21.923 11.934L63.2-63.491S46.602-69.71 33.422-75.556c-6.793-3.017-12.264-6.582-12.264-6.582z" transform="matrix(.35666 0 0 .35666 99.342 107.99)"/><path style="fill:none;stroke:url(#aN);stroke-width:1" d="m25.363 22.764-12.127 11.54zm5.842 3.857L19.094 38.51z" transform="matrix(.35666 0 0 .35666 94.565 75.39)"/><path style="fill:none;stroke:url(#aO);stroke-width:1" d="M27.676 25.424 16.164 36.408z" transform="matrix(.35666 0 0 .35666 94.565 75.39)"/></g><g><path style="fill:none;stroke:#010101;stroke-width:1.04043" d="M35.393 31.524s2.167 1.402 4.26 2.86c2.196 1.53 4.357 2.83 4.357 2.83l5.82-6.86s-3.3-1.476-5.918-2.862a18.8 18.8 0 0 1-2.438-1.56z" transform="matrix(1.02275 0 0 1.02275 67.072 32.36)"/><path style="fill:none;stroke:#010101;stroke-width:1.04043;stroke-opacity:.57" d="M35.471 32.491s2.167 1.402 4.26 2.862c2.196 1.529 4.357 2.83 4.357 2.83l5.819-6.862s-3.298-1.475-5.918-2.861a18.8 18.8 0 0 1-2.437-1.56z" transform="matrix(1.02275 0 0 1.02275 67.072 32.36)"/><path style="fill:url(#aP);stroke-width:.260107" d="M35.393 31.524s2.167 1.402 4.26 2.86c2.196 1.53 4.357 2.83 4.357 2.83l5.82-6.86s-3.3-1.476-5.918-2.862a18.8 18.8 0 0 1-2.438-1.56z" transform="matrix(1.02275 0 0 1.02275 67.072 32.36)"/><path style="fill:none;stroke:url(#aQ);stroke-width:.260107" d="m43.295 36.24 5.202-5.723M41.995 35.2l4.942-5.462m-6.503 4.422 5.202-5.202m-6.503 4.161 4.942-4.942m-6.502 3.902 5.202-5.202" transform="matrix(1.02275 0 0 1.02275 67.072 32.36)"/><path style="fill:url(#aR);stroke-width:.260107" d="M41.735 34.419c1.082.72 2.6-1.56 1.56-2.341-1.04-.78-2.861-1.3-2.861-1.3l2.307-1.92 3.155 1.92c-.78.26-1.3 1.82-.52 2.34 1.082.72 2.601-1.56 1.56-2.34-1.04-.781-5.201-3.122-5.201-3.122l-3.382 2.601 3.902 1.82c-.78.26-1.3 1.822-.52 2.342z" transform="matrix(1.02275 0 0 1.02275 67.072 32.36)"/></g><g><path style="fill:#010000;fill-opacity:.4431" d="M38 58h5l21-22-8-4H38z" transform="matrix(.25897 0 0 .25897 101.908 78.186)"/><path style="fill:none;stroke:#010000;stroke-width:4" d="m2 30 19-16 37 14v8L38 56 2 38z" transform="matrix(.25897 0 0 .25897 101.908 78.186)"/><path style="fill:url(#aS)" d="M38 56 2 38v-8l36 16z" transform="matrix(.25897 0 0 .25897 101.908 78.186)"/><path style="fill:url(#aT)" d="M38 46v10l20-20v-8z" transform="matrix(.25897 0 0 .25897 101.908 78.186)"/><path style="fill:url(#aU)" d="M4.23 28.11 21 14l37 14-17.63 15.86z" transform="matrix(.25897 0 0 .25897 101.908 78.186)"/><path style="fill:url(#aV)" d="m2 30 2.23-1.89 36.14 15.75L38 46z" transform="matrix(.25897 0 0 .25897 101.908 78.186)"/><path style="fill:none;stroke:#010000;stroke-width:2" d="M39 36c-2-1-21-9-23-10s-2-3 0-5 5-3 7-2 22 8 24 9 4 3 1 6-7 3-9 2z" transform="matrix(.25897 0 0 .25897 101.908 78.186)"/><path style="fill:url(#aW)" d="M39 36c-2-1-21-9-23-10s-2-3 0-5 5-3 7-2 22 8 24 9 4 3 1 6-7 3-9 2z" transform="matrix(.25897 0 0 .25897 101.908 78.186)"/><path style="fill:#828282" d="M23 22c-1.66 0-3 .89-3 2 0 1.1 1.34 2 3 2 1.65 0 3-.9 3-2 0-1.11-1.35-2-3-2z" transform="matrix(.25897 0 0 .25897 101.908 78.186)"/><path style="fill:#7c7c7c" d="M23 22c-1.66 0-3 .89-3 2 0 1.1 1.34 2 3 2 1.65 0 3-.9 3-2 0-1.11-1.35-2-3-2z" transform="matrix(.25897 0 0 .25897 106.31 80.096)"/><path style="fill:url(#aX)" d="M34.62 33.37 21 28l7.12-6.13 13.88 5z" transform="matrix(.25897 0 0 .25897 101.908 78.186)"/><path style="fill:none;stroke:#090909;stroke-width:1" d="m4 28 37 16 1.5-1.5v3L39 56" transform="matrix(.25897 0 0 .25897 101.908 78.186)"/></g><g><path style="fill:none;stroke:#000;stroke-width:4;stroke-linecap:round;stroke-linejoin:round;stroke-opacity:.4" d="M40 21 20 40V30H2V12h18V2z" transform="matrix(.39161 0 0 .39161 73.824 33.133)"/><path style="fill:none;stroke:#005900;stroke-width:4;stroke-linecap:round;stroke-linejoin:round" d="M40 21 20 40V30H2V12h18V2z" transform="matrix(.39161 0 0 .39161 73.04 32.35)"/><path style="fill:url(#aY)" d="M40 21 20 40V30H2V12h18V2z" transform="matrix(.39161 0 0 .39161 73.04 32.35)"/></g><g><path style="fill:none;stroke:#000;stroke-width:4;stroke-linecap:round;stroke-linejoin:round;stroke-opacity:.4" d="M40 21 20 40V30H2V12h18V2z" transform="matrix(.39161 0 0 .39161 74.596 57.5)"/><path style="fill:none;stroke:#005900;stroke-width:4;stroke-linecap:round;stroke-linejoin:round" d="M40 21 20 40V30H2V12h18V2z" transform="matrix(.39161 0 0 .39161 73.812 56.717)"/><path style="fill:url(#aZ)" d="M40 21 20 40V30H2V12h18V2z" transform="matrix(.39161 0 0 .39161 73.812 56.717)"/></g><g><path style="fill:none;stroke:#000;stroke-width:4;stroke-linecap:round;stroke-linejoin:round;stroke-opacity:.4" d="M40 21 20 40V30H2V12h18V2z" transform="matrix(.39161 0 0 .39161 75.324 80.546)"/><path style="fill:none;stroke:#005900;stroke-width:4;stroke-linecap:round;stroke-linejoin:round" d="M40 21 20 40V30H2V12h18V2z" transform="matrix(.39161 0 0 .39161 74.54 79.763)"/><path style="fill:url(#ba)" d="M40 21 20 40V30H2V12h18V2z" transform="matrix(.39161 0 0 .39161 74.54 79.763)"/></g><g><path style="fill:none;stroke:#000;stroke-width:4;stroke-linecap:round;stroke-linejoin:round;stroke-opacity:.4" d="M40 21 20 40V30H2V12h18V2z" transform="matrix(.39161 0 0 .39161 132.806 33.564)"/><path style="fill:none;stroke:#005900;stroke-width:4;stroke-linecap:round;stroke-linejoin:round" d="M40 21 20 40V30H2V12h18V2z" transform="matrix(.39161 0 0 .39161 132.023 32.781)"/><path style="fill:url(#bb)" d="M40 21 20 40V30H2V12h18V2z" transform="matrix(.39161 0 0 .39161 132.023 32.781)"/></g><g><path style="fill:none;stroke:#000;stroke-width:4;stroke-linecap:round;stroke-linejoin:round;stroke-opacity:.4" d="M40 21 20 40V30H2V12h18V2z" transform="matrix(.39161 0 0 .39161 133.578 57.93)"/><path style="fill:none;stroke:#005900;stroke-width:4;stroke-linecap:round;stroke-linejoin:round" d="M40 21 20 40V30H2V12h18V2z" transform="matrix(.39161 0 0 .39161 132.795 57.148)"/><path style="fill:url(#bc)" d="M40 21 20 40V30H2V12h18V2z" transform="matrix(.39161 0 0 .39161 132.795 57.148)"/></g><g><path style="fill:none;stroke:#000;stroke-width:4;stroke-linecap:round;stroke-linejoin:round;stroke-opacity:.4" d="M40 21 20 40V30H2V12h18V2z" transform="matrix(.39161 0 0 .39161 134.306 80.977)"/><path style="fill:none;stroke:#005900;stroke-width:4;stroke-linecap:round;stroke-linejoin:round" d="M40 21 20 40V30H2V12h18V2z" transform="matrix(.39161 0 0 .39161 133.523 80.194)"/><path style="fill:url(#bd)" d="M40 21 20 40V30H2V12h18V2z" transform="matrix(.39161 0 0 .39161 133.523 80.194)"/></g><text xml:space="preserve" style="font-style:normal;font-weight:400;font-size:8px;line-height:1.25;font-family:sans-serif;fill:#000;fill-opacity:1;stroke:none" x="153.513" y="6.994"><tspan x="153.513" y="6.994" style="font-weight:700;font-size:8px;text-align:center;text-anchor:middle">Text encoded</tspan><tspan x="153.513" y="16.994" style="font-weight:700;font-size:8px;text-align:center;text-anchor:middle">resources are bundled</tspan><tspan x="153.513" y="26.994" style="font-weight:700;font-size:8px;text-align:center;text-anchor:middle">into the HTML file</tspan></text></svg>