<svg width="64" height="64" color-interpolation="linearRGB" xmlns="http://www.w3.org/2000/svg"><path style="fill:#000;fill-opacity:.4196" d="M45 59h11l1-2-12-6v8z"/><path style="fill:none;stroke:#000;stroke-width:4" d="m6 40 38 19 2-2V18L8 6 6 7v33z"/><linearGradient id="a" gradientUnits="userSpaceOnUse" x1="100.6" y1="-44.06" x2="130.37" y2="12.32"><stop offset="0" stop-color="#e3ad00"/><stop offset="1" stop-color="#bc8f05"/></linearGradient><path style="fill:url(#a)" d="m6 40 38 19V20L6 7v33z"/><radialGradient id="b" gradientUnits="userSpaceOnUse" cx="0" cy="0" r="64" gradientTransform="matrix(.4251 .1893 -.117 .2627 17.737 30.152)"><stop offset=".239" stop-color="#769564"/><stop offset="1" stop-color="#536e44"/></radialGradient><path style="fill:url(#b)" d="M40 52 10 37V12l30 11v29z"/><linearGradient id="c" gradientUnits="userSpaceOnUse" x1="39.12" y1="-59.43" x2="28.73" y2="-57.88"><stop offset="0" stop-color="#b58a00"/><stop offset="1" stop-color="#856503"/></linearGradient><path style="fill:url(#c)" d="M12 36V13l-2-1v25l2-1z"/><linearGradient id="d" gradientUnits="userSpaceOnUse" x1="39.12" y1="-59.43" x2="28.73" y2="-57.88"><stop offset="0" stop-color="#b58a00"/><stop offset="1" stop-color="#856503"/></linearGradient><path style="fill:url(#d)" d="m44 59 2-2V18l-2 2v39z"/><linearGradient id="e" gradientUnits="userSpaceOnUse" x1="103.38" y1="-22.02" x2="109.24" y2="6"><stop offset="0" stop-color="#ffefc0"/><stop offset="1" stop-color="#ffde7c"/></linearGradient><path style="fill:url(#e)" d="M8 6 6 7l38 13 2-2L8 6z"/><linearGradient id="f" gradientUnits="userSpaceOnUse" x1="103.38" y1="-22.02" x2="109.24" y2="6"><stop offset="0" stop-color="#ffefc0"/><stop offset="1" stop-color="#ffde7c"/></linearGradient><path style="fill:url(#f)" d="m10 37 30 15v-3L12 36l-2 1z"/><path style="fill:none;stroke:#fff;stroke-width:2" d="m14 20 18 12m-3-9v11m-4-12v10m-4-12v10m-4-11v9"/></svg>