<svg xmlns="http://www.w3.org/2000/svg" xmlns:xlink="http://www.w3.org/1999/xlink" color-interpolation="linearRGB" height="55.837" width="82.676"><defs><linearGradient id="d" gradientUnits="userSpaceOnUse" x1="107.04" y1="-17.09" x2="118.33" y2="27.99" gradientTransform="matrix(.2601 0 0 .2601 25.34 25.536)"><stop offset="0" stop-color="#d6d6d6"/><stop offset=".742" stop-color="#f5f5f5"/><stop offset="1" stop-color="#e6e6e6"/></linearGradient><linearGradient id="e" gradientUnits="userSpaceOnUse" x1="-32" y1="-16" x2="48" y2="-16" gradientTransform="matrix(.2601 0 0 .2601 25.34 25.536)"><stop offset="1" stop-color="#1467ff"/><stop offset=".404" stop-color="#06f8b7"/></linearGradient><linearGradient id="f" gradientUnits="userSpaceOnUse" x1="107.04" y1="-17.09" x2="118.33" y2="27.99" gradientTransform="matrix(.2601 0 0 .2601 34.712 16.868)"><stop offset="0" stop-color="#a5c5ff"/><stop offset=".742" stop-color="#eaf2ff"/><stop offset="1" stop-color="#d5e3ff"/></linearGradient><linearGradient id="h" gradientUnits="userSpaceOnUse" x1="-16.88" y1="12.97" x2="2.32" y2="-12.12" gradientTransform="matrix(.2601 0 0 .2601 34.712 16.868)"><stop offset="0" stop-color="#010101"/><stop offset="1" stop-color="#272727"/></linearGradient><linearGradient id="i" gradientUnits="userSpaceOnUse" x1="35.39" y1="14.68" x2="50.49" y2="42.9"><stop offset="0" stop-color="#686868"/><stop offset="1" stop-color="#393939"/></linearGradient><linearGradient id="j" gradientUnits="userSpaceOnUse" x1="39.81" y1="66.3" x2="30.43" y2="59.24"><stop offset="0" stop-color="#505050"/><stop offset="1" stop-color="#222"/></linearGradient><linearGradient id="k" gradientUnits="userSpaceOnUse" x1="49.05" y1="4.66" x2="61.23" y2="34.25"><stop offset="0" stop-color="#aeaeae"/><stop offset="1" stop-color="#7c7c7c"/></linearGradient><linearGradient id="l" gradientUnits="userSpaceOnUse" x1="33.55" y1="5.08" x2="57.12" y2="26.73"><stop offset="0" stop-color="#8e8e8e"/><stop offset="1" stop-color="#5a5a5a"/></linearGradient><linearGradient id="m" gradientUnits="userSpaceOnUse" x1="17.54" y1="4.52" x2="49.01" y2="6.15"><stop offset="0" stop-color="#3c3b3b"/><stop offset=".268" stop-color="#737373"/><stop offset="1" stop-color="#3a3a3a"/></linearGradient><linearGradient id="n" gradientUnits="userSpaceOnUse" x1="41.84" y1="1.06" x2="63.9" y2="24.25"><stop offset="0" stop-color="#fff"/><stop offset="1" stop-color="#e8e8e8"/></linearGradient><linearGradient id="o" gradientUnits="userSpaceOnUse" x1="105.45" y1="-23.42" x2="119.92" y2="34.32" gradientTransform="matrix(.2601 0 0 .2601 37.782 34.156)"><stop offset="0" stop-color="#a5b1ff"/><stop offset=".739" stop-color="#eaf1ff"/><stop offset="1" stop-color="#b3b8ff"/></linearGradient><linearGradient id="p" gradientUnits="userSpaceOnUse" x1="19.58" y1="-2" x2="37.95" y2=".06" gradientTransform="matrix(.2601 0 0 .2601 37.782 34.156)"><stop offset="0" stop-color="#fff9ba"/><stop offset="1" stop-color="#ffc104"/></linearGradient><linearGradient id="q" gradientUnits="userSpaceOnUse" x1="27.29" y1="19.16" x2="46.61" y2="24.04" gradientTransform="matrix(.2601 0 0 .2601 37.782 34.156)"><stop offset="0" stop-color="#badcff"/><stop offset="1" stop-color="#2a20f1"/></linearGradient><linearGradient id="r" gradientUnits="userSpaceOnUse" x1="39.27" y1="-4.08" x2="53.93" y2="-1.85" gradientTransform="matrix(.2601 0 0 .2601 37.782 34.156)"><stop offset="0" stop-color="#e99797"/><stop offset="1" stop-color="#ce3232"/></linearGradient><linearGradient id="s" gradientUnits="userSpaceOnUse" x1="107.04" y1="-17.09" x2="118.33" y2="27.99" gradientTransform="matrix(.2601 0 0 .2601 47.039 25.176)"><stop offset="0" stop-color="#ffce89"/><stop offset=".742" stop-color="#ffeace"/><stop offset="1" stop-color="#ffdab3"/></linearGradient><linearGradient id="t" gradientUnits="userSpaceOnUse" x1="-62.14" y1="43.08" x2="-58.5" y2="14.4" gradientTransform="matrix(.2601 0 0 .2601 47.039 25.176)"><stop offset="0" stop-color="#7f004c"/><stop offset=".961" stop-color="#d60580"/></linearGradient><linearGradient id="u" gradientUnits="userSpaceOnUse" x1="107.04" y1="-17.09" x2="118.33" y2="27.99" gradientTransform="matrix(.2601 0 0 .2601 56.604 15.623)"><stop offset=".008" stop-color="#bfdef4"/><stop offset=".742" stop-color="#fff"/><stop offset="1" stop-color="#e7eefb"/></linearGradient><linearGradient id="a" gradientUnits="userSpaceOnUse" x1="-47.14" y1="-10.78" x2="-28.46" y2="-32.85"><stop offset="0" stop-color="#010101"/><stop offset="1" stop-color="#5296cb"/></linearGradient><linearGradient xlink:href="#a" id="v" gradientUnits="userSpaceOnUse" x1="-47.14" y1="-10.78" x2="-28.46" y2="-32.85" gradientTransform="matrix(.2601 0 0 .2601 56.604 14.322)"/><linearGradient xlink:href="#a" id="w" gradientUnits="userSpaceOnUse" x1="-47.14" y1="-10.78" x2="-28.46" y2="-32.85" gradientTransform="matrix(.2601 0 0 .2601 56.604 14.322)"/><linearGradient id="c" gradientUnits="userSpaceOnUse" x1="107.04" y1="-17.09" x2="118.33" y2="27.99" gradientTransform="matrix(1.30888 0 0 1.09687 .952 -7.342)"><stop offset="0" stop-color="#ffefa5"/><stop offset=".742" stop-color="#fffcc0"/><stop offset="1" stop-color="#fff890"/></linearGradient><linearGradient xlink:href="#b" id="y" gradientUnits="userSpaceOnUse" x1="-47.14" y1="-15.78" x2="-28.46" y2="-37.85" gradientTransform="rotate(2 -52.393 11.274)"/><linearGradient id="b" gradientUnits="userSpaceOnUse" x1="-47.14" y1="-15.78" x2="-28.46" y2="-37.85"><stop offset="0" stop-color="#010101"/><stop offset="1" stop-color="#9e9e9e"/></linearGradient><linearGradient xlink:href="#b" id="x" gradientUnits="userSpaceOnUse" gradientTransform="rotate(2 -52.393 11.274)" x1="-47.14" y1="-15.78" x2="-28.46" y2="-37.85"/><linearGradient id="z" gradientUnits="userSpaceOnUse" x1="13.84" y1="-38.14" x2="58.34" y2="-27.7"><stop offset="0" stop-color="#e3f7ff"/><stop offset="1" stop-color="#ace2ff"/></linearGradient><linearGradient id="A" gradientUnits="userSpaceOnUse" x1="44.72" y1="-7.9" x2="86.1" y2="10.51"><stop offset="0" stop-color="#214c8b"/><stop offset="1" stop-color="#1d8ac4"/></linearGradient><linearGradient id="B" gradientUnits="userSpaceOnUse" x1="22.97" y1="92.59" x2="-14.6" y2="67.29"><stop offset="0" stop-color="#5fbbeb"/><stop offset="1" stop-color="#c7ecff"/></linearGradient><radialGradient id="g" gradientUnits="userSpaceOnUse" cx="0" cy="0" r="64" gradientTransform="matrix(.04052 -.04981 .1182 .09616 41.963 24.02)"><stop offset="0" stop-color="#485c85"/><stop offset="1" stop-color="#bbcff7"/></radialGradient></defs><path style="fill:#000;fill-opacity:0;stroke:#000;stroke-width:4.79278;stroke-opacity:.57" d="M5.684 28.922s10.903 5.912 21.44 12.066c11.047 6.45 21.923 11.934 21.923 11.934l29.28-28.936S61.73 17.767 48.55 11.921C41.757 8.904 36.286 5.34 36.286 5.34z"/><path style="fill:none;stroke:#010101;stroke-width:4.79278" d="M4.38 26.519s10.904 5.912 21.44 12.065c11.047 6.45 21.924 11.934 21.924 11.934l29.28-28.935s-16.597-6.22-29.777-12.066c-6.794-3.016-12.265-6.581-12.265-6.581z"/><path style="fill:url(#c);stroke-width:1.19819" d="M4.38 26.519s10.904 5.912 21.44 12.065c11.047 6.45 21.924 11.934 21.924 11.934l29.28-28.935s-16.597-6.22-29.777-12.066c-6.794-3.016-12.265-6.581-12.265-6.581z"/><path style="fill:none;stroke:#010101;stroke-width:1.04042" d="M26.022 33.565s2.166 1.402 4.26 2.861a88.254 88.254 0 0 0 4.357 2.83l5.818-6.861s-3.298-1.475-5.917-2.862c-1.35-.715-2.437-1.56-2.437-1.56z"/><path style="fill:none;stroke:#010101;stroke-width:1.04042;stroke-opacity:.57" d="M26.123 34.545s2.167 1.402 4.26 2.86a88.258 88.258 0 0 0 4.357 2.83l5.819-6.86s-3.298-1.476-5.917-2.862c-1.35-.715-2.438-1.56-2.438-1.56z"/><path style="fill:url(#d);stroke-width:.260105" d="M26.022 33.565s2.166 1.402 4.26 2.861a88.254 88.254 0 0 0 4.357 2.83l5.818-6.861s-3.298-1.475-5.917-2.862c-1.35-.715-2.437-1.56-2.437-1.56z"/><path style="fill:url(#e);stroke-width:.260105" d="m27.42 33.339 5.723 3.641 4.682-5.202-5.722-2.6z"/><path style="fill:none;stroke:#010101;stroke-width:1.04043" d="M35.393 24.898s2.167 1.401 4.26 2.86c2.196 1.53 4.357 2.83 4.357 2.83l5.82-6.861s-3.3-1.475-5.918-2.861a18.8 18.8 0 0 1-2.438-1.56z"/><path style="fill:none;stroke:#010101;stroke-width:1.04043;stroke-opacity:.57" d="M35.471 25.865s2.167 1.402 4.26 2.861c2.196 1.53 4.357 2.83 4.357 2.83l5.819-6.861s-3.298-1.475-5.918-2.861a18.8 18.8 0 0 1-2.437-1.561z"/><path style="fill:url(#f);stroke-width:.260107" d="M35.393 24.898s2.167 1.401 4.26 2.86c2.196 1.53 4.357 2.83 4.357 2.83l5.82-6.861s-3.3-1.475-5.918-2.861a18.8 18.8 0 0 1-2.438-1.56z"/><path style="fill:none;stroke:url(#g);stroke-width:.260107" d="m43.295 29.613 5.202-5.722m-6.502 4.682 4.942-5.462m-6.503 4.421 5.202-5.202m-6.503 4.162 4.942-4.942m-6.502 3.902 5.202-5.203"/><path style="fill:url(#h);stroke-width:.260107" d="M41.735 27.793c1.082.72 2.6-1.561 1.56-2.341-1.04-.78-2.861-1.301-2.861-1.301l2.307-1.92 3.155 1.92c-.78.26-1.3 1.82-.52 2.341 1.082.72 2.601-1.56 1.56-2.341-1.04-.78-5.201-3.121-5.201-3.121l-3.382 2.6 3.902 1.822c-.78.26-1.3 1.82-.52 2.34z"/><path style="fill:#010000;fill-opacity:.4431" d="M38 58h5l21-22-8-4H38z" transform="matrix(.26269 0 0 .26269 43.548 7.868)"/><path style="fill:none;stroke:#010000;stroke-width:4" d="m2 30 19-16 37 14v8L38 56 2 38z" transform="matrix(.26269 0 0 .26269 43.548 7.868)"/><path style="fill:url(#i)" d="M38 56 2 38v-8l36 16z" transform="matrix(.26269 0 0 .26269 43.548 7.868)"/><path style="fill:url(#j)" d="M38 46v10l20-20v-8z" transform="matrix(.26269 0 0 .26269 43.548 7.868)"/><path style="fill:url(#k)" d="M4.23 28.11 21 14l37 14-17.63 15.86z" transform="matrix(.26269 0 0 .26269 43.548 7.868)"/><path style="fill:url(#l)" d="m2 30 2.23-1.89 36.14 15.75L38 46z" transform="matrix(.26269 0 0 .26269 43.548 7.868)"/><path style="fill:none;stroke:#010000;stroke-width:2" d="M39 36c-2-1-21-9-23-10s-2-3 0-5 5-3 7-2 22 8 24 9 4 3 1 6-7 3-9 2z" transform="matrix(.26269 0 0 .26269 43.548 7.868)"/><path style="fill:url(#m)" d="M39 36c-2-1-21-9-23-10s-2-3 0-5 5-3 7-2 22 8 24 9 4 3 1 6-7 3-9 2z" transform="matrix(.26269 0 0 .26269 43.548 7.868)"/><path style="fill:#828282" d="M23 22c-1.66 0-3 .89-3 2 0 1.1 1.34 2 3 2 1.65 0 3-.9 3-2 0-1.11-1.35-2-3-2z" transform="matrix(.26269 0 0 .26269 43.548 7.868)"/><path style="fill:#7c7c7c" d="M23 22c-1.66 0-3 .89-3 2 0 1.1 1.34 2 3 2 1.65 0 3-.9 3-2 0-1.11-1.35-2-3-2z" transform="matrix(.26269 0 0 .26269 48.014 9.806)"/><path style="fill:url(#n)" d="M34.62 33.37 21 28l7.12-6.13 13.88 5z" transform="matrix(.26269 0 0 .26269 43.548 7.868)"/><path style="fill:none;stroke:#090909;stroke-width:1" d="m4 28 37 16 1.5-1.5v3L39 56" transform="matrix(.26269 0 0 .26269 43.548 7.868)"/><path style="fill:none;stroke:#010101;stroke-width:1.04043" d="M38.464 42.185s2.167 1.402 4.26 2.861c2.196 1.53 4.357 2.83 4.357 2.83l5.819-6.861s-3.298-1.475-5.918-2.861a18.8 18.8 0 0 1-2.437-1.561z"/><path style="fill:none;stroke:#010101;stroke-width:1.04043;stroke-opacity:.57" d="M38.55 43.275s2.167 1.402 4.261 2.861c2.195 1.53 4.357 2.83 4.357 2.83l5.818-6.862s-3.298-1.474-5.917-2.86a18.8 18.8 0 0 1-2.437-1.561z"/><path style="fill:url(#o);stroke-width:.260107" d="M38.464 42.185s2.167 1.402 4.26 2.861c2.196 1.53 4.357 2.83 4.357 2.83l5.819-6.861s-3.298-1.475-5.918-2.861a18.8 18.8 0 0 1-2.437-1.561z"/><path style="fill:none;stroke:#010101;stroke-width:1.04043" d="M42.464 39.878v1.82l2.081 1.041 1.56-.78v-1.82l-1.82-1.041zm2.081 3.382v1.82l1.56.78 1.561-.78v-1.82l-1.3-.78zm2.081-3.122v1.821l1.56 1.04 1.561-.78v-1.56l-1.56-1.041z"/><path style="fill:url(#p);stroke-width:.260107" d="M42.464 39.878v1.82l2.081 1.041 1.56-.78v-1.82l-1.82-1.041z"/><path style="fill:url(#q);stroke-width:.260107" d="M44.545 43.26v1.82l1.56.78 1.561-.78v-1.82l-1.3-.78z"/><path style="fill:url(#r);stroke-width:.260107" d="M46.626 40.138v1.821l1.56 1.04 1.561-.78v-1.56l-1.56-1.041z"/><path style="fill:none;stroke:#010101;stroke-width:1.04043" d="M47.72 33.206s2.167 1.402 4.26 2.86c2.196 1.53 4.357 2.83 4.357 2.83l5.82-6.86s-3.3-1.476-5.918-2.862a18.8 18.8 0 0 1-2.438-1.56z"/><path style="fill:none;stroke:#010101;stroke-width:1.04043;stroke-opacity:.57" d="M47.737 34.1s2.166 1.401 4.26 2.86c2.195 1.53 4.357 2.83 4.357 2.83l5.819-6.861s-3.299-1.475-5.918-2.862a18.8 18.8 0 0 1-2.437-1.56z"/><path style="fill:url(#s);stroke-width:.260107" d="M47.72 33.206s2.167 1.402 4.26 2.86c2.196 1.53 4.357 2.83 4.357 2.83l5.82-6.86s-3.3-1.476-5.918-2.862a18.8 18.8 0 0 1-2.438-1.56z"/><path style="fill:url(#t);stroke-width:.260107" d="M52.337 30.735s-1.048.44-1.69 1.103c-.682.702-1.148 1.914-.328 2.018.78.096 1.758.583 3.709.164 1.55-.338 2.068-.505 2.635-.718.679-.26 2.047.096 1.69-.486-.138-.227-.361-.39.55-.554.91-.164.834-1.106-.94-1.301-1.792-.192-2.832.718-4.065 1.238-1.238.52-2.04.442-2.409.356-.809-.197.848-1.82.848-1.82zm5.106 3.025c-.554.028-.78.549.13.679s.419-.713-.13-.68zm2.24-1.108c-.29.033-.39.26-.03.39.357.13.323-.424.03-.39z"/><path style="fill:none;stroke:#010101;stroke-width:.364098" d="m55.62 30.464-.363.728h-.91l.728.546-.364.91.91-.546.91.546-.364-.91.728-.546h-.91z"/><path style="fill:#fff5b3;stroke-width:.182049" d="m55.62 30.464-.363.728h-.91l.728.546-.364.91.91-.546.91.546-.364-.91.728-.546h-.91z"/><path style="fill:none;stroke:#010101;stroke-width:.520214" d="m58.743 28.297-.52 1.04h-1.3l1.04.781-.52 1.3 1.3-.78 1.301.78-.52-1.3 1.04-.78h-1.3z"/><path style="fill:#fff5b3;stroke-width:.260107" d="m58.743 28.297-.52 1.04h-1.3l1.04.781-.52 1.3 1.3-.78 1.301.78-.52-1.3 1.04-.78h-1.3z"/><path style="fill:none;stroke:#010101;stroke-width:1.04043" d="M57.285 23.652s2.167 1.402 4.26 2.861c2.196 1.53 4.358 2.83 4.358 2.83l5.818-6.861s-3.298-1.475-5.917-2.861a18.8 18.8 0 0 1-2.438-1.561z"/><path style="fill:none;stroke:#010101;stroke-width:1.04043;stroke-opacity:.57" d="M57.37 24.435s2.166 1.402 4.26 2.861c2.196 1.53 4.357 2.83 4.357 2.83l5.819-6.862s-3.298-1.474-5.918-2.86a18.8 18.8 0 0 1-2.437-1.561z"/><path style="fill:url(#u);stroke-width:.260107" d="M57.285 23.652s2.167 1.402 4.26 2.861c2.196 1.53 4.358 2.83 4.358 2.83l5.818-6.861s-3.298-1.475-5.917-2.861a18.8 18.8 0 0 1-2.438-1.561z"/><path style="fill:none;stroke:url(#v);stroke-width:.260107" d="m60.245 23.946 2.341-2.34m-.26 3.9 4.162-4.161m-3.122 4.942 4.162-4.162"/><path style="fill:none;stroke:url(#w);stroke-width:.260107" d="m62.326 23.686 2.861-2.861"/><path style="fill:none;stroke:#010101;stroke-width:.260107" d="m62.846 20.565.26.52.52.26M63.367 20.044l.52.26.26.52M61.286 23.946l.26.52.52.26M64.667 26.287l.52.26.26.52"/><text xml:space="preserve" style="font-style:normal;font-weight:400;font-size:7.33333px;line-height:1.25;font-family:sans-serif;fill:#000;fill-opacity:1;stroke:none" x="25.306" y="-4.009" transform="rotate(22)"/><text xml:space="preserve" style="font-style:normal;font-weight:400;font-size:40px;line-height:1.25;font-family:sans-serif;fill:#000;fill-opacity:1;stroke:none" x="43.858" y="-25.859"/><text xml:space="preserve" style="font-style:normal;font-weight:400;font-size:40px;line-height:1.25;font-family:sans-serif;fill:#000;fill-opacity:1;stroke:none" x="49.202" y="-28.886"/><text xml:space="preserve" style="font-style:normal;font-weight:400;font-size:40px;line-height:1.25;font-family:sans-serif;fill:#000;fill-opacity:1;stroke:none" x="45.747" y="-27.979"/><g><path style="fill:none;stroke:url(#x);stroke-width:1" d="m25.363 22.764-12.127 11.54zm5.842 3.857L19.094 38.51z" transform="translate(.039 -6.516)"/><path style="fill:none;stroke:url(#y);stroke-width:1" d="M27.676 25.424 16.164 36.408z" transform="translate(.039 -6.516)"/></g><g><path style="fill:#010101;fill-opacity:.5019" d="M36 61h5l23-31-6-3 1 4z" transform="rotate(7.998 11.125 198.15) scale(.30326)"/><path style="fill:none;stroke:#010000;stroke-width:4" d="M2 28v13l34 18 22-29V17L25 5z" transform="rotate(7.998 11.125 198.15) scale(.30326)"/><path style="fill:url(#z)" d="m2 28 34 15 22-26L25 5z" transform="rotate(7.998 11.125 198.15) scale(.30326)"/><path style="fill:url(#A)" d="M36 43v16l22-29V17z" transform="rotate(7.998 11.125 198.15) scale(.30326)"/><path style="fill:url(#B)" d="M2 28v13l34 18V43z" transform="rotate(7.998 11.125 198.15) scale(.30326)"/></g></svg>