<svg width="64" height="64" color-interpolation="linearRGB" xmlns="http://www.w3.org/2000/svg"><path style="fill:#010101;fill-opacity:.4941" d="M18 62h6l2-2s8 4 18 4L28 52 18 62z"/><path style="fill:none;stroke:#000;stroke-width:4" d="M6 22v32l12 6 20-20V12l2-4h-8l-2 2-4-4V2L4 8l-2 6 4 8z"/><linearGradient id="a" gradientUnits="userSpaceOnUse" x1="54.19" y1="-9.12" x2="63.71" y2="11.88"><stop offset="0" stop-color="#9a9a9a"/><stop offset="1" stop-color="#384150"/></linearGradient><path style="fill:url(#a)" d="m6 22 24-12v24L6 22z"/><path style="fill:#a2a2a2" d="m30 10 4 8 4-6-8-2z"/><path style="fill:#606c7e" d="M30 10v10l4-4-4-6z"/><linearGradient id="b" gradientUnits="userSpaceOnUse" x1="37.54" y1="-6.89" x2="62.67" y2="38.63"><stop offset="0" stop-color="#c7ecff"/><stop offset="1" stop-color="#5fbbeb"/></linearGradient><path style="fill:url(#b)" d="M6 22v32l12 6V30L8 26l-2-4z"/><path style="fill:#339cd3" d="m6 22 2 4 10 4v-4L6 22z"/><linearGradient id="c" gradientUnits="userSpaceOnUse" x1="72.21" y1="13.59" x2="77.87" y2="36.96"><stop offset="0" stop-color="#1f8cc4"/><stop offset="1" stop-color="#214c8b"/></linearGradient><path style="fill:url(#c)" d="m18 60 20-20V12L18 26v34z"/><linearGradient id="d" gradientUnits="userSpaceOnUse" x1="60.15" y1="1.45" x2="61.67" y2="14.63"><stop offset="0" stop-color="#b9b9b9"/><stop offset="1" stop-color="#e9e9e9"/></linearGradient><path style="fill:url(#d)" d="m10 20-6-2-2-4 24-8 4 4-20 10z"/><linearGradient id="e" gradientUnits="userSpaceOnUse" x1="-2" y1="-16" x2="30" y2="-16"><stop offset="0" stop-color="#838383"/><stop offset="1" stop-color="#999"/></linearGradient><path style="fill:url(#e)" d="m2 14 24-8V2L4 8l-2 6z"/><path style="fill:#1881b7" d="m6 22 12 4-2-4-12-4 2 4z"/><path style="fill:#cacaca" d="m38 12 2-4h-8l-2 2 8 2z"/><path style="fill:none;stroke:#000;stroke-width:4" d="M54.06 31.18c-7.01-8.05-19.57-11.21-27.09-4.66-7.52 6.55-5.99 19.31 1.02 27.36 7.02 8.06 19.58 11.21 27.1 4.66 7.52-6.55 5.99-19.31-1.03-27.36zm-9.52 8.39c-1.87-2.15-4.06-2.13-5.31-1.04-1.26 1.09-1.58 3.63.29 5.78 1.88 2.15 4.06 2.13 5.32 1.04 1.25-1.09 1.57-3.63-.3-5.78z"/><linearGradient id="f" gradientUnits="userSpaceOnUse" x1="5.59" y1="46.67" x2="43.32" y2="5.73"><stop offset="0" stop-color="#f1f1f1"/><stop offset=".212" stop-color="#d9ddf4"/><stop offset=".542" stop-color="#837ead"/><stop offset=".708" stop-color="#b8bedb"/><stop offset="1" stop-color="#f4f4f4"/></linearGradient><path style="fill:url(#f)" d="M54.06 31.18c-7.01-8.05-19.57-11.21-27.09-4.66-7.52 6.55-5.99 19.31 1.02 27.36 7.02 8.06 19.58 11.21 27.1 4.66 7.52-6.55 5.99-19.31-1.03-27.36zM47.64 48.2c-2.5 2.18-6.88 2.21-10.62-2.08-3.74-4.3-3.11-8.63-.6-10.81 2.51-2.18 6.57-1.95 10.31 2.35s3.42 8.35.91 10.54z"/><path style="fill:#ebebeb;fill-opacity:.8156" d="M47.64 48.2c-2.5 2.18-6.88 2.21-10.62-2.08-3.74-4.3-3.11-8.63-.6-10.81 2.51-2.18 6.57-1.95 10.31 2.35s3.42 8.35.91 10.54zm-3.1-8.63c-1.87-2.15-4.06-2.13-5.31-1.04-1.26 1.09-1.58 3.63.29 5.78 1.88 2.15 4.06 2.13 5.32 1.04 1.25-1.09 1.57-3.63-.3-5.78z"/><linearGradient id="g" gradientUnits="userSpaceOnUse" x1="51.27" y1="8.97" x2="64.1" y2="36.67"><stop offset="0" stop-color="#4137a9"/><stop offset="1" stop-color="#b9b9b9"/></linearGradient><path style="fill:none;stroke:url(#g);stroke-width:2" d="M47.64 48.2c-2.5 2.18-6.88 2.21-10.62-2.08-3.74-4.3-3.11-8.63-.6-10.81 2.51-2.18 6.57-1.95 10.31 2.35s3.42 8.35.91 10.54z"/></svg>