<svg width="64" height="64" color-interpolation="linearRGB" xmlns="http://www.w3.org/2000/svg"><path style="fill:#010101;fill-opacity:.4745" d="M34 64s8 0 10-2 0-4 2-6 5-6 7-8 8 0 10-4-5-16-29-16"/><path style="fill:none;stroke:#010101;stroke-width:4;stroke-linejoin:round" d="M38 7c7 2 14 1 18 3s2 10-2 10l-5-1s-1 1-3 13h-5l4 4c-3 13-5 26-11 26-2 0-8-5-15-9S6 47 4 46c-4-2-1-8 3-8 2 0 3 1 4 1 0 0 1-3 1-5h4l-3-4c1-6 2-14 4-19h4l-3-3c1-4 3-6 6-6s7 3 14 5z"/><linearGradient id="a" gradientUnits="userSpaceOnUse" x1="6.84" y1="-5.88" x2="4.3" y2=".96"><stop offset="0" stop-color="#b17703"/><stop offset="1" stop-color="#c7ac5b"/></linearGradient><path style="fill:url(#a)" d="M38 7c7 2 14 1 18 3s2 10-2 10l-5-1s-1 1-3 13h-5l4 4c-3 13-5 26-11 26-2 0-8-5-15-9S6 47 4 46c-4-2-1-8 3-8 2 0 3 1 4 1 0 0 1-3 1-5h4l-3-4c1-6 2-14 4-19h4l-3-3c1-4 3-6 6-6s7 3 14 5z"/><path style="fill:none;stroke:#010101;stroke-width:4" d="M47 21c5-4 1-10 11-10"/><linearGradient id="b" gradientUnits="userSpaceOnUse" x1="130.53" y1="28.69" x2="115.08" y2="81.62"><stop offset="0" stop-color="#dad09f"/><stop offset=".196" stop-color="#fffdf2"/><stop offset=".476" stop-color="#dad09f"/><stop offset=".775" stop-color="#c7ac5b"/><stop offset="1" stop-color="#b17703"/></linearGradient><path style="fill:url(#b)" d="M34 62c6 0 8-13 11-26l-4-4h5c2-12 5-22 10-22-4-2-11-1-18-3S27 2 24 2s-5 2-6 6l3 3-4.07.1C15 16 14 24 12.88 29.95L16 34l-4.01.02C12 36 11 39 11 39c-1.46 4.27-4.04 7-7 7 2 1 8 3 15 7s13 9 15 9z"/><path style="fill:none;stroke:#010101;stroke-width:4;stroke-linecap:round;stroke-linejoin:round" d="M32 60c0-2 2-8 6-8-4-2-11-4-17-7s-11-7-13-7"/><linearGradient id="c" gradientUnits="userSpaceOnUse" x1="-10.95" y1="26.76" x2="-15.71" y2="36.2"><stop offset="0" stop-color="#dad09f"/><stop offset=".312" stop-color="#fffdf2"/><stop offset=".619" stop-color="#dad09f"/><stop offset="1" stop-color="#c7ac5b"/></linearGradient><path style="fill:url(#c)" d="M8 38c-4 0-8 6-4 8 2 1 8 3 15 7s13 9 15 9c-3-2 0-10 4-10-4-2-11-4-17-7s-11-7-13-7z"/><path style="fill:none;stroke:#010101;stroke-width:2" d="m19 15 24 9m-25-3 18 8" transform="matrix(.9587 .0398 -.0415 .9991 -.35 12.782)"/><path style="fill:none;stroke:#010101;stroke-width:2" d="m19 15 24 9m-25-3 18 8"/></svg>