<svg width="64" height="64" color-interpolation="linearRGB" xmlns="http://www.w3.org/2000/svg"><path style="fill:#000;fill-opacity:.4196" d="m35 62 5-6s3.72 2.38 8 3c5.94.84 13 0 13 0l1-2-12-6-12 2-7 8 4 1z" transform="translate(-4 -2)"/><path style="fill:none;stroke:#010000;stroke-width:4" d="M34 38s0 13-14 15v2l14 7 14-14-3-13-11 3z" transform="translate(-5 -2)"/><linearGradient id="a" gradientUnits="userSpaceOnUse" x1="41.67" y1="-9.73" x2="71.92" y2="-3.5"><stop offset="0" stop-color="#5c5c5c"/><stop offset="1" stop-color="#b8b8b8"/></linearGradient><path style="fill:url(#a)" d="M34 36v26l14-14-3-14-11 2z" transform="translate(-5 -2)"/><linearGradient id="b" gradientUnits="userSpaceOnUse" x1="14.26" y1="97.46" x2="-8.94" y2="81.76"><stop offset="0" stop-color="#c9c9c9"/><stop offset="1" stop-color="#fff"/></linearGradient><path style="fill:url(#b)" d="m20 55 14 7v-3l-14-6v2z" transform="translate(-5 -2)"/><linearGradient id="c" gradientUnits="userSpaceOnUse" x1="51.94" y1="63.65" x2="26.51" y2="73.34"><stop offset="0" stop-color="#797979"/><stop offset="1" stop-color="#e4e4e4"/></linearGradient><path style="fill:url(#c)" d="M34 59c11-9 6-19 6-19l-6-2s0 13-14 15l14 6z" transform="translate(-5 -2)"/><path style="fill:none;stroke:#000;stroke-width:4" d="m14 39 38 19 3-3V17L17 5.53 14 7v32z" transform="translate(-4 -2)"/><linearGradient id="d" gradientUnits="userSpaceOnUse" x1="121.6" y1="-41.06" x2="151.37" y2="15.32"><stop offset="0" stop-color="#d4d4d4"/><stop offset="1" stop-color="#7d7d7d"/></linearGradient><path style="fill:url(#d)" d="m14 39 38 19V20L14 7v32z" transform="translate(-4 -2)"/><linearGradient id="e" gradientUnits="userSpaceOnUse" x1="28.71" y1="-38.38" x2="57.09" y2="-27.57"><stop offset="0" stop-color="#3c3c3c"/><stop offset="1" stop-color="#242424"/></linearGradient><path style="fill:url(#e)" d="M50 48 16 32V9l34 12v27z" transform="translate(-4 -2)"/><linearGradient id="f" gradientUnits="userSpaceOnUse" x1="57.02" y1="1.21" x2="111.43" y2="25.45"><stop offset=".62" stop-color="#0032a1"/><stop offset=".812" stop-color="#7793d2"/><stop offset=".974" stop-color="#0032a1"/></linearGradient><path style="fill:url(#f)" d="M47 44 19 30V13l28 9v22z" transform="translate(-4 -2)"/><linearGradient id="g" gradientUnits="userSpaceOnUse" x1="47.12" y1="-61.43" x2="36.73" y2="-59.88"><stop offset="0" stop-color="#a5a0a0"/><stop offset="1" stop-color="#474747"/></linearGradient><path style="fill:url(#g)" d="m52 57 3-3V17l-3 3v37z" transform="translate(-4 -2)"/><linearGradient id="h" gradientUnits="userSpaceOnUse" x1="111.38" y1="-24.02" x2="117.24" y2="4"><stop offset="0" stop-color="#fff"/><stop offset="1" stop-color="#d3d3d3"/></linearGradient><path style="fill:url(#h)" d="M16.93 5.43 14 7l38 13 3-3L16.93 5.43z" transform="translate(-4 -2)"/><path style="fill:#000" d="M30 41c-1.11 0-2 .89-2 2 0 1.1.89 3 2 3 1.1 0 2-.9 2-2 0-1.11-.9-3-2-3z" transform="translate(-4 -2)"/></svg>