<svg xmlns="http://www.w3.org/2000/svg" xmlns:xlink="http://www.w3.org/1999/xlink" height="167.608" width="194.39"><linearGradient id="a"><stop offset="0" stop-color="#fff68e"/><stop offset=".5" stop-color="#faea82"/><stop offset="1" stop-color="#d6aa4a"/></linearGradient><radialGradient id="m" cx="497.432" cy="348.199" gradientTransform="matrix(.39649 0 0 .77025 199.236 17.699)" gradientUnits="userSpaceOnUse" r="9.247" xlink:href="#a"/><radialGradient id="l" cx="488.701" cy="285.966" gradientTransform="matrix(.32864 0 0 .92928 199.236 17.699)" gradientUnits="userSpaceOnUse" r="7.616" xlink:href="#a"/><radialGradient id="k" cx="501.065" cy="394.906" gradientTransform="matrix(.46705 0 0 .65388 199.236 17.699)" gradientUnits="userSpaceOnUse" r="8.932" xlink:href="#a"/><radialGradient id="j" cx="338.417" cy="292.828" gradientTransform="matrix(.3594 0 0 .84976 199.236 17.699)" gradientUnits="userSpaceOnUse" r="7.609" xlink:href="#a"/><radialGradient id="i" cx="492.171" cy="412.908" gradientTransform="matrix(.55263 0 0 .55263 199.236 17.699)" gradientUnits="userSpaceOnUse" r="8.303" xlink:href="#a"/><radialGradient id="h" cx="178.34" cy="341.682" gradientTransform="matrix(.476 0 0 .64158 199.236 17.699)" gradientUnits="userSpaceOnUse" r="10.078" xlink:href="#a"/><radialGradient id="g" cx="509.232" cy="353.121" gradientTransform="matrix(.5475 0 0 .5578 199.236 17.699)" gradientUnits="userSpaceOnUse" r="248.781" xlink:href="#a"/><radialGradient id="f" cx="507.447" cy="320.435" gradientTransform="matrix(.5514 0 0 .55387 199.236 17.699)" gradientUnits="userSpaceOnUse" r="25.233" xlink:href="#a"/><radialGradient id="e" cx="429.496" cy="326.186" gradientTransform="matrix(.65364 0 0 .46723 199.236 17.699)" gradientUnits="userSpaceOnUse" r="23.596" xlink:href="#a"/><radialGradient id="d" cx="551.649" cy="183.26" gradientTransform="matrix(.52102 0 0 .58615 199.236 17.699)" gradientUnits="userSpaceOnUse" r="9.608" xlink:href="#a"/><radialGradient id="c" cx="364.332" cy="234.706" gradientTransform="matrix(.69902 0 0 .4369 199.236 17.699)" gradientUnits="userSpaceOnUse" r="21.186" xlink:href="#a"/><radialGradient id="b" cx="359.248" cy="159.949" gradientTransform="matrix(1 0 0 1.0475 0 -7.597)" gradientUnits="userSpaceOnUse" r="145.693"><stop offset="0" stop-color="#fff68e"/><stop offset=".731" stop-color="#eed26a"/><stop offset="1" stop-color="#d6aa4a"/></radialGradient><path d="M110.924 0c-1.64 3.81-1.18 8.256-2.375 12.216-.275.912-1.177 3.668-2.496 3.477-2.698-.39-1.3-5.572-4.413-5.676l.977 7.575c-4.677.587-4.039-6.715-5.938-9.681-2.19-3.423-2.718 1.553-2.572 3.084.094.98.292 1.953.41 2.932.204 1.703.252 3.185.037 4.886-4.469-.053-2.828-5.935-6.108-6.841l.245 7.085c-4.955-.041-7.214-4.514-9.39-8.307-.908-1.583-2.116-4.642-4.293-3.665 1.019 4.402 3.428 8.615 3.674 13.194.064 1.184-1.054 4.19-2.696 3.636-3.794-1.278-3.284-8.16-6.446-9.972-.639-.366-1.648-.046-2.35-.016.002 3.651 1.608 8.065 2.885 11.483.274.735 1.045 3.32-.556 3.272-2.863-.086-3.575-5.636-6.483-4.982.356 1.497 1.245 2.712 1.741 4.153.303.881.865 1.771 1.027 2.688.356 2.004-2.183 2.166-3.5 1.778-3.113-.918-5.349-3.462-7.575-5.687-.617-.617-2.245-2.788-3.272-1.803-1.142 1.096 1.101 3.022 1.737 3.757 1.902 2.198 3.96 4.773 4.868 7.574.39 1.204.467 2.914-.728 3.74-1.186.82-3.114-.668-4.07-1.297-2.93-1.928-5.842-5.296-9.53-5.375l-.863 2.2 2.351 3.176 6.087 6.84-7.086-2.931c.286 1.852 4.724 4.097 3.85 6.006-.518 1.131-3.085 1.15-4.094 1.006-3.613-.515-6.169-3.205-9.529-4.169-2.967-.85-2.415 1.45-.733 2.78.584.461 1.146.945 1.71 1.43a53.253 53.253 0 0 1 2.932 2.72c1.482 1.482 2.781 3.066 4.154 4.642l-7.086-.244v.488l6.842 3.177-1.222 4.886c-1.976-.005-3.577-.543-5.375-1.325-1.226-.533-2.516-1.419-3.91-1.32-1.663.116-2.652 1.635-1.538 3.054 1.671 2.128 5.018 3.34 7.157 4.998.816.633 1.998 1.714 1.075 2.795-1.823 2.133-6.736-.604-9.137.105v.489c2.228 1.3 6.797 2.043 8.109 4.44 1.025 1.876-1.89 6.126-3.955 5.96-1.84-.149-3.53-2.225-4.887-3.314-3.247-2.608-6.721-5.677-10.506-7.476C11.59 70.554 5.144 75.47 0 78.673c.658 2.076 3.255-.133 4.887.236 2.195.498 3.863 2.541 5.271 4.162 6.802 7.834 12.495 16.716 15.039 26.876.67 2.675 1.812 5.875-.187 8.272-.536.642-1.335.726-1.927 1.257-.442.396-.419.958.188 1.144 1.119.342 2.75-.178 3.85-.443 3.585-.864 7.68-2.799 9.308-6.32 1.013-2.192 1.37-6.454 3.885-7.33.556 2.348 3.197 5.454 2.94 7.818-.228 2.1-2.44 4.532-3.732 6.086-.458.55-1.563 1.758-.902 2.548.658.786 2.017-.907 2.427-1.295 1.854-1.75 5.907-4.516 7.007-.498.957 3.494-2.117 9.143-3.653 12.216-.427.855-2.395 3.528-1.626 4.481.885 1.1 2.739-1.764 3.134-2.282 1.54-2.017 6.933-7.994 9.797-5.846 3.495 2.62 2.29 4.493.966 8.045-.374 1-1.751 3.51-.815 4.461.907.92 2.097.078 2.56-.8.839-1.59 3.095-6.314 5.352-5.109 1.413.755 3.573 2.035 4.395 3.445 1.284 2.204.167 6.603-.175 8.998-.197 1.38-1.68 5.683-.449 6.68 1.137.92 2.056-1.848 2.398-2.526 1.204-2.39 2.588-4.838 4.38-6.842.643-.719 1.552-1.924 2.645-1.72 5.675 1.063-.123 6.716 2.206 9.602.471.584 1.75.542 2.436.67l2.932-7.574c1.491.574 3.684.773 4.784 2.007.924 1.036 1.106 2.787 1.373 4.1.747 3.68 1.157 7.258.684 10.996.465.334 1.197 1.109 1.82.711.79-.503.89-2.556 1.16-3.399.861-2.696 2.176-5.273 3.398-7.818.805-1.677 3-3.463 4.583-1.154 1.624 2.368.974 6.51 1.989 9.216 2.595-1.279 2.877-6.68 2.931-9.284l3.366.49 2.022 4.152 3.653 10.506c1.89-.723 1.291-4.358 1.503-6.108.288-2.372.838-7.137 2.577-8.902.701-.712 2.096-.772 3.005-1.115 1.037 2.528 1.606 5.395 2.86 7.814.49.943 1.605 1.96 2.733 1.382 1.08-.554 1.039-1.814.9-2.844-.34-2.532-.916-5.021-1.118-7.574 4.844-.342 7.685 3.574 10.729 6.841 1.176 1.263 2.2 2.935 3.93 3.42l-2.51-7.33-1.398-6.84c1.757-.736 5.477-4.331 7.33-3.807 2.759.78 4.867 8.468 8.292 6.66 1.461-.77.706-2.076.02-3.098-1.022-1.52-4.095-5.174-3.762-7.084.247-1.416 2.618-3.065 4-3.046 3.168.044 8.676 2.455 10.507 5l2.199-.245c-.33-4.374-6.885-6.37-7.823-10.75a3.276 3.276 0 0 1 .03-1.397c.696-2.808 2.385-1.581 4.128-.827.544.235 1.731.839 2.181.166.496-.741-.383-1.72-.705-2.34-.658-1.267-1.261-2.73-.987-4.154 2.282.597 3.691 1.955 5.62 3.238.455.303 1.46 1.063 2.036.64.605-.446-.288-1.345-.576-1.679-.86-.998-3.497-3.409-3.237-4.864.175-.983 1.833-2.035 2.509-2.71 2.234-2.23 4.778-4.503 6.597-7.085h.244c4.316 5.034 17.844 1.504 16.126-6.108-1.076.153-2.076 1-3.176.62-4.813-1.66-3.65-9.368-9.04-9.416-.398-5.025-2.417-10.048-4.853-14.415-1.117-2.003-3.44-3.835-4.25-5.874-.45-1.13-.374-2.923-.426-4.144 2.826-.44 1.433-3.301.404-4.886-1.147-1.767-2.36-3.862-3.848-5.353-1.828-1.83-4.55-3.024-4.316-6.13.219-2.894 5.204-2.526 6.05-5.132-1.479.064-2.94.43-4.398.673-3.63.605-4.263-.616-2.568-3.849 1.481-2.824 3.839-4.967 5.918-7.33.666-.756 2.719-2.478 1.661-3.573-.874-.905-2.316.476-3.057.967-2.697 1.788-5.708 3.11-8.796 4.066-.919.285-3.63 1.345-3.938-.284-.414-2.2 3.75-2.61 3.205-5.085-1.666.396-4.94 3.025-6.54 1.806-1.927-1.467.902-5.211 1.205-6.937.306-1.747-1.1-1.811-2.088-.718-.347.383-.661.801-.98 1.207-.553.702-1.011 1.382-1.37 2.199-4.001-2.336 3.57-5.05 2.145-7.213-.508-.77-1.445 0-1.9.4-.95.83-4.521 4.945-5.298 1.925-.86-3.34.876-7.353 1.774-10.505.235-.823 1.294-3.044.266-3.635-1.5-.863-2.158 2.048-2.51 2.902-1.082 2.629-2.871 4.914-4.983 6.799-.695.62-1.875 1.826-2.917 1.539-1.513-.417-1.518-4.612-1.47-5.894.022-.611.365-1.665-.231-2.107-.779-.578-1.185.58-1.301 1.13-.378 1.8-1.495 6.938-4.161 3.569-2.413-3.05 1.318-9.374-3.602-10.655l-2.688 8.551c-3.22-.703-2.506-5.308-1.71-7.818l-1.466-.489c-.23.997-.559 1.968-.902 2.932-1.302 3.655-3.042 4.366-4.386.244-1.025-3.146-.661-6.54-1.172-9.773-.203-1.289-.324-2.597-1.603-3.176z"/><path d="M389.042 30.214c-.246 11.919-3.845 20.849-17.103 20.857l4.588 18.773c-4.978-5.218-6.794-12.52-9.038-19.19-1.425-4.233-3.24-8.487-3.894-12.932h-.417c.156 7.531 1.744 15.004.23 22.527-.832 4.136-3.163 7.35-4.401 11.263h-.417l2.502-18.355c-9.312.736-17.352 2.147-23.455-6.674-1.325-1.917-2.349-4.112-3.243-6.258h-.417c1.046 6.98 7.262 15.125-.037 20.98-1.115.894-2.402 1.443-3.717 1.964l6.594 9.995 3.835 5.023c-10.554-6.99-16.832-19.163-22.11-30.453h-.417c1.346 8.985 6.807 17.107 8.165 26.281.472 3.188 1.707 7.697-1.073 10.012l-3.337-15.852c-4.86 2.52-8.599 10.1-15.018 9.03-2.73-.456-4.94-2.666-7.509-3.607 1.21 3.821 4.557 7.435 2.648 11.68-.706 1.57-2.085 2.775-3.065 4.172l13.35 5.006c-2.437 2.914-7.508.626-10.43-.744-5.538-2.596-10.467-6.026-15.434-9.564-2.823-2.01-6.145-4.877-9.595-5.544 2.125 4.556 7.578 8.417 11.263 11.751 3.047 2.757 5.323 5.944 7.893 9.107 2.53 3.115 5.838 6.63 4.622 10.846-4.437-4.474-8.312-7.726-15.018-6.16-2.434.569-4.487 1.999-7.091 1.934-4.638-.114-9.118-2.476-13.35-4.117 2.457 5.267 8.932 8.104 10.313 14.183 1.015 4.466-2.206 10.166-2.804 14.6l14.184 2.086v.834c-12.163 3.218-20.733-3.462-32.121-5.423v.418c7.68 3.633 16.386 9.771 21.863 16.269 1.992 2.363 4.434 5.107 4.417 8.343-2.24-1.816-6.475-6.56-9.594-6.081-2.488.381-3.31 3.143-3.64 5.246-.888 5.679-.949 11.777-.949 17.521-2.39-2.087-2.086-4.994-2.086-7.926-2.968 1.955-6.174 4.407-10.011 3.638-3.882-.778-7.748-5.559-10.43-8.226-5.297-5.27-11.17-10.468-18.771-11.504-3.965-.54-15.97.018-10.604 6.072.553.624 1.107 1.273 1.86 1.665 2.825 1.473 8.853-.405 12.08-.405v.417l-10.428 2.086c4.19 8.781 13.263.909 18.355 6.257-3.479-1.028-9.453-1.028-12.932 0l5.828 7.509 2.678 3.503 9.849 1.086v.417h-8.76c.517 4.594 5.83 3.343 9.177 2.92v.417l-7.092 1.251c1.114 2.586 3.836 10.252 6.42 11.428 2.023.919 4.834-.858 6.512-1.833-2.303 4.199-6.419 2.506-4.171 8.343l6.674-3.337c-1.487 1.677-3.988 3.004-4.992 5.012-1.16 2.317.798 6.516 1.655 8.754l6.674-5.006-6.352 7.13.512 7.47c5.592-2.328 10.123-6.46 12.509-12.097.99-2.338 1.093-5.265 2.272-7.453.863-1.6 3.355-1.342 3.857-3.07.96-3.31-1.083-5.997.551-9.5h.418l1.251 6.674c4.214-1.183 6.725-7.81 7.926-11.68h.834c1.164 5.352-3.68 8.82-5.423 13.349 2.945.681 8.241 2.11 7.926 5.84l-10.429-3.754 7.926 17.52h.418c3.816-5.767 7.503-14.94 12.931-19.19 1.896 6.154-4.672 11.156-7.091 16.27 3.577-.978 10.063-5.781 13.349-3.754-4.597 1.914-8.682 4.672-12.059 8.343-1.11 1.207-3.143 3.234-3.119 5.006.025 1.812 2.253 4.004 3.257 5.423 3.646 5.15 8.053 10.57 13.59 13.766 2.265-4.307 4.18-8.614 5.37-13.35.545-2.173.458-5.1 2.555-6.257 2.042 11.51-6.19 24.196-8.76 35.042 7.842-6.651 12.578-17.405 22.526-21.693-.228 5.363-8.85 8.202-9.312 14.178-.162 2.096 2.444 3.187 3.89 4.188 4.045 2.802 7.468 5.918 12.097 7.79 1.665.673 3.238 2.088 4.785.473 2.812-2.936 3.053-8.643 2.605-12.445-.285-2.408-1.285-6.09.536-7.926l2.904 17.103-1.653 20.024h.418c3.9-9.911 7.355-20.683 15.017-28.367.046 5.227-5.868 12.58-7.926 17.52 7.823 3.66 16.99 5.87 25.447 7.51.662-5.24.469-10.305-.9-15.435-.612-2.298-2.623-5.37-1.186-7.51 5.174 11.135 10.838 22.428 10.846 35.042h.417c.005-7.65 1.339-15.453 2.837-22.944.274-1.368.668-7.005 2.6-7.005 2.11 0 1.284 3.377 1.075 4.502-.949 5.121-2.101 10.27-2.757 15.435l17.937-.448 6.246-1.113-.167-6.365-8.582-15.017c3.264-.745 6.488 5.064 8.004 7.508 5.524 8.91 9.246 20.265 11.603 30.453h.417c-1.09-13.789-4.684-26.512-2.92-40.464 4.06 1.63 1.872 11.903 2.385 15.852.165 1.27-.025 4.59 1.501 5.094 1.428.471 3.93-.758 5.291-1.202 4.91-1.6 9.498-3.909 14.184-6.052 1.79-.82 4.327-1.82 4.455-4.1.452-8.035-6.776-10.319-11.547-14.598 4.21-.438 7.283 2.324 10.429 4.766 4.698 3.647 9.326 7.787 13.166 12.337 2.212 2.622 3.85 6.14 6.44 8.343-1.427-4.48-4.868-8.688-6.988-12.931-4.11-8.225-7.284-17.134-8.447-26.281h.418l7.926 20.858c4.308-1.465 7.805-6.583 10.59-10.012 1.254-1.542 2.806-2.962 2.759-5.006 7.003-2.519-1.977-8.076-3.338-10.429 4.85-.729 9.214 3.964 13.766 5.006-2.029-4.348-5.559-10.029-4.588-15.018h.834l2.92 8.343c7.308-6.756 15.96-13.689 21.4-22.109 7.683-11.891 7.634-26.93 2.26-39.63-1.472-3.477-2.874-8.408-5.468-11.201-3.692-3.975-6.887 2.715-7.346 5.778 1.814.272 3.473.882 5.004 1.919 5.657 3.829 5.949 10.54 3.567 16.436-1.009 2.5-2.879 4.734-3.059 7.509-.223 3.437 1.626 6.703 2.22 10.012.987 5.492-1.701 11.34-5.646 14.978-3.66 3.376-8.79 5.238-13.766 4.502-2.302-.34-4.75-2.513-7.09-1.648-3.67 1.356-4.383 6.908-6.676 9.7-1.035-6.272 3.726-9.883 4.72-15.435.517-2.887-1.597-7.667-2.497-10.429-.712-2.185-1.812-8.332-5.139-7.08-2.148.81-3.227 3.249-4.487 4.994-2.971 4.12-5.674 9.164-10.952 10.43 1.94-5.007 7.198-9.196 10.14-13.767 5.837-9.067 12.027-24.396 4.298-34.206-2.33-2.956-6.068-5.045-9.432-6.625-4.63-2.174-9.723-2.85-14.6-4.222v-.834l5.84-.834-1.252-9.178-3.755 1.252c.043-15.273 15.328-23.605 25.864-31.704l-1.926 5.423 5.2 7.926 10.492 16.269-4.171-.417c.804 5.975 2.232 11.573.125 17.52-1.354 3.823-4.684 7.01-5.693 10.846-.509 1.935.418 3.896.42 5.84.003 2.713-.929 5.319-1.527 7.927 7.472-3.556 8.9-14.457 16.687-17.104-.636-3.692-2.204-7.025-2.466-10.846-.565-8.243 1.064-16.392-.22-24.612-1.406-8.996-5.322-17.056-8.578-25.447l3.755 1.669c.864-5.77 5.619-8.889 8.76-13.349-4.823 1.755-12.23 7.734-17.52 4.585-3.649-2.172-4.973-6.953-8.76-8.757l-5.007 20.024h-.417c-2.2-9.245 2.526-17.99 4.589-26.698-6.357 5.142-10.797 11.63-19.606 12.932l12.097-8.798 2.776-4.061-3.61-3.12-9.178-6.548 4.172.835 1.668-13.35h-.417a24.744 24.744 0 0 1-3.374 4.59c-1.725 1.86-3.987 4.838-6.46 5.688-4.853 1.668-11.555-3.983-16.03-5.272v19.19c-4.261-.712-3.707-5.015-3.752-8.76-.099-8.247-.356-16.36-.002-24.613h-.417c-1.249 9.274-4.29 22.49-13.35 27.115 2.594-4.163 5.06-7.72 6.434-12.514.405-1.413 1.591-3.827.102-4.948-4.204-3.165-10.651-.46-14.105-5.488-3.395-4.94-1.167-11.236-3.276-16.262z" fill="url(#b)" style="fill:url(#b)" transform="matrix(.5857 0 0 .5857 -116.692 -10.366)"/><path d="m96.265 12.46.244.245zm-.245.734.245.244z" fill="#0f0d06"/><path d="m125.34 14.17.244.245z" fill="#0e0b05"/><path d="m109.947 14.66.244.244z" fill="#0f0d06"/><path d="m125.095 15.148.245.245z" fill="#0d0b05"/><path d="m109.703 15.393.244.244z" fill="#0f0d06"/><path d="m69.389 17.347.244.245z" fill="#fff"/><path d="m108.481 17.347.244.245zm-.244.245.244.244zm5.62.244.244.244zm-33.474.244.245.245zm33.962 0 .244.245zm-44.223.245.244.244zm11.972 0 .244.244zm32.74 0 .244.244z" fill="#0f0d06"/><path d="m82.827 19.057.244.245zm21.99 0 .243.245z" fill="#0f0e07"/><path d="m143.42 19.057.244.245z" fill="#0d0b05"/><path d="m143.257 19.465.081.163z" fill="#fff"/><path d="m70.122 19.546.244.244zm50.087 0 .244.244z" fill="#0f0d06"/><path d="m80.872 20.523.244.245z" fill="#0f0e07"/><path d="m142.931 20.523.244.245z" fill="#0e0b05"/><path d="m71.343 22.722.245.245zm1.222 0 .244.245zm.244.489.245.244z" fill="#0f0e07"/><path d="m108.97 24.188-3.91 17.592c3.012-1.836 3.648-8.526 3.91-11.728h.244c.523 2.817.777 5.64 1.924 8.307.454 1.057.952 2.464 2.23 2.444l-3.129-10.995z"/><path d="m100.174 24.433.244.244zm-20.768.488.244.245zm-1.221.978.244.244zm-1.222.488.244.245zm31.274.733.244.245z" fill="#0f0e07"/><path d="M85.026 27.365c.051 6.247 3.14 11.933 1.954 18.324 1.172-.717 1.206-2.39 1.22-3.665.036-2.956-.479-5.853-.487-8.796h.245c.85 2.953 3.158 8.825 6.596 9.285-.412-1.588-1.711-2.789-2.58-4.154-1.933-3.033-3.825-9.153-6.948-10.994z"/><path d="m75.253 27.609.244.244z" fill="#0f0e07"/><path d="m85.514 27.609.245.244z" fill="#0f0e08"/><path d="m118.987 27.853.244.245z" fill="#0f0d06"/><path d="m107.992 28.342.245.244zm11.972 0 .245.244z" fill="#0f0e07"/><path d="m140.732 28.342.244.244z" fill="#0f0d06"/><path d="m119.72 28.586.244.245zm-1.466.245.244.244zm1.222 0 .244.244z" fill="#0f0e07"/><path d="m86.492 29.075.244.244zm16.125.244.245.245z" fill="#0f0e08"/><path d="m142.198 29.32.244.244z" fill="#0d0b05"/><path d="m118.254 29.808.244.244z" fill="#0f0e07"/><path d="M135.113 30.052c-2.717 4.266-5.955 10.087-10.018 13.194v.244c3.081-.55 6.41-4.442 7.33-7.33h.244c-.036 4.346-2.033 8.954-.244 13.194h.244c1.3-4.398.623-9.587 1.742-14.171.351-1.438 1.645-3.834.702-5.13z"/><path d="m72.076 30.54.245.245z" fill="#0f0e07"/><path d="m87.469 30.785.244.244zm-13.438.489.244.244zm-1.71.244.244.244zm5.62 0 .244.244zm32.495 0 .244.244zm-1.955.489.244.244z" fill="#0f0e08"/><path d="m135.113 32.007.244.244z" fill="#0f0d06"/><path d="m150.017 32.251.244.244zm-91.623.244.244.245z" fill="#fff"/><path d="m88.446 32.495.245.245z" fill="#0f0e08"/><path d="m150.017 32.495.244.245z" fill="#0e0b05"/><path d="m133.158 32.984.244.244z" fill="#0f0e07"/><path d="m79.895 33.473.244.244z" fill="#0f0e08"/><path d="m125.828 33.473.245.244z" fill="#0f0e07"/><path d="m82.094 33.961.244.245z" fill="#0e0d08"/><path d="m82.338 34.206.244.244z" fill="#0f0e08"/><path d="m132.18 34.206.245.244z" fill="#0f0e07"/><path d="m82.582 34.45.245.244z" fill="#010101"/><path d="m62.548 34.694.244.245z" fill="#0f0e07"/><path d="m148.062 34.694.244.245zm-.244.245.244.244zm-102.129.488.244.245z" fill="#0f0d06"/><path d="m59.86 35.427.244.245z" fill="#0f0e07"/><path d="m88.935 35.672.244.244z" fill="#0e0d08"/><path d="m132.67 35.916.244.244z" fill="#0f0e07"/><path d="m144.397 35.916.244.244z" fill="#0f0d06"/><path d="m146.84 35.916.245.244z" fill="#0e0b05"/><path d="m132.425 36.16.244.245z" fill="#0f0e07"/><path d="m86.736 37.138.244.244z" fill="#0e0d08"/><path d="m148.306 37.382.245.244z" fill="#0f0d06"/><path d="m87.958 37.87.244.245z" fill="#0e0d08"/><path d="m141.22 38.115.245.244z" fill="#0e0b05"/><path d="m91.867 38.36.244.244z" fill="#0e0d08"/><path d="m152.704 38.848.244.244z" fill="#0f0d06"/><path d="m165.898 38.848.244.244z" fill="#fff"/><path d="m92.355 39.092.245.245z" fill="#0e0d08"/><path d="m130.47 39.092.245.245z" fill="#0f0e07"/><path d="m165.898 39.092.244.245z" fill="#0e0b05"/><path d="m164.92 39.337.245.244zm.733 0 .245.244z" fill="#0d0b05"/><path d="m129.982 39.58.244.245z" fill="#0f0e07"/><path d="m165.41 39.58.243.245z" fill="#0e0b05"/><path d="m91.134 39.825.244.245z" fill="#0e0d08"/><path d="M118.987 39.825c-1.442 3.255-2.147 6.278-5.13 8.552v.488c2.144.565 3.638-2.127 4.153-3.909h.244c.212 1.642.412 5.055 2.199 5.62l-1.2-5.62z"/><path d="m153.437 39.825.244.245z" fill="#0f0d06"/><path d="m165.165 39.825.244.245z" fill="#0d0b05"/><path d="M66.701 40.07c.528 6.01 8.611 10.071 7.574 16.614 1.3-.76.958-2.176.522-3.42-.902-2.576-2.412-4.828-3.454-7.33 2.338 2.133 5.793 4.546 9.04 3.176l-5.127-2.125z"/><path d="m164.92 40.07.245.244z" fill="#0e0b05"/><path d="m164.676 40.314.244.244z" fill="#0d0b05"/><path d="m149.284 40.558.244.245z" fill="#0f0d06"/><path d="m162.477 40.558.245.245z" fill="#0d0b05"/><path d="m164.432 40.558.244.245z" fill="#0e0b05"/><path d="m91.867 40.803.244.244z" fill="#0e0d08"/><path d="m129.004 40.803.245.244z" fill="#0f0e07"/><path d="m164.187 40.803.245.244z" fill="#0d0b05"/><path d="m66.701 41.047.244.244zm62.06 0 .243.244z" fill="#0f0e08"/><path d="m163.943 41.047.244.244z" fill="#0e0b05"/><path d="m68.411 41.291.245.245z" fill="#0f0e07"/><path d="m163.699 41.291.244.245z" fill="#0d0b05"/><path d="m54.73 41.536.243.244z" fill="#0f0e07"/><path d="m128.271 41.536.245.244zm-.244.244.244.244z" fill="#0f0e08"/><path d="m51.553 42.024.244.245z" fill="#0f0e07"/><path d="m93.088 42.024.245.245z" fill="#0e0d08"/><path d="M100.418 42.024c-.739 2.432-2.813 7.18-1.954 9.529h.488l1.71-5.864h.245c.604 2.212 1.236 5.566 3.91 5.864l-3.91-9.529z"/><path d="m51.797 42.269.245.244z" fill="#0f0e08"/><path d="m162.722 42.269.244.244z" fill="#0d0b05"/><path d="m52.042 42.513.244.244z" fill="#0f0e07"/><path d="m59.86 42.513.244.244zm65.968 0 .245.244z" fill="#0f0e08"/><path d="m52.286 42.757.244.245z" fill="#0f0e07"/><path d="m56.684 42.757.244.245z" fill="#0f0e08"/><path d="m117.765 42.757.245.245zm1.466 0 .245.245z" fill="#0e0d08"/><path d="m125.584 42.757.244.245z" fill="#0f0e08"/><path d="m52.53 43.002.245.244z" fill="#0f0e07"/><path d="m125.34 43.002.244.244zm-54.485.488.244.244z" fill="#0e0d08"/><path d="m131.692 43.49.244.244z" fill="#0f0e08"/><path d="m68.411 44.223.245.244zm48.621.244.245.245z" fill="#0e0d08"/><path d="m60.593 44.712.244.244zm-6.108.244.244.244z" fill="#0f0e08"/><path d="m72.565 44.956.244.244zm14.415 0 .245.244z" fill="#0e0d08"/><path d="m148.306 44.956.245.244z" fill="#0f0d06"/><path d="m87.469 45.445.244.244zm13.194.244.244.244zm17.591 0 .244.244zm-48.132.977.244.245z" fill="#0e0d08"/><path d="m160.278 46.666.245.245z" fill="#0d0b05"/><path d="m73.298 47.4.244.244z" fill="#0e0d08"/><path d="m159.057 47.4.244.244z" fill="#0d0b05"/><path d="m70.855 47.644.244.244zm45.2.244.244.244z" fill="#0e0d08"/><path d="m84.048 48.132 1.222 10.262h.489l-.245-7.33c1.594 1.11 3.75 3.844 5.864 2.932-.816-.884-1.998-1.039-2.93-1.794-1.517-1.227-2.317-3.905-4.4-4.07z"/><path d="m72.565 48.621.244.244zm41.291.244.245.245zm-42.024.245.244.244zm26.387 0 .245.244z" fill="#0e0d08"/><path d="m132.18 49.11.245.244zm.49 0 .244.244z" fill="#0f0e08"/><path d="M137.8 49.598c-2.577 2.585-4.73 4.36-8.307 5.376v.488c2.116.608 4.163-.566 5.864-1.71-.278 1.434-2.108 5.19-.733 6.108l2.346-7.085z"/><path d="m86.247 49.843.245.244zm-27.853.244.244.244zm39.337 0 .244.244zm22.722 0 .244.244z" fill="#0e0d08"/><path d="m137.067 50.087.245.244z" fill="#0f0d06"/><path d="m41.78 50.576.244.244z" fill="#0f0e07"/><path d="m104.083 50.576.244.244z" fill="#0e0d08"/><path d="m54.973 50.82.245.244z" fill="#0f0e08"/><path d="m160.523 50.82.244.244z" fill="#0d0b05"/><path d="m72.81 51.064.244.245zm.977 0 .244.245zm25.165 0 .245.245zm-42.513.245.245.244z" fill="#0e0d08"/><path d="m135.601 51.797.245.245zm1.466.245.245.244z" fill="#0f0e08"/><path d="m152.46 52.042.244.244z" fill="#0f0d06"/><path d="m41.047 52.286.244.244z" fill="#010101"/><path d="m87.469 52.53.244.245zm-12.95.245.245.244zm14.66 0 .245.244z" fill="#0e0d08"/><path d="m41.78 53.019.244.244z" fill="#0f0e07"/><path d="m133.891 53.019.244.244z" fill="#0f0e08"/><path d="m88.446 53.263.245.245zm2.688.245.244.244z" fill="#0e0d08"/><path d="m134.868 53.752.245.244z" fill="#0f0e08"/><path d="m89.668 53.996.244.245zm.489.245.244.244zm41.29 0 .245.244z" fill="#0e0d08"/><path d="m147.085 54.24.244.245zM43 54.486l.245.244z" fill="#0f0e07"/><path d="M439.1 129.497c9.545-2.299 19.982-3.657 29.619-1.669-1.436-4.983-5.156-9.076-8.456-12.932-1.129-1.318-2.567-3.757-4.478-3.901-2.263-.172-4.238 2.01-5.838 3.271-4.686 3.692-8.725 9.625-10.846 15.23z" fill="url(#c)" style="fill:url(#c)" transform="matrix(.5857 0 0 .5857 -116.692 -10.366)"/><path d="m132.914 54.974.244.244z" fill="#0e0d08"/><path d="m146.107 54.974.245.244z" fill="#0f0e07"/><path d="m96.02 55.218-1.466 7.574c1.227-.93 1.511-3.895 1.71-5.375l2.2 2.443c-.257-1.647-1.22-3.51-2.444-4.642z"/><path d="m129.493 55.462.244.244z" fill="#0e0d08"/><path d="m134.868 55.462.245.244zm16.859.244.244.245z" fill="#0f0e08"/><path d="m119.964 55.95-4.642 4.643 4.398-3.176.733 4.398c.854-1.253.407-4.684-.489-5.864m-51.797.733v.244c2.06 2.078 3.754 4.94 5.04 7.574.707 1.45.507 3.049 2.046 3.91-.123-2.857-1.344-5.023-2.444-7.575 1.73 1.01 4.05 2.52 6.109 1.955v-.489c-2.773-1.232-4.92-2.28-7.33-4.2-1.027-.818-2.078-1.876-3.42-1.42z"/><path d="m146.84 56.44.245.244zm-49.598.488.244.244zm-28.83.244.244.245zm29.074.245.245.244z" fill="#0e0d08"/><path d="m153.193 57.417.244.244z" fill="#0f0e08"/><path d="m96.753 57.661.245.244z" fill="#0e0d08"/><path d="m143.42 57.661.244.244z" fill="#0f0e08"/><path d="m155.636 57.661.244.244z" fill="#0f0d06"/><path d="m44.712 57.905.244.245z" fill="#0f0e08"/><path d="m117.765 57.905.245.245zm1.955 0 .244.245zm14.415 0 .245.245zm-62.547.245.244.244zm24.432 0 .245.244z" fill="#0e0d08"/><path d="m162.966 58.15.244.244z" fill="#0f0d06"/><path d="m144.641 58.394.245.244z" fill="#0f0e08"/><path d="m118.01 58.638.244.245z" fill="#0e0d08"/><path d="M51.797 58.883c.23 2.06 1.916 2.83 3.42 3.967 2.066 1.562 3.985 3.253 5.563 5.317 1.027 1.344 1.66 3.668 2.99 4.642-.287-3.592-2.406-7.82-5.865-9.284v-.244c3.517.682 7.019 1.989 10.506.488v-.488l-4.153-.164z"/><path d="m69.877 58.883.245.244zm46.422.244.245.244zm18.325 0 .244.244zm-61.57.244.244.245zm43.001 0 .244.245z" fill="#0e0d08"/><path d="m156.858 59.371.244.245z" fill="#0f0d06"/><path d="m141.71 59.616.244.244z" fill="#0f0e08"/><path d="m481.65 119.485.835 10.012 9.177 1.251c-1.536-4.052-5.919-9.676-10.011-11.263z" fill="url(#d)" style="fill:url(#d)" transform="matrix(.5857 0 0 .5857 -116.692 -10.366)"/><path d="m98.464 59.86.244.244z" fill="#0e0d08"/><path d="m106.282 59.86-2.199 4.154 2.443-2.688 1.466 2.443z"/><path d="m134.38 59.86.244.244z" fill="#0e0d08"/><path d="m165.41 59.86.243.244z" fill="#0d0b05"/><path d="m70.61 60.104.245.245zm3.421 0 .244.245z" fill="#0e0d08"/><path d="m155.392 60.104.244.245z" fill="#0f0d06"/><path d="m44.223 60.349.244.244z" fill="#0f0e08"/><path d="m105.55 60.593.243.244zm-30.297.244.244.245zm-1.466.489.244.244zm46.91 0 .245.244zm46.911 0 .244.244zm-61.082.244.245.245zm61.326 0 .245.245zm-108.236.245.244.244zm108.48 0 .245.244zm-113.855.244.244.244zm53.263 0 .244.244z" fill="#0e0d08"/><path d="m43.734 62.548.245.244z" fill="#0f0e08"/><path d="m54.973 62.548.245.244z" fill="#0e0d08"/><path d="m141.954 62.548.244.244z" fill="#0d0b05"/><path d="m94.799 62.792.244.244zm10.261.244.245.245z" fill="#0e0d08"/><path d="m43.49 63.525.244.244z" fill="#0f0e08"/><path d="m59.616 63.525.244.244zm14.415 0 .244.244zm-1.222.244.245.245z" fill="#0e0d08"/><path d="m141.22 63.77.245.244z" fill="#0d0b05"/><path d="m151.727 63.77.244.244z" fill="#0f0e08"/><path d="m156.125 64.014.244.244z" fill="#0d0b05"/><path d="m57.417 64.502.244.245zm15.881.245.244.244z" fill="#0e0d08"/><path d="m170.784 65.235.245.245z" fill="#0d0b05"/><path d="m129.737 65.724-4.153 3.176 3.665-1.954-.489 2.931c1.04-.724 1.427-3.002.977-4.153z"/><path d="M154.17 80.383c1.853-.883 2.74-2.994 3.241-4.886.616-2.329 1.416-8.47-1.541-9.626-1.627-.636-4.345.097-6.098.097-1.587 0-4.974-.242-6.205.942-1.136 1.092-.287 5.211.55 6.32.869 1.154 2.937 1.382 4.19 1.97 2.497 1.17 4.506 2.749 5.863 5.183z" fill="#fff"/><path d="m161.011 65.968.245.245z" fill="#0f0d06"/><path d="m169.807 65.968.244.245zm1.466 0-.244.489z" fill="#0d0b05"/><path d="m156.613 66.213.245.244z" fill="#020202"/><path d="m171.273 66.213.244.244z" fill="#fff"/><path d="m44.712 66.457.244.244z" fill="#0f0e08"/><path d="m128.271 66.457.245.244z" fill="#0e0d08"/><path d="m38.115 66.701.244.245z" fill="#0f0e07"/><path d="m143.175 66.701.245.245zm13.683 0 .244.245zm-81.85.245.245.244zm53.996 0 .245.244z" fill="#0e0d08"/><path d="m39.58 67.19.245.244z" fill="#0f0e08"/><path d="m127.05 67.19.244.244z" fill="#0e0d08"/><path d="m157.102 67.19.244.244z" fill="#020202"/><path d="M165.41 67.19v2.199c4.43-1.602 5.433 4.879.732 4.642l.977 5.62c3.274-1.528 4.782-8.896 2.094-11.65-.811-.831-2.705-.724-3.804-.811z" fill="#fff"/><path d="m36.649 67.434.244.244z" fill="#0f0e07"/><path d="m62.059 67.678.244.245zm65.724 0 .244.245zm12.216 0 .244.245z" fill="#0e0d08"/><path d="m157.346 67.678.245.245zm11.728 0 .244.245z" fill="#020202"/><path d="m37.382 67.923.244.244z" fill="#0f0e07"/><path d="m139.51 67.923.245.244zm-64.746.244.244.244z" fill="#0e0d08"/><path d="M152.948 68.167c-.5.515-1.23.889-1.598 1.518-2.582 4.415 7.177 4.53 4.42-.245-.315-.543-.872-.897-1.356-1.273l-1.466.733z"/><path d="M153.193 68.167v.244h.977z" fill="#020202"/><path d="m157.59 68.167.245.244z" fill="#010101"/><path d="m38.115 68.411.244.245z" fill="#0f0e07"/><path d="m152.297 68.574.081.163z" fill="#020202"/><path d="m152.623 68.493.163.081zm.325.163v.244l1.222-.244z" fill="#010101"/><path d="m154.659 68.411.244.245z" fill="#020202"/><path d="m151.971 68.656.245.244z" fill="#010101"/><path d="m155.147 68.656.245.244z" fill="#050505"/><path d="m38.848 68.9.244.244z" fill="#0f0e07"/><path d="m151.727 68.9.244.244z" fill="#010101"/><path d="m166.142 68.9.733.489v-.245z" fill="#020202"/><path d="m166.386 68.9.245.244z" fill="#050505"/><path d="m166.63 68.9.245.244z" fill="#010101"/><path d="m167.12 68.9.244.244z" fill="#020202"/><path d="m167.364 68.9.244.244z" fill="#010101"/><path d="m62.792 69.144.244.245z" fill="#0e0d08"/><path d="M101.64 69.144c0 1.245-.24 2.506.977 3.177v-2.444l2.932.978z"/><path d="m102.129 69.144.244.245z" fill="#0e0d08"/><path d="m165.653 69.144.245.245z" fill="#020202"/><path d="m165.898 69.144.488.49v-.49zm1.221 0 .245.245z" fill="#010101"/><path d="m102.862 69.389.244.244z" fill="#0e0d08"/><path d="m151.238 69.389.245.244z" fill="#010101"/><path d="m164.92 69.389.245.244z" fill="#0f0e08"/><path d="m165.165 69.389.244.244z" fill="#050505"/><path d="m116.544 72.565 1.221-2.199 1.466.977c-1.073-2.873-2.67-.815-2.687 1.222z"/><path d="m155.88 69.633.245.244zm9.04 0 .245.244z" fill="#010101"/><path d="M86.98 69.877c.432 1.578 1.11 2.925 2.444 3.91l-1.466-3.177 2.932.245c-.757-1.373-2.53-.978-3.91-.978z"/><path d="m90.4 69.877.245.245zm12.217 0 .245.245z" fill="#0e0d08"/><path d="m164.676 69.877.244.245z" fill="#fff"/><path d="m40.558 70.122.245.244z" fill="#0f0e08"/><path d="m118.498 70.122.245.244z" fill="#0e0d08"/><path d="m164.432 70.122.244.244z" fill="#fff"/><path d="m103.594 70.366.245.244z" fill="#0e0d08"/><path d="m74.52 71.343 3.42 4.154-1.954-3.42 2.932-.49-.245-.977z"/><path d="m87.958 70.61.244.245z" fill="#0e0d08"/><path d="m156.125 70.61.244.245z" fill="#050505"/><path d="M164.187 70.61v.733h.245z" fill="#fff"/><path d="m87.225 70.855.244.244z" fill="#0e0d08"/><path d="m164.187 71.343.245.245z" fill="#050505"/><path d="m63.525 71.588.244.244zm10.995 0 .244.244z" fill="#0e0d08"/><path d="M164.187 71.588v.733h.245z" fill="#fff"/><path d="m155.717 71.995.082.163zm13.601-.163.245.244z" fill="#010101"/><path d="m63.036 72.076.245.245zm38.848 0 .245.245zm-58.638.245.244.244zm44.712 0 .244.244z" fill="#0e0d08"/><path d="m151.483 72.32.244.245z" fill="#050505"/><path d="m43.49 72.565.244.244z" fill="#0f0e08"/><path d="m164.432 72.565.244.244z" fill="#fff"/><path d="m154.903 72.81.244.244z" fill="#010101"/><path d="m164.432 72.81.244.244z" fill="#050505"/><path d="m152.46 73.054.244.244z" fill="#020202"/><path d="m152.704 73.054.244.244zm1.63.081.162.082z" fill="#010101"/><path d="m164.676 73.054.244.244z" fill="#fff"/><path d="m168.667 73.217.081.162z" fill="#010101"/><path d="m168.83 73.054.244.244z" fill="#050505"/><path d="m44.223 73.298.244.244z" fill="#010101"/><path d="m153.437 73.298.244.244z" fill="#050505"/><path d="m164.92 73.298.245.244z" fill="#fff"/><path d="m144.153 73.542.244.245z" fill="#010101"/><path d="m165.165 73.542.244.245z" fill="#fff"/><path d="m165.653 73.542.245.245z" fill="#010101"/><path d="M49.843 78.185v.488l7.085 2.443c-.144-1.856-2.545-2.41-4.153-2.687l4.886-4.398c-2.597-.305-5.714 2.86-7.818 4.154z"/><path d="m165.41 73.787.243.244z" fill="#050505"/><path d="m165.653 73.787.245.244z" fill="#fff"/><path d="m165.898 73.787.244.244z" fill="#020202"/><path d="M166.875 73.787v.244h.733z" fill="#010101"/><path d="m44.956 74.031.244.244z" fill="#0f0e08"/><path d="m157.59 74.031.245.244zm9.285 0 .244.244z" fill="#0e0d08"/><path d="m146.107 74.275.245.245z" fill="#010101"/><path d="M60.104 77.207v.489l5.376 1.931 3.176 2.222c-.348-2.594-3.101-3.03-4.887-4.397 2.27-.428 5.35-.464 6.353-2.932z"/><path d="m141.465 74.764.244.244z" fill="#0e0d08"/><path d="m147.329 74.764.244.244z" fill="#010101"/><path d="m54.485 75.008.244.245zm13.682.245.244.244zm1.466 0 .244.244zm100.418 0 .245.244zm-123.873.244.244.244z" fill="#0e0d08"/><path d="m170.051 75.497.245.244z" fill="#020202"/><path d="m53.263 75.741.245.245zm15.881 0 .245.245zm87.958.245.244.244zm9.284 0 .245.244zM52.53 76.23l.245.244z" fill="#0e0d08"/><path d="m159.545 76.23.245.244zm-139.51.489.244.244z" fill="#0f0d06"/><path d="m166.386 76.719.245.244z" fill="#010101"/><path d="m45.2 77.207.245.245z" fill="#0e0d08"/><path d="m94.554 78.918.733-1.71c-1.04.165-1.858.969-.733 1.71z"/><path d="m50.82 77.452.244.244z" fill="#0e0d08"/><path d="m21.5 77.696.245.244z" fill="#0f0d06"/><path d="m148.795 77.696.244.244z" fill="#0f0e08"/><path d="m64.258 77.94.244.245z" fill="#0e0d08"/><path d="m166.63 77.94.245.245z" fill="#010101"/><path d="m45.933 78.185.245.244z" fill="#0e0d08"/><path d="m149.528 78.185.244.244z" fill="#0f0e07"/><path d="m156.125 78.185.244.244z" fill="#0e0d08"/><path d="m9.04 78.429.244.244z" fill="#0e0b05"/><path d="m22.478 78.429.244.244z" fill="#0f0d06"/><path d="m40.07 78.429.244.244z" fill="#0f0e08"/><path d="m168.585 78.429.245.244z" fill="#020202"/><path d="m65.968 78.673.244.245z" fill="#0e0d08"/><path d="m103.35 78.673-.244 1.71c.764-.447.894-.848.733-1.71z"/><path d="m103.839 78.673.244.245z" fill="#0e0d08"/><path d="m113.612 80.383.733-1.71c-.948.275-1.734.956-.733 1.71z"/><path d="m155.88 78.673.245.245z" fill="#010101"/><path d="m168.341 78.673.244.245z" fill="#020202"/><path d="m64.747 79.162.244.244z" fill="#0e0d08"/><path d="m153.437 79.162.244.244z" fill="#010101"/><path d="m158.324 79.162.244.244z" fill="#0f0e07"/><path d="m167.852 79.162.245.244zm-.244.244.244.245z" fill="#010101"/><path d="m67.434 79.65.244.245z" fill="#0e0d08"/><path d="m24.188 79.895.245.244z" fill="#0f0d06"/><path d="m153.926 79.895.244.244z" fill="#0e0d08"/><path d="m14.17 80.14.245.243z" fill="#0e0b05"/><path d="m103.594 80.14.245.243zm9.53 0 .244.243z" fill="#0e0d08"/><path d="M120.942 81.85v.977l2.443-1.71z"/><path d="m67.678 81.36.245.245zm54.241 0 .244.245zm1.222 0 .244.245z" fill="#0e0d08"/><path d="M132.67 81.36v2.933c.917-.899.917-2.034 0-2.932z"/><path d="m165.165 81.36.244.245z" fill="#0f0d06"/><path d="m175.182 81.36.245.245z" fill="#0d0b05"/><path d="m121.675 81.605.244.244zm1.221 0 .245.244zm9.53 0 .243.244z" fill="#0e0d08"/><path d="m156.858 81.605.244.244z" fill="#0f0e07"/><path d="m163.943 81.85.244.244z" fill="#0f0d06"/><path d="m121.43 82.582.245.245zm-34.938.245.244.244z" fill="#0e0d08"/><path d="m84.537 86.247 2.932.733-1.627-1.568.894-2.34c-1.178.61-1.9 1.903-2.199 3.175z"/><path d="m165.41 83.071.243.244z" fill="#0e0d05"/><path d="M464.547 177.887v.417c10.497 1.327 15.224-3.69 22.944-9.594-1.109 2.987-6.615 6.822-6.47 9.594.156 2.968 4.823 3.242 6.887 2.424 3.943-1.563 6.436-5.918 7.293-9.933 1.778-8.334-9.164-15.158-16.014-9.838-5.872 4.56-8.465 12.35-14.64 16.93z" fill="url(#e)" style="fill:url(#e)" transform="matrix(.5857 0 0 .5857 -116.692 -10.366)"/><path d="m14.66 83.56.244.244z" fill="#010101"/><path d="M40.314 88.446c.317 1.823 2.124.844 3.42.755 1.864-.127 5.324.476 6.353 2.177l1.71-.244c-.437-2.765-4.424-2.76-6.597-2.932 1.6-1.617 3.892-2.099 4.398-4.642z"/><path d="m173.472 83.56.244.244z" fill="#0d0b05"/><path d="m28.342 83.804.244.244z" fill="#0f0e07"/><path d="m176.404 84.048.244.245z" fill="#0d0b05"/><path d="m21.745 84.293.244.244z" fill="#0f0d06"/><path d="m85.27 84.293.244.244zm-37.626.244.244.244zm37.87.244.245.245z" fill="#0e0d08"/><path d="m30.052 85.27.244.244z" fill="#0f0e07"/><path d="m46.666 85.27.245.244zm1.955 0 .244.244z" fill="#0e0d08"/><path d="m15.148 85.514.245.245z" fill="#0e0b05"/><path d="m96.753 85.514-2.687 3.42 3.42 1.223-2.443-1.466c.509-1.067 2.504-1.993 1.71-3.177z"/><path d="m172.739 85.514.244.245z" fill="#0e0d05"/><path d="m36.405 85.759.244.244z" fill="#0f0e07"/><path d="m45.933 85.759.245.244zm38.36 0 .244.244z" fill="#0e0d08"/><path d="m31.03 86.003.244.244zm4.886 0 .244.244z" fill="#0f0e07"/><path d="m47.644 86.247.244.245zm27.609 0 .244.245z" fill="#0e0d08"/><path d="m75.497 86.247-2.932 2.688c1.144.386 3.787 1.892 4.642.733l-3.176-1.222zm63.28 0 3.421 2.688v.489l-3.176 1.71c1.672-.137 3.097-.644 4.398-1.71-.95-1.61-2.806-2.823-4.642-3.177z"/><path d="m31.762 86.492.245.244z" fill="#0f0e07"/><path d="m173.228 86.492.244.244z" fill="#010101"/><path d="m177.381 86.492.244.244zm-161.255.244.244.244z" fill="#0d0b05"/><path d="m95.287 86.736.245.244zm1.222 0 .244.244zm43.734 0 .245.244z" fill="#0e0d08"/><path d="m161.5 86.736.244.244zm11.728 0 .244.244z" fill="#0e0d05"/><path d="m74.275 86.98.245.245zm.978 0 .244.245zm19.79 0 .244.245z" fill="#0e0d08"/><path d="m16.614 87.225.245.244z" fill="#0e0b05"/><path d="M60.349 87.225c-1.48 3.316-3.757 6.016-6.353 8.547-1.49 1.454-3.812 2.804-4.398 4.89l10.75-2.281 5.62-1.139c-3.35-2.387-9.226.27-12.46 1.71 2.221-4.46 6.584-6.23 7.574-11.483l-.245-.244z"/><path d="m75.008 87.225.245.244zm19.79 0 .245.244zm44.957 0 .244.244zm-94.066.244.244.244z" fill="#0e0d08"/><path d="m105.06 89.668 1.466.244V87.47c-1.06.343-1.18 1.199-1.466 2.199z"/><path d="m42.268 87.713.245.245z" fill="#0f0e08"/><path d="m140.488 87.713.244.245zm-80.628.245.244.244z" fill="#0e0d08"/><path d="m17.347 88.202.244.244z" fill="#0e0b05"/><path d="m46.178 88.202.244.244zm48.865.244.244.245z" fill="#0e0d08"/><path d="m173.472 88.446.244.245z" fill="#010101"/><path d="m142.931 88.69.244.245z" fill="#0f0e08"/><path d="m158.568 88.69.244.245z" fill="#0f0e07"/><path d="m75.253 88.935.244.244z" fill="#0e0d08"/><path d="m167.852 88.935.245.244z" fill="#0f0d06"/><path d="m73.542 89.18.245.244zm31.518 0 .245.244z" fill="#0e0d08"/><path d="m116.544 89.18.244 2.687c1.133-.6 1.874-1.438 2.2-2.688l-1.711 1.222z"/><path d="m50.82 89.424.244.244zm65.48 0 .244.244zm1.954 0 .244.244z" fill="#0e0d08"/><path d="m143.175 89.424.245.244z" fill="#0f0e08"/><path d="m168.341 89.424.244.244z" fill="#0e0d05"/><path d="m18.324 89.668.245.244z" fill="#0e0b05"/><path d="m75.008 89.668.245.244zm43.002 0 .244.244zm22.722.244.244.245z" fill="#0e0d08"/><path d="m158.812 90.4.245.245z" fill="#0e0d05"/><path d="m172.983 90.4.245.245z" fill="#010101"/><path d="m178.603 90.645.244.245z" fill="#0d0b05"/><path d="m172.739 91.134.244.244z" fill="#010101"/><path d="m59.616 91.378.244.245z" fill="#0e0d08"/><path d="m24.921 91.623.245.244z" fill="#0e0b05"/><path d="m164.676 91.867.244.244z" fill="#020202"/><path d="m157.346 92.111.245.244z" fill="#0d0b05"/><path d="m164.432 92.111.244.244zm-7.33.244.244.245z" fill="#0e0d05"/><path d="m82.094 94.31.488-1.71c-1.048.305-1.624 1.06-.488 1.71z"/><path d="m20.035 92.844.244.244z" fill="#0f0d06"/><path d="m81.36 92.844.245.244zm-24.92.244.244.245z" fill="#0e0d08"/><path d="m162.477 93.088.245.245z" fill="#0e0d05"/><path d="m56.195 93.333.244.244z" fill="#0e0d08"/><path d="m171.517 93.333.245.244zm-10.261.244.244.244z" fill="#010101"/><path d="m171.273 93.577.244.244z" fill="#0e0d05"/><path d="m125.828 94.066-.244 3.42-2.199-1.466c.23 1.483 1.266 2.186 2.688 2.444l.244-4.398z"/><path d="M159.057 94.066v.244h.733z" fill="#010101"/><path d="M65.48 101.64c1.616-.07 7.248.147 8.062-.977l-5.375-.733 2.932-5.62c-1.778.556-4.83 5.606-5.62 7.33m19.791 21.256c1.843-1.056 4.242-4.202 5.13-6.108-1.955.586-2.81 2.503-4.153 3.91l-.733-5.131c5.714-.5 8.225-6.743 11.588-10.497 2.047-2.284 4.612-3.274 7.225-4.652-1.54-1.843-3.683.105-5.13 1.22-3.878 2.985-6.116 6.604-9.53 10.02l1.955-5.132h-.244c-1.061 2.55-2.33 5.271-4.886 6.597l.977-3.42h-.244c-1.028 2.454-2.186 3.663-4.887 3.665l2.443-5.62h-.244l-3.176 5.375-.978-.244 2.444-4.642h-.245c-1.235 1.977-2.537 4.788-5.13 4.153l2.198-4.153c-1.224.958-1.754 3.25-3.198 3.82-.66.259-1.902-.224-1.637-1.096.343-1.132 2.207-2.248 2.942-3.213 2.502-3.286 4.531-8.642 8.246-10.664 3.042-1.655 7.67.442 10.995.401 1.904-.023 4.073-.676 4.642-2.686-1.554-.168-3.022.835-4.642.838-4.107.006-10.846-2.04-14.374.748-3.212 2.538-3.395 5.943-5.415 9.163-.987 1.572-2.73 2.636-4.154 3.77-.528.42-1.484 1.03-1.284 1.835.246.99 1.93 1.52 2.749 1.895a27.493 27.493 0 0 0 5.863 1.92c1.068.218 2.657.183 3.563.84 1.655 1.199 1.096 5.284 1.324 7.088z"/><path d="m169.807 95.043.244.244zm-4.154.244.245.245zm3.421 0 .244.245z" fill="#010101"/><path d="m39.58 95.532-.243 1.466.977-1.466z"/><path d="m97.242 95.532.244.244z" fill="#0e0d08"/><path d="m166.63 95.532.245.244z" fill="#010101"/><path d="m126.317 95.776.244.244z" fill="#0e0d08"/><path d="M483.32 192.905c-.958-2.83-.52-6.25-2.358-8.742-2.402-3.258-7.788-2.982-11.409-2.937-1.25.015-3.334-.061-4.143 1.126-.965 1.414.791 4.873 1.17 6.381 1.57 6.25 2.971 14.87 8.398 19.058 3.567 2.752 10.744.948 13.72-2 4.749-4.702 6.03-15.69 1.207-20.767-5.965-6.278-5.874 4.89-6.586 7.88z" fill="url(#f)" style="fill:url(#f)" transform="matrix(.5857 0 0 .5857 -116.692 -10.366)"/><path d="m21.99 96.02.244.245z" fill="#0f0d06"/><path d="m82.827 96.02.244.245z" fill="#0e0d08"/><path d="m44.956 96.265.244.244z" fill="#0f0e08"/><path d="m53.263 96.265.245.244zm16.859 0 .244.244z" fill="#0e0d08"/><path d="m40.07 96.51.244.243z" fill="#0f0e08"/><path d="m46.178 96.51.244.243zm6.84 0 .245.243zm33.718 0 .244.243zm-33.961.243.244.245z" fill="#0e0d08"/><path d="m39.825 96.998.245.244z" fill="#0f0e08"/><path d="m68.656 96.998.244.244zm13.193 0 .245.244z" fill="#0e0d08"/><path d="m99.197 96.998.244.244z" fill="#0e0b05"/><path d="m169.074 96.998.244.244z" fill="#0e0d08"/><path d="m509.183 183.727-2.23 10.43-1.58 5.404 2.976 2.104-.835-3.754h.418c1.929 4.632 3.962 5.423 8.76 5.423l-2.92-6.258c1.924 2.214 2.621 5.342 5.84 5.84l-2.92-5.423c2.67 2.898 3.988 4.9 7.926 2.92v-.834c-6.95-3.307-7.582-14.43-15.435-15.852z" fill="url(#g)" style="fill:url(#g)" transform="matrix(.5857 0 0 .5857 -116.692 -10.366)"/><path d="m142.442 99.197.733-1.71c-.998.29-1.522.85-.733 1.71z"/><path d="m68.167 97.73.244.245z" fill="#0e0d08"/><path d="m165.165 97.73.244.245z" fill="#0e0d05"/><path d="m84.293 97.975.244.244z" fill="#0f0e08"/><path d="m155.88 97.975.245.244z" fill="#010101"/><path d="m178.847 97.975.244.244z" fill="#0d0b05"/><path d="m60.349 98.22.244.244z" fill="#0e0d08"/><path d="m84.048 98.22.245.244zm-44.467.244.244.244zm.977 0 .245.244zm43.246 0 .244.244z" fill="#0f0e08"/><path d="m68.411 98.708.245.244zm11.728 0 .244.244z" fill="#0e0d08"/><path d="m43.734 98.952.245.245z" fill="#0f0e08"/><path d="m150.26 98.952.245.245z" fill="#0f0e07"/><path d="m166.386 98.952.245.245z" fill="#010101"/><path d="m43.49 99.441.244.244z" fill="#0f0e08"/><path d="m83.071 99.441.244.244z" fill="#0f0e07"/><path d="m109.458 99.441 2.688 2.932 1.222-2.932-1.222 1.955zm24.677 0-.244 3.665-2.443-1.466c-.136 1.61 2.33 3.441 3.665 4.153l-.489-6.352z"/><path d="m66.457 99.93.244.244zm4.153 0 .245.244zm-4.398.244.245.244z" fill="#0e0d08"/><path d="m149.528 100.174.244.244z" fill="#0f0e07"/><path d="m28.586 100.663.245.244z" fill="#0f0d06"/><path d="m43.979 100.907.244.244z" fill="#0f0e08"/><path d="m65.48 100.907.244.244z" fill="#0e0d08"/><path d="m99.93 100.907.244.244z" fill="#0f0d06"/><path d="m149.04 100.907.244.244zm1.71.244.244.245z" fill="#0f0e07"/><path d="m110.924 101.396.245.244zm75.009 0 .244.244zm-107.26.244.245.244z" fill="#0e0d08"/><path d="m148.55 101.64.245.244z" fill="#0f0e07"/><path d="m26.387 101.884.245.245zm72.321 0 .244.245z" fill="#0f0d06"/><path d="m100.663 101.884.244.245z" fill="#0e0d08"/><path d="m25.654 102.129.245.244z" fill="#0f0d06"/><path d="m111.413 102.129.244.244zm21.012 0 .244.244z" fill="#0e0d08"/><path d="m149.772 102.617.245.245z" fill="#0f0e07"/><path d="m98.952 103.106.245.244z" fill="#0e0d08"/><path d="m25.654 103.35.245.245z" fill="#0f0d06"/><path d="m157.346 103.35.245.245zm-104.327.245.244.244z" fill="#0e0d08"/><path d="M67.923 103.595c-.766 3.66-3.381 6.954-5.726 9.773-1.117 1.343-2.836 2.693-3.314 4.397 4.049-1.166 8.6-5.28 12.949-4.886-1.118-2.167-6.336.84-8.307 1.222 1.585-2.35 3.752-4.395 4.772-7.086.428-1.129.698-2.647-.374-3.42z"/><path d="m80.383 103.595.245.244z" fill="#0f0e07"/><path d="m96.265 103.595.244.244z" fill="#0e0d08"/><path d="m28.586 103.839.245.244zm.978 0 .244.244z" fill="#0f0d06"/><path d="m67.678 104.083.245.245z" fill="#0e0d08"/><path d="m146.596 104.083.244.245z" fill="#0f0e07"/><path d="m157.59 104.328.245.244zm14.172.244.244.244z" fill="#010101"/><path d="m187.887 104.572.245.244z" fill="#0f0e08"/><path d="m96.998 104.816.244.244z" fill="#0e0d08"/><path d="m44.956 105.06.244.245z" fill="#0f0e08"/><path d="m27.609 105.305.244.244z" fill="#0f0d06"/><path d="m94.554 105.305.245.244z" fill="#0e0d08"/><path d="m27.365 105.55.244.243z" fill="#0f0d06"/><path d="m134.38 105.55.244.243z" fill="#0e0d08"/><path d="M122.408 109.458c-1.034-1.03-2.086-2.454-3.665-2.199l4.642 5.62 1.222-7.086c-1.862.295-1.771 2.142-2.2 3.665z"/><path d="m184.955 105.793.245.245z" fill="#0f0e07"/><path d="m42.024 106.038.244.244zm5.131 0 .244.244z" fill="#0f0e08"/><path d="m99.44 108.237-.243-1.222h-.733l.244 3.176c1.423-.246 2.904-2.805 3.176-4.153z"/><path d="m171.517 106.038.245.244z" fill="#010101"/><path d="m51.309 106.282.244.244zm42.512 0 .245.244zm1.955 0 .244.244zm28.83 0 .245.244z" fill="#0e0d08"/><path d="m147.085 106.282.244.244z" fill="#0f0e07"/><path d="m190.575 106.526.244.245z" fill="#0d0b05"/><path d="m75.986 106.77.244.245z" fill="#0e0d08"/><path d="m179.091 106.77.245.245z" fill="#0e0b05"/><path d="m53.263 107.015.245.244zm13.194 0 .244.244z" fill="#0e0d08"/><path d="m84.863 107.178.081.163z"/><path d="m146.107 107.26.245.244z" fill="#0f0e07"/><path d="m173.228 107.26.244.244zm7.574 0 .244.244z" fill="#0d0b05"/><path d="m67.923 107.504.244.244zm16.614 0 .244.244zm-18.569.488.244.245zm104.816 0 .245.245z" fill="#0e0d08"/><path d="m172.983 107.992.245.245z" fill="#0d0b05"/><path d="m186.177 107.992.244.245z" fill="#0f0d06"/><path d="m32.007 108.237.244.244z"/><path d="m74.275 108.237.245.244z" fill="#0e0d08"/><path d="m144.153 108.237.244.244z" fill="#0f0e07"/><path d="m31.518 108.481.244.244zm.489 0 .244.244z" fill="#0f0d06"/><path d="m82.338 108.481.244.244z" fill="#0f0e08"/><path d="m92.355 108.481.245.244zm78.185 0 .244.244zm-48.132.489.244.244zm37.137 0 .245.244z" fill="#0e0d08"/><path d="m36.16 109.214.245.244z" fill="#0f0e07"/><path d="m91.622 109.458.245.245zm31.763 0 .244.245z" fill="#0e0d08"/><path d="m51.553 109.703.244.244z" fill="#0f0e08"/><path d="m78.185 109.703.244.244z" fill="#0e0b05"/><path d="m81.36 109.703.245.244z" fill="#0e0d08"/><path d="m83.56 109.703.244.244z" fill="#0f0e08"/><path d="m93.333 109.703.244.244z" fill="#0e0d08"/><path d="m173.96 109.703.245.244z" fill="#0d0b05"/><path d="m72.076 109.947.245.244zm14.904 0 .245.244z" fill="#0e0d08"/><path d="m108.481 109.947-1.222 3.176h-.244l-1.955-2.687 1.71 5.62h.245c.65-1.633 2.951-4.636 1.466-6.109z"/><path d="m121.186 109.947.244.244z" fill="#0e0d08"/><path d="m83.315 110.191.245.245z" fill="#0f0e08"/><path d="m156.858 110.191.244.245z" fill="#0f0d06"/><path d="m74.764 110.436.244.244z" fill="#0d0b05"/><path d="m107.992 110.436.245.244z" fill="#0e0d08"/><path d="m44.223 110.68.244.244z" fill="#0f0e08"/><path d="m82.582 110.68.245.244z" fill="#0f0e07"/><path d="m86.98 110.68.245.244zm2.2 0 .244.244z" fill="#0e0d08"/><path d="m29.808 110.924.244.245z" fill="#0f0d06"/><path d="m89.668 110.924.244.245zm71.343 0 .245.245zm-97.242.245.245.244zm97.487 0 .244.244z" fill="#0e0d08"/><path d="m29.075 111.413.244.244z" fill="#0f0d06"/><path d="m77.696 111.413.244.244z" fill="#0d0b05"/><path d="m80.872 111.413.244.244z" fill="#0f0d06"/><path d="m89.668 111.413.244.244z" fill="#0e0d08"/><path d="m134.868 111.657 1.466 8.063c-1.557-1.36-6.36-7.63-8.307-5.375 4.495 1.432 6.368 6.684 10.262 9.04l-1.218-4.642-1.47-7.33z"/><path d="m161.5 111.413.244.244z" fill="#0e0d08"/><path d="m166.142 111.657.244.245z" fill="#010101"/><path d="m172.25 111.657.245.245z" fill="#0e0b05"/><path d="m28.342 111.902.244.244z" fill="#0d0b05"/><path d="m34.694 111.902.245.244z" fill="#0f0e07"/><path d="m64.747 111.902.244.244z" fill="#0e0d08"/><path d="m76.719 111.902.244.244zm.733 0 .244.244z" fill="#0d0b05"/><path d="m81.85 111.902.244.244z" fill="#0e0b05"/><path d="m162.722 111.902.244.244z" fill="#010101"/><path d="m172.006 111.902.244.244z" fill="#0d0b05"/><path d="m63.036 112.146.245.244z" fill="#0e0d08"/><path d="m76.23 112.146.244.244zm3.42 0 .245.244z" fill="#0d0b05"/><path d="m47.4 112.39.244.245z" fill="#0f0e08"/><path d="m87.225 112.635.244.244z" fill="#0f0e07"/><path d="m33.961 112.879.245.244z" fill="#0f0d06"/><path d="m81.116 112.879.245.244z" fill="#0e0b05"/><path d="m86.736 112.879.244.244z" fill="#0f0e07"/><path d="m66.701 113.123.244.245z" fill="#0e0d08"/><path d="m160.034 113.123.244.245z" fill="#0f0d06"/><path d="m75.497 113.368.244.244z" fill="#0e0d08"/><path d="M147.818 113.368c-1.238 3.029 1.782 6.279 2.932 9.04-3.177-1.638-5.997-4.366-9.774-4.398v.977c5.44.475 8.342 6.042 12.705 8.552-.04-4.554-3.95-9.79-5.375-14.171z"/><path d="m155.147 113.368.245.244z" fill="#0f0d06"/><path d="m65.235 113.612.245.244z" fill="#0e0d08"/><path d="m161.011 113.612.245.244z" fill="#0f0d06"/><path d="m170.296 113.612.244.244z" fill="#0e0b05"/><path d="m89.424 113.856.244.245z" fill="#0e0d08"/><path d="m170.051 113.856.245.245z" fill="#0d0b05"/><path d="m51.553 114.1.244.245zm83.56 0 .244.245z" fill="#0f0e08"/><path d="m169.807 114.1.244.245z" fill="#0e0b05"/><path d="m51.309 114.345.244.244z" fill="#0f0e08"/><path d="m78.429 114.345.244.244zm10.262 0 .244.244z" fill="#0e0d08"/><path d="m156.613 114.345.245.244z" fill="#0f0d06"/><path d="m51.064 114.59.245.244zm-.244.244.244.244z" fill="#0f0e08"/><path d="m107.26 114.834.244.244z" fill="#0e0d08"/><path d="m50.576 115.078.244.244z" fill="#0f0e08"/><path d="m60.593 115.078.244.244z" fill="#0e0d08"/><path d="m136.334 115.322.245.245z" fill="#0f0e08"/><path d="m147.573 116.055.245.245z" fill="#0f0e07"/><path d="m49.598 116.3.245.244z" fill="#0f0e08"/><path d="m61.815 116.3.244.244zm-.489.244.244.244z" fill="#0e0d08"/><path d="m98.22 117.033-1.711.244c.576 1.37 1.593 2.477 2.071 3.909.53 1.586.186 3.775 1.838 4.642.765-1.718 2.646-4.518 2.2-6.352-1.389.682-2.047 2.168-2.2 3.665h-.244z"/><path d="m48.865 117.277.245.244z" fill="#0f0e08"/><path d="M75.497 117.277c0 4.795-.652 9.303-1.955 13.926 1.7.063 2.59-1.705 3.512-2.931 1.82-2.422 3.644-5.092 6.506-6.353v-.244c-2.903-.376-6.53 3.963-7.574 6.352h-.245c.86-3.325 1.626-7.482.245-10.75z"/><path d="m90.157 117.277.244.244z" fill="#0e0d08"/><path d="m160.523 117.277.244.244z" fill="#0e0b05"/><path d="m166.386 117.277.245.244z" fill="#0d0b05"/><path d="m117.032 122.652-5.619-3.91c.313 1 1.106 1.299 1.847 1.985 1.458 1.353 2.73 4.516 4.75 4.857l.488-8.063c-1.972.752-1.466 3.399-1.466 5.131z"/><path d="m148.306 117.521.245.244z" fill="#0f0e07"/><path d="m166.142 117.521.244.244z" fill="#0e0b05"/><path d="m98.464 117.765.244.245z" fill="#0e0d08"/><path d="m135.846 118.01.244.244z" fill="#0f0e08"/><path d="m96.998 118.254.244.244z" fill="#0e0d08"/><path d="m133.158 118.254.244.244zm1.71.244.245.245z" fill="#0f0e08"/><path d="m135.113 118.743.244.244z" fill="#0f0e07"/><path d="m88.446 118.987.245.244zm23.944 0 .245.244z" fill="#0e0d08"/><path d="m145.374 119.231.245.245z" fill="#0f0e08"/><path d="m49.354 119.476.244.244z" fill="#0f0e07"/><path d="m102.617 119.476.245.244zm-14.904.488.245.245z" fill="#0e0d08"/><path d="m134.624 119.964.244.245z" fill="#0f0e08"/><path d="m150.75 119.964.244.245z" fill="#0f0d06"/><path d="m162.477 119.964.245.245z" fill="#0e0b05"/><path d="m163.699 119.964.244.245z" fill="#010101"/><path d="m49.843 120.209.244.244z" fill="#0f0e07"/><path d="m163.455 120.209.244.244z" fill="#0e0b05"/><path d="m113.123 120.453.245.244z" fill="#0e0d08"/><path d="m147.573 120.453.245.244z" fill="#0f0d06"/><path d="m163.21 120.453.245.244z" fill="#0e0b05"/><path d="m61.815 120.942.244.244zm36.649 0 .244.244zm15.637.488.244.245z" fill="#0e0d08"/><path d="m61.57 121.919.245.244z" fill="#0f0e08"/><path d="m116.3 122.163.244.245z" fill="#0e0d08"/><path d="M130.96 122.163c-1.724 3.055.787 9.349 1.22 12.705h-.244c-1.361-2.876-3.985-5.252-6.108-7.574-.3-.327-1.847-2.435-2.4-1.548-.577.924 2.25 3.118 2.782 3.747 1.952 2.314 3.716 4.932 5.194 7.574.855 1.528 1.6 3.57 3.22 4.398-1.222-6.303-3.158-12.848-3.176-19.302z"/><path d="m147.573 122.163.245.245z" fill="#0f0d06"/><path d="m80.872 122.408.244.244z" fill="#010101"/><path d="m82.094 122.408.244.244zm17.836 0 .244.244z" fill="#0e0d08"/><path d="m137.067 122.408.245.244z" fill="#0f0e07"/><path d="m130.47 122.652.245.244z" fill="#0f0e08"/><path d="m162.233 122.652.244.244z" fill="#0e0b05"/><path d="m85.27 122.896.244.245z" fill="#0e0d08"/><path d="m100.174 122.896.244.245z" fill="#0f0e08"/><path d="m156.613 123.14.245.245zm3.177 0 .244.245z" fill="#0e0b05"/><path d="m80.872 123.385.244.244zm34.695 0 .244.244z" fill="#0e0d08"/><path d="m148.795 123.385.244.244z" fill="#0f0d06"/><path d="m61.082 123.63.244.244z" fill="#0f0e08"/><path d="m157.835 123.874.244.244z" fill="#0e0b05"/><path d="m75.008 124.118.245.244z" fill="#0e0d08"/><path d="m53.019 124.362.244.245z" fill="#0f0e07"/><path d="m116.3 124.362.244.245zm14.17 0 .245.245z" fill="#0f0e08"/><path d="m162.233 124.362.244.245z" fill="#0d0b05"/><path d="m283.919 230.449-4.59 12.932 9.595-6.675c-.167-3.224-1.913-5.339-5.005-6.257z" fill="url(#h)" style="fill:url(#h)" transform="matrix(.5857 0 0 .5857 -116.692 -10.366)"/><path d="m79.406 124.85.244.245zm37.382.245.244.245z" fill="#0e0d08"/><path d="m60.104 126.073.245.244z" fill="#0f0e08"/><path d="m151.727 126.073.244.244z" fill="#0f0d06"/><path d="m124.85 126.317.245.244z" fill="#0f0e08"/><path d="m71.343 126.561.245.245z" fill="#0e0d08"/><path d="m90.157 126.561-.245.245c1.196 3.284 2.372 6.005 2.952 9.528.269 1.637.102 3.767 1.446 4.887 1.374-2.607 1.868-5.631 3.123-8.307.72-1.536 1.895-2.885 1.52-4.642-2.349 1.155-3.735 6.37-4.399 8.795-1.211-3.23-.84-8.842-4.397-10.506z"/><path d="m123.874 127.05.244.244zm.244.244.244.245z" fill="#0f0e08"/><path d="m75.741 127.539.245.244z" fill="#0e0d08"/><path d="m124.362 127.539.245.244z" fill="#0f0e08"/><path d="m56.44 127.783.244.244z" fill="#0f0e07"/><path d="m61.57 127.783.245.244z" fill="#0f0e08"/><path d="m75.741 127.783.245.244z" fill="#fff"/><path d="m124.607 127.783.244.244z" fill="#0f0e08"/><path d="m157.835 127.783.244.244z" fill="#010101"/><path d="m76.963 128.027.244.245zm21.256.245.245.244z" fill="#0e0d08"/><path d="m130.96 128.272.243.244z" fill="#0f0e07"/><path d="m98.952 128.516.245.244z" fill="#0e0d08"/><path d="m126.806 128.516.244.244z" fill="#0f0e08"/><path d="m127.05 128.76.244.244z" fill="#0f0d06"/><path d="m57.905 129.004.245.245zm18.325 0 .244.245z" fill="#0f0e07"/><path d="M106.77 129.004c2.763 5.487 4.809 10.648 6.353 16.615 1.723-.966 1.486-2.672 1.467-4.398-.044-4.02 1.5-8.024 1.22-11.972-1.152.395-1.358 1.576-1.559 2.687-.482 2.667-.49 5.419-1.128 8.063-1.325-3.078-2.375-10.358-6.352-10.995z"/><path d="m107.504 129.004.244.245z" fill="#0e0d08"/><path d="m146.596 129.004.244.245z" fill="#0f0d06"/><path d="m91.134 129.249.244.244z" fill="#0e0d08"/><path d="m126.073 129.249.244.244zm-64.991.244.244.244z" fill="#0f0e07"/><path d="m79.65 129.493.245.244z" fill="#0e0d08"/><path d="m114.834 129.493.244.244z" fill="#0f0e08"/><path d="m156.613 129.493.245.244z" fill="#0f0d06"/><path d="m49.598 129.737.245.245z" fill="#0d0b05"/><path d="m114.59 129.982.244.244zm-49.6.488.245.245z" fill="#0f0e08"/><path d="m96.998 130.47.244.245zm1.466 0 .244.245z" fill="#0e0d08"/><path d="m127.05 130.47.244.245zm-62.303.245.244.244z" fill="#0f0e07"/><path d="m147.329 130.715.244.244z" fill="#0f0d06"/><path d="m155.636 130.715.244.244z" fill="#0d0b05"/><path d="m64.502 130.96.245.243z" fill="#0f0e08"/><path d="m98.22 130.96.244.243z" fill="#0e0d08"/><path d="m109.214 130.96.244.243z" fill="#0f0e08"/><path d="m469.553 241.295-2.92 5.006 9.178 4.171z" fill="url(#i)" style="fill:url(#i)" transform="matrix(.5857 0 0 .5857 -116.692 -10.366)"/><path d="m129.249 131.203.244.245z" fill="#0f0e07"/><path d="m97.975 131.448.244.244z" fill="#0e0d08"/><path d="m108.237 131.692.244.244z" fill="#0f0e08"/><path d="m47.155 131.936.244.245z" fill="#0d0b05"/><path d="m66.701 131.936.244.245z" fill="#0f0e08"/><path d="m46.666 132.18.245.245z" fill="#fff"/><path d="m96.265 132.18.244.245z" fill="#0e0d08"/><path d="m108.481 132.18.244.245z" fill="#0f0e08"/><path d="m154.414 132.18.245.245z" fill="#0e0b05"/><path d="m108.725 132.67.245.244zm1.466 0 .245.244zm-1.221.488.244.244zm1.466 0 .244.244zm-14.66.244.244.245zm1.222 0 .244.245z" fill="#0f0e08"/><path d="m139.51 133.402.245.245z" fill="#0f0d06"/><path d="m110.68 133.647.244.244z" fill="#0f0e08"/><path d="m156.858 133.891.244.244z" fill="#010101"/><path d="m61.57 134.135.245.245z" fill="#0f0e07"/><path d="m89.18 134.38.244.244z"/><path d="m129.737 134.38.245.244z" fill="#0f0e07"/><path d="m95.287 134.624.245.244z" fill="#0f0e08"/><path d="m141.22 134.624.245.244z" fill="#0f0d06"/><path d="m65.724 134.868.244.245z" fill="#0f0e07"/><path d="m89.668 134.868.244.245z" fill="#0f0e08"/><path d="m142.198 135.357.244.244zm-15.637.244.245.245zm.489 0 .244.245z" fill="#0f0d06"/><path d="m60.104 135.846.245.244z" fill="#0f0e07"/><path d="m94.799 135.846.244.244z" fill="#0f0e08"/><path d="m130.715 135.846.244.244zm-62.06.977.245.244z" fill="#0f0e07"/><path d="m99.197 136.823.244.244zm-40.07.244.244.245z" fill="#0f0e08"/><path d="m133.647 137.067.244.245z" fill="#0f0d06"/><path d="m112.146 137.312.244.244zm-42.513.244.244.244z" fill="#0f0e07"/><path d="m131.692 137.556.244.244z" fill="#0f0d06"/><path d="m116.788 137.8.244.245z" fill="#0f0e07"/><path d="m70.122 138.045.244.244z" fill="#0f0e08"/><path d="m145.619 138.289.244.244z" fill="#0e0b05"/><path d="m58.15 138.533.244.245z" fill="#0f0e07"/><path d="m93.088 138.533.245.245z" fill="#0f0e08"/><path d="m107.992 138.533.245.245z" fill="#0f0e07"/><path d="m145.863 138.533.244.245z" fill="#0e0b05"/><path d="m79.162 138.778.244.244zm33.473.244.244.244zm-40.803.244.244.245zm47.888 0 .244.245zm-47.155.489.244.244zm45.69.244.243.245zm-32.985.245.244.244zm35.183 0 .244.244zm-35.427.488.244.245zm-10.018.245.245.244zm3.177 0 .244.244zm42.757 0 .244.244zm-45.2.244.244.244zm25.654.244.244.244z" fill="#0f0e07"/><path d="m318.96 260.067-.835 12.932c3.667-3.916 9.78-12.145.835-12.932z" fill="url(#j)" style="fill:url(#j)" transform="matrix(.5857 0 0 .5857 -116.692 -10.366)"/><path d="m86.247 141.954.245.244z" fill="#0f0e07"/><path d="m141.22 142.931.245.244z" fill="#0e0b05"/><path d="m150.994 142.931.244.244z" fill="#0d0b05"/><path d="m114.834 143.175.244.245z" fill="#0f0e07"/><path d="m140.243 143.42.245.244z" fill="#0e0b05"/><path d="m102.373 143.908.244.245zm10.262 0 .244.245z" fill="#0f0e07"/><path d="m138.533 144.153.245.244z" fill="#0d0b05"/><path d="m114.1 144.886.245.244z" fill="#0f0e07"/><path d="m121.186 144.886.244.244z" fill="#0f0d06"/><path d="m137.067 144.886.245.244z" fill="#0e0b05"/><path d="m85.759 145.13.244.244zm28.097 0 .245.244z" fill="#0f0e07"/><path d="m136.579 145.13.244.244z" fill="#0e0b05"/><path d="m108.237 145.619.244.244z" fill="#0f0e07"/><path d="m121.43 145.619.245.244zm1.955 0 .244.244z" fill="#0f0d06"/><path d="m71.588 146.107.244.245z" fill="#0d0b05"/><path d="m89.424 146.352.244.244zm13.926.488.244.245z" fill="#0f0e07"/><path d="m132.425 146.84.244.245zm-.733.245.244.244z" fill="#0e0b05"/><path d="m153.193 147.329.244.244zm.488 0 .245.244z" fill="#0d0b05"/><path d="m129.982 147.573.244.245z" fill="#0f0d06"/><path d="M429.089 272.582c1.607 3.45 5.253 7 8.343 9.177l-3.754-11.68z" fill="url(#k)" style="fill:url(#k)" transform="matrix(.5857 0 0 .5857 -116.692 -10.366)"/><path d="m124.362 148.062.245.244zm-42.513.489.245.244z" fill="#0f0d06"/><path d="m96.998 148.55.244.245z" fill="#0f0e07"/><path d="m135.113 148.795.244.244z" fill="#0d0b05"/><path d="m99.197 149.04.244.244z" fill="#0f0d06"/><path d="m135.601 150.75.245.244zm.245.244.244.244z" fill="#0d0b05"/><path d="M358.172 290.52h.418l3.754-13.35-4.748-.806-.258 3.726z" fill="url(#l)" style="fill:url(#l)" transform="matrix(.5857 0 0 .5857 -116.692 -10.366)"/><path d="m136.09 151.238.244.245zm2.443.978.245.244z" fill="#0d0b05"/><path d="m392.796 279.673 4.59 13.35c1.03-2.387 4.207-11.603 1.952-13.515-1.746-1.48-4.647-.336-6.542.165z" fill="url(#m)" style="fill:url(#m)" transform="matrix(.5857 0 0 .5857 -116.692 -10.366)"/><path d="m113.856 153.193.245.244z" fill="#0d0b05"/><path d="m137.8 153.193.245.244zm-11.483.977.244.244z" fill="#010101"/><path d="m139.022 154.414.244.245zm-25.41.245.244.244zm25.654 0 .489.488z" fill="#0d0b05"/><path d="m139.51 154.659.245.244z" fill="#fff"/><path d="m127.539 155.147.244.245z" fill="#0e0b05"/><path d="m94.31 155.392.244.244z" fill="#0d0b05"/><path d="M166.747 95.677c-.966-.176-1.722-.895-1.722-1.638 0-.702.449-1.41 2.278-3.591 1.46-1.74 1.283-1.694-1.417.37-2.987 2.283-5.125 3.152-8.106 3.295-1.384.066-2.517.032-2.517-.077 0-.108.408-.54.907-.96.498-.42 2.172-2.457 3.72-4.527 2.826-3.782 4.205-5.064 6.02-5.597 2.873-.842 6.57 1.376 7.403 4.441.772 2.845-1.737 7.427-4.485 8.19-.592.165-1.14.283-1.22.262-.078-.02-.466-.096-.86-.168z" fill="#fef666"/><path d="M162.871 112.056c-.94-.261-2.15-1.242-3.03-2.457-1.049-1.447-1.789-3.428-3.031-8.115a308.013 308.013 0 0 0-1.135-4.204c-.401-1.31 2.454-1.976 5.946-1.387 2.747.463 3.757 1.385 4.25 3.878.186.943.374 1.842.417 2 .043.158.246-.597.45-1.678.227-1.202.623-2.258 1.017-2.717l.646-.75 1.047.706c1.645 1.11 2.576 3.289 2.559 5.986-.025 3.817-1.596 6.792-4.247 8.038-1.312.616-3.87.983-4.889.7z" fill="#fef67a"/></svg>