<svg width="64" height="64" color-interpolation="linearRGB" xmlns="http://www.w3.org/2000/svg"><path style="fill:#010101;fill-opacity:.5725" d="m27 57 2 2 3.13-3.17L37 59l8.39-11.46L64 38l-5-3 2 2-25 12-9 8zm31-23 4-3-4-2-3 3 3 2z"/><path style="fill:none;stroke:#010101;stroke-width:4" d="M6.25 30s5.62 6 10.62 12.5c5 6.5 9.38 13.25 9.38 13.25l32.87-18.88L32 15 6.25 30z"/><radialGradient id="a" gradientUnits="userSpaceOnUse" cx="0" cy="0" r="64" gradientTransform="matrix(.5714 0 0 .3333 26 35)"><stop offset="1" stop-color="#fffcc0"/><stop offset=".489" stop-color="#f1b706"/></radialGradient><path style="fill:url(#a)" d="M6.25 30s5.62 6 10.62 12.5c5 6.5 9.38 13.25 9.38 13.25l32.87-18.88L32 15 6.25 30z"/><path style="fill:none;stroke:#010101;stroke-width:4" d="M2.62 30.87s8.33 5.39 16.38 11c8.44 5.88 16.75 10.88 16.75 10.88l22.37-26.38s-12.68-5.67-22.75-11c-5.19-2.75-9.37-6-9.37-6L2.62 30.87z"/><linearGradient id="b" gradientUnits="userSpaceOnUse" x1="107.04" y1="-17.09" x2="118.33" y2="27.99"><stop offset="0" stop-color="#ffefa5"/><stop offset=".742" stop-color="#fffcc0"/><stop offset="1" stop-color="#fff890"/></linearGradient><path style="fill:url(#b)" d="M2.62 30.87s8.33 5.39 16.38 11c8.44 5.88 16.75 10.88 16.75 10.88l22.37-26.38s-12.68-5.67-22.75-11c-5.19-2.75-9.37-6-9.37-6L2.62 30.87z"/><linearGradient id="c" gradientUnits="userSpaceOnUse" x1="-47.14" y1="-15.78" x2="-28.46" y2="-37.85"><stop offset="0" stop-color="#010101"/><stop offset="1" stop-color="#9e9e9e"/></linearGradient><path style="fill:none;stroke:url(#c);stroke-width:1" d="m19 36 12.87-13.13M13 32l14.87-15"/><linearGradient id="d" gradientUnits="userSpaceOnUse" x1="-47.14" y1="-15.78" x2="-28.46" y2="-37.85"><stop offset="0" stop-color="#010101"/><stop offset="1" stop-color="#9e9e9e"/></linearGradient><path style="fill:none;stroke:url(#d);stroke-width:1" d="m22 38 11.75-11.75M16 34l14.12-14.38"/><path style="fill:none;stroke:#010101;stroke-width:4" d="m44 49 10 10s1.49-.51 2-1c.5-.5 1-2 1-2L47 46l-4-1 1 4z" transform="translate(1 -4)"/><linearGradient id="e" gradientUnits="userSpaceOnUse" x1="30.33" y1="44.37" x2="34.46" y2="36.98"><stop offset="1" stop-color="#555"/><stop offset=".761" stop-color="#858585"/><stop offset="0" stop-color="#505050"/></linearGradient><path style="fill:url(#e)" d="m44 49 10 10s1.49-.51 2-1c.5-.5 1-2 1-2L47 46l-4-1 1 4z" transform="translate(1 -4)"/><path style="fill:none;stroke:#010101;stroke-width:4" d="M34 26c-5.53 0-10 4.47-10 10 0 5.52 4.47 10 10 10 5.52 0 10-4.48 10-10 0-5.53-4.48-10-10-10z" transform="translate(1 -4)"/><radialGradient id="f" gradientUnits="userSpaceOnUse" cx="0" cy="0" r="64" gradientTransform="matrix(.25 0 0 .25 35 37)"><stop offset="0" stop-color="#dcf4ff"/><stop offset="1" stop-color="#6094aa"/></radialGradient><path style="fill:url(#f)" d="M34 26c-5.53 0-10 4.47-10 10 0 5.52 4.47 10 10 10 5.52 0 10-4.48 10-10 0-5.53-4.48-10-10-10z" transform="translate(1 -4)"/><path style="fill:#fff" d="M34 26c-5.53 0-10 4.47-10 10 0 5.52 4.47 10 10 10 5.52 0 10-4.48 10-10 0-5.53-4.48-10-10-10z" transform="matrix(.25 0 0 .25 22.5 19.5)"/></svg>