<svg width="64" height="64" color-interpolation="linearRGB" xmlns="http://www.w3.org/2000/svg"><path style="fill:#010101;fill-opacity:.4549" d="M18 62h6l8-8 14 8h6l12-14-8-4-26 5-12 13z"/><path style="fill:none;stroke:#000;stroke-width:4" d="M2 34v18l16 8 12-11V32l-16-6-12 8z"/><linearGradient id="a" gradientUnits="userSpaceOnUse" x1="-25.79" y1="20.62" x2="10.43" y2="5.03"><stop offset="0" stop-color="#c6d7f5"/><stop offset="1" stop-color="#6b94dd"/></linearGradient><path style="fill:url(#a)" d="M2 34v18l16 8V41L2 34z"/><path style="fill:#003cb0" d="M18 41v19l12-11V32l-12 9z"/><path style="fill:#0d2964" d="m24 34 4 11v-9l-4-2z" transform="translate(0 1)"/><linearGradient id="b" gradientUnits="userSpaceOnUse" x1="12.94" y1="-1.93" x2="52.06" y2="14.45"><stop offset="0" stop-color="#e3edff"/><stop offset="1" stop-color="#9ec2ff"/></linearGradient><path style="fill:url(#b)" d="m2 34 16 7 12-9-16-6-12 8z"/><path style="fill:none;stroke:#000;stroke-width:4" d="M30 34v18l16 8 12-12V31l-16-6-12 9z"/><path style="fill:#ec6666" d="m33 49 .99 4.99L46 60V41l-7.93-3.16L33 49z"/><path style="fill:#c93b3b" d="M30 34v18l3.99 1.99L33 49l5.07-11.16L30 34z"/><linearGradient id="c" gradientUnits="userSpaceOnUse" x1="71.36" y1="-3.35" x2="104.04" y2="22.42"><stop offset="0" stop-color="#a3043c"/><stop offset="1" stop-color="#ff90af"/></linearGradient><path style="fill:url(#c)" d="M30 18v19l12-9V10l-12 8zm16 23v19l12-12V31L46 41z"/><path style="fill:#ffacac" d="M37.98 37.8 46 41l12-10-8-3-12.02 9.8z"/><linearGradient id="d" gradientUnits="userSpaceOnUse" x1="143.84" y1="41.93" x2="91.24" y2="108.1"><stop offset="0" stop-color="#bd0f0f"/><stop offset="1" stop-color="#e98484"/></linearGradient><path style="fill:url(#d)" d="m30 34 7.98 3.8L50 28l-8-3-12 9z"/><path style="fill:none;stroke:#000;stroke-width:4" d="M14 12v18l16 7 12-9V10L26 5l-12 7z"/><linearGradient id="e" gradientUnits="userSpaceOnUse" x1="-30.91" y1="12.63" x2="-19.81" y2="-11.87"><stop offset="0" stop-color="#fff"/><stop offset="1" stop-color="#c1ccff"/></linearGradient><path style="fill:url(#e)" d="M14 12v18l16 7V18l-16-6z"/><linearGradient id="f" gradientUnits="userSpaceOnUse" x1="30.5" y1="-22.81" x2="56.01" y2="-9.13"><stop offset="0" stop-color="#fff"/><stop offset="1" stop-color="#ebefff"/></linearGradient><path style="fill:url(#f)" d="m14 12 16 6 12-8-16-5-12 7z"/><linearGradient id="g" gradientUnits="userSpaceOnUse" x1="53.12" y1="-13.75" x2="68.45" y2="-1.75"><stop offset="0" stop-color="#c1ccff"/><stop offset="1" stop-color="#fff"/></linearGradient><path style="fill:url(#g)" d="M30 18v19l12-9V10l-12 8z"/></svg>