<svg width="64" height="64" color-interpolation="linearRGB" xmlns="http://www.w3.org/2000/svg"><path style="fill:#000;fill-opacity:.3921" d="m30 34-8 3 34 15s8-2 8-5-34-13-34-13zm3 30h4l15-10-6-3-13 13z"/><path style="fill:none;stroke:#000;stroke-opacity:.3921;stroke-width:2" d="M53 50s0 5 3 6c3.79 1.26 5.95 3.43 2 4-7 1-6-2-13-3"/><path style="fill:none;stroke:#000;stroke-width:2" d="M52 47s-3 7 2 8c3.92.78 5.95 3.43 2 4-7 1-6-5-13-6"/><path style="fill:none;stroke:#000;stroke-width:4" d="m22 34 32 14V17l-16-4V7L22 3v31z"/><linearGradient id="a" gradientUnits="userSpaceOnUse" x1="56.06" y1="-8.88" x2="85.21" y2="21.09"><stop offset="0" stop-color="#ededed"/><stop offset="1" stop-color="#a5a5a5"/></linearGradient><path style="fill:url(#a)" d="M22 8v26l32 14V17L22 8z"/><path style="fill:#fff" d="M50 42 26 32l-2 1 28 12V19l-2 2v21z"/><linearGradient id="b" gradientUnits="userSpaceOnUse" x1="88.01" y1="6.3" x2="89.51" y2="27.08"><stop offset="0" stop-color="#919191"/><stop offset="1" stop-color="#b5b5b5"/></linearGradient><path style="fill:url(#b)" d="M24 11v22l2-1V14l24 7 2-2-28-8z"/><linearGradient id="c" gradientUnits="userSpaceOnUse" x1="119.17" y1="-37.89" x2="141.58" y2="13.42"><stop offset="0" stop-color="#00f"/><stop offset="1" stop-color="#18007f"/></linearGradient><path style="fill:url(#c)" d="M28 18v11l21 9V24l-21-6zm-2-4v18l26 11V22l-26-8z"/><linearGradient id="d" gradientUnits="userSpaceOnUse" x1="119.17" y1="-37.89" x2="141.58" y2="13.42"><stop offset="0" stop-color="#fff"/><stop offset="1" stop-color="#e9e9e9"/></linearGradient><path style="fill:url(#d)" d="M28 18v11l21 9V24l-21-6z"/><linearGradient id="e" gradientUnits="userSpaceOnUse" x1="51.7" y1="-2.04" x2="54.15" y2="16.45"><stop offset="0" stop-color="#ffea00"/><stop offset="1" stop-color="#ffb830"/></linearGradient><path style="fill:url(#e)" d="M22 3v6l16 4.75V7L22 3z"/><path style="fill:none;stroke:#000;stroke-width:4;stroke-linejoin:round" d="M2 45v2l30 15h2l10-7v-4L10 36l-8 9z"/><linearGradient id="f" gradientUnits="userSpaceOnUse" x1="23.93" y1="10.34" x2="55.16" y2="40.05"><stop offset="0" stop-color="#c4c4c4"/><stop offset="1" stop-color="#a0a0a0"/></linearGradient><path style="fill:url(#f)" d="m10 36-8 8v1l30 15h2l10-9-34-15z"/><linearGradient id="g" gradientUnits="userSpaceOnUse" x1="-11.17" y1="15.94" x2="44.75" y2="20.45"><stop offset="0" stop-color="#b4b4b4"/><stop offset="1" stop-color="#8d8d8d"/><stop offset=".905" stop-color="#656565"/></linearGradient><path style="fill:url(#g)" d="m44 55-10 7h-2L2 47v-2l30 15h2l10-9v4z"/><radialGradient id="h" gradientUnits="userSpaceOnUse" cx="0" cy="0" r="64" gradientTransform="matrix(.1249 0 0 .121 9.25 34.75)"><stop offset="0" stop-color="#cbcbcb"/><stop offset="1" stop-color="#fff"/></radialGradient><path style="fill:url(#h)" d="m8 38 2-2 3 1.5-2 2L8 38z" transform="translate(0 .25)"/><radialGradient id="i" gradientUnits="userSpaceOnUse" cx="0" cy="0" r="64" gradientTransform="matrix(.1249 0 0 .121 9.25 34.75)"><stop offset="0" stop-color="#cbcbcb"/><stop offset="1" stop-color="#fff"/></radialGradient><path style="fill:url(#i)" d="m8 38 2-2 3 1.5-2 2L8 38z" transform="translate(4 2)"/><radialGradient id="j" gradientUnits="userSpaceOnUse" cx="0" cy="0" r="64" gradientTransform="matrix(.1249 0 0 .121 9.25 34.75)"><stop offset="0" stop-color="#cbcbcb"/><stop offset="1" stop-color="#fff"/></radialGradient><path style="fill:url(#j)" d="m8 38 2-2 3 1.5-2 2L8 38z" transform="translate(8 4)"/><radialGradient id="k" gradientUnits="userSpaceOnUse" cx="0" cy="0" r="64" gradientTransform="matrix(.1249 0 0 .121 9.25 34.75)"><stop offset="0" stop-color="#cbcbcb"/><stop offset="1" stop-color="#fff"/></radialGradient><path style="fill:url(#k)" d="m8 38 2-2 3 1.5-2 2L8 38z" transform="translate(12 6)"/><radialGradient id="l" gradientUnits="userSpaceOnUse" cx="0" cy="0" r="64" gradientTransform="matrix(.1249 0 0 .121 9.25 34.75)"><stop offset="0" stop-color="#cbcbcb"/><stop offset="1" stop-color="#fff"/></radialGradient><path style="fill:url(#l)" d="m8 38 2-2 3 1.5-2 2L8 38z" transform="translate(16.125 8)"/><radialGradient id="m" gradientUnits="userSpaceOnUse" cx="0" cy="0" r="64" gradientTransform="matrix(.1249 0 0 .121 9.25 34.75)"><stop offset="0" stop-color="#cbcbcb"/><stop offset="1" stop-color="#fff"/></radialGradient><path style="fill:url(#m)" d="m8 38 2-2 3 1.5-2 2L8 38z" transform="translate(20.125 9.875)"/><radialGradient id="n" gradientUnits="userSpaceOnUse" cx="0" cy="0" r="64" gradientTransform="matrix(.1249 0 0 .121 9.25 34.75)"><stop offset="0" stop-color="#cbcbcb"/><stop offset="1" stop-color="#fff"/></radialGradient><path style="fill:url(#n)" d="m8 38 2-2 3 1.5-2 2L8 38z" transform="translate(24.375 11.875)"/><radialGradient id="o" gradientUnits="userSpaceOnUse" cx="0" cy="0" r="64" gradientTransform="matrix(.1249 0 0 .121 9.25 34.75)"><stop offset="0" stop-color="#cbcbcb"/><stop offset="1" stop-color="#fff"/></radialGradient><path style="fill:url(#o)" d="m8 38 2-2 3 1.5-2 2L8 38z" transform="translate(29 13.875)"/><radialGradient id="p" gradientUnits="userSpaceOnUse" cx="0" cy="0" r="64" gradientTransform="matrix(.1249 0 0 .121 9.25 34.75)"><stop offset="0" stop-color="#cbcbcb"/><stop offset="1" stop-color="#fff"/></radialGradient><path style="fill:url(#p)" d="m8 38 2-2 3 1.5-2 2L8 38z" transform="translate(-3 3.25)"/><radialGradient id="q" gradientUnits="userSpaceOnUse" cx="0" cy="0" r="64" gradientTransform="matrix(.1249 0 0 .121 9.25 34.75)"><stop offset="0" stop-color="#cbcbcb"/><stop offset="1" stop-color="#fff"/></radialGradient><path style="fill:url(#q)" d="m8 38 2-2 3 1.5-2 2L8 38z" transform="translate(1 5.25)"/><radialGradient id="r" gradientUnits="userSpaceOnUse" cx="0" cy="0" r="64" gradientTransform="matrix(.1249 0 0 .121 9.25 34.75)"><stop offset="0" stop-color="#cbcbcb"/><stop offset="1" stop-color="#fff"/></radialGradient><path style="fill:url(#r)" d="m8 38 2-2 3 1.5-2 2L8 38z" transform="translate(5 7.25)"/><radialGradient id="s" gradientUnits="userSpaceOnUse" cx="0" cy="0" r="64" gradientTransform="matrix(.1249 0 0 .121 9.25 34.75)"><stop offset="0" stop-color="#cbcbcb"/><stop offset="1" stop-color="#fff"/></radialGradient><path style="fill:url(#s)" d="m8 38 2-2 3 1.5-2 2L8 38z" transform="translate(9 9.25)"/><radialGradient id="t" gradientUnits="userSpaceOnUse" cx="0" cy="0" r="64" gradientTransform="matrix(.1249 0 0 .121 9.25 34.75)"><stop offset="0" stop-color="#cbcbcb"/><stop offset="1" stop-color="#fff"/></radialGradient><path style="fill:url(#t)" d="m8 38 2-2 3 1.5-2 2L8 38z" transform="translate(13.125 11.25)"/><radialGradient id="u" gradientUnits="userSpaceOnUse" cx="0" cy="0" r="64" gradientTransform="matrix(.1249 0 0 .121 9.25 34.75)"><stop offset="0" stop-color="#cbcbcb"/><stop offset="1" stop-color="#fff"/></radialGradient><path style="fill:url(#u)" d="m8 38 2-2 3 1.5-2 2L8 38z" transform="translate(17.25 13.125)"/><radialGradient id="v" gradientUnits="userSpaceOnUse" cx="0" cy="0" r="64" gradientTransform="matrix(.1333 .0921 -.0688 .0996 33.623 50.613)"><stop offset="0" stop-color="#cbcbcb"/><stop offset="1" stop-color="#fff"/></radialGradient><path style="fill:url(#v)" d="m29 53 2-2 7 3.5-2 2-7-3.5z" transform="translate(.5 -.125)"/><radialGradient id="w" gradientUnits="userSpaceOnUse" cx="0" cy="0" r="64" gradientTransform="matrix(.1508 .0594 -.0444 .1126 5.033 40.742)"><stop offset="0" stop-color="#cbcbcb"/><stop offset="1" stop-color="#fff"/></radialGradient><path style="fill:url(#w)" d="m2 44 2-2 5 2.5-2 2L2 44z" transform="translate(.125 .125)"/><radialGradient id="x" gradientUnits="userSpaceOnUse" cx="0" cy="0" r="64" gradientTransform="matrix(.2535 .1873 -.0719 .0974 11.521 43.502)"><stop offset="0" stop-color="#cbcbcb"/><stop offset="1" stop-color="#fff"/></radialGradient><path style="fill:url(#x)" d="m8 47 2-2 11 5.5-2 2L8 47z"/><radialGradient id="y" gradientUnits="userSpaceOnUse" cx="0" cy="0" r="64" gradientTransform="matrix(.1508 .0594 -.0444 .1126 5.033 40.742)"><stop offset="0" stop-color="#cbcbcb"/><stop offset="1" stop-color="#fff"/></radialGradient><path style="fill:url(#y)" d="m2 44 2-2 5 2.5-2 2L2 44z" transform="translate(18 9)"/><radialGradient id="z" gradientUnits="userSpaceOnUse" cx="0" cy="0" r="64" gradientTransform="matrix(.1249 0 0 .121 9.25 34.75)"><stop offset="0" stop-color="#cbcbcb"/><stop offset="1" stop-color="#fff"/></radialGradient><path style="fill:url(#z)" d="m8 38 2-2 3 1.5-2 2L8 38z" transform="translate(18 18.25)"/><radialGradient id="A" gradientUnits="userSpaceOnUse" cx="0" cy="0" r="64" gradientTransform="matrix(.1249 0 0 .121 9.25 34.75)"><stop offset="0" stop-color="#cbcbcb"/><stop offset="1" stop-color="#fff"/></radialGradient><path style="fill:url(#A)" d="m8 38 2-2 3 1.5-2 2L8 38z" transform="translate(22 20.25)"/><path style="fill:none;stroke:#000;stroke-width:1" d="m30 21 4 1"/><path style="fill:none;stroke:#000;stroke-width:1" d="m30 21 4 1" transform="translate(6 2)"/><path style="fill:none;stroke:#000;stroke-width:1" d="m30 21 4 1" transform="translate(0 3)"/><path style="fill:none;stroke:#000;stroke-width:1" d="m30 21 4 1" transform="translate(12 7)"/><linearGradient id="B" gradientUnits="userSpaceOnUse" x1="119.17" y1="-37.89" x2="141.58" y2="13.42"><stop offset="0" stop-color="#00f"/><stop offset="1" stop-color="#18007f"/></linearGradient><path style="fill:none;stroke:url(#B);stroke-width:3" d="m30 21 4 1" transform="matrix(1.9925 .6253 -.2246 .7159 -23.502 -6.087)"/><path style="fill:none;stroke:#000;stroke-width:1" d="m30 21 4 1" transform="translate(12 12)"/></svg>