<svg width="64" height="64" color-interpolation="linearRGB" xmlns="http://www.w3.org/2000/svg"><path style="fill:#010101;fill-opacity:.5725" d="m27 57 2 2 3.13-3.17L37 59l8.39-11.46L64 38l-5-3 2 2-25 12-9 8zm31-23 4-3-4-2-3 3 3 2z"/><path style="fill:none;stroke:#010101;stroke-width:4" d="M6.25 30s5.62 6 10.62 12.5c5 6.5 9.38 13.25 9.38 13.25l32.87-18.88L32 15 6.25 30z"/><radialGradient id="a" gradientUnits="userSpaceOnUse" cx="0" cy="0" r="64" gradientTransform="matrix(.5714 0 0 .3333 26 35)"><stop offset="1" stop-color="#cee5ff"/><stop offset=".489" stop-color="#7588ad"/></radialGradient><path style="fill:url(#a)" d="M6.25 30s5.62 6 10.62 12.5c5 6.5 9.38 13.25 9.38 13.25l32.87-18.88L32 15 6.25 30z"/><path style="fill:none;stroke:#010101;stroke-width:4" d="M2.62 30.87s8.33 5.39 16.38 11c8.44 5.88 16.75 10.88 16.75 10.88l22.37-26.38s-12.68-5.67-22.75-11c-5.19-2.75-9.37-6-9.37-6L2.62 30.87z"/><linearGradient id="b" gradientUnits="userSpaceOnUse" x1="107.04" y1="-17.09" x2="118.33" y2="27.99"><stop offset=".008" stop-color="#bfdef4"/><stop offset=".742" stop-color="#fff"/><stop offset="1" stop-color="#e7eefb"/></linearGradient><path style="fill:url(#b)" d="M2.62 30.87s8.33 5.39 16.38 11c8.44 5.88 16.75 10.88 16.75 10.88l22.37-26.38s-12.68-5.67-22.75-11c-5.19-2.75-9.37-6-9.37-6L2.62 30.87z"/><linearGradient id="c" gradientUnits="userSpaceOnUse" x1="-47.14" y1="-10.78" x2="-28.46" y2="-32.85"><stop offset="0" stop-color="#010101"/><stop offset="1" stop-color="#5296cb"/></linearGradient><path style="fill:none;stroke:url(#c);stroke-width:1" d="m14 37 9-9m-1 15 16-16M26 46l16-16" transform="translate(0 -5)"/><linearGradient id="d" gradientUnits="userSpaceOnUse" x1="-47.14" y1="-10.78" x2="-28.46" y2="-32.85"><stop offset="0" stop-color="#010101"/><stop offset="1" stop-color="#5296cb"/></linearGradient><path style="fill:none;stroke:url(#d);stroke-width:1" d="m22 36 11-11" transform="translate(0 -5)"/><path style="fill:none;stroke:#010101;stroke-width:1" d="m13 34 1 2 2 1" transform="translate(11 -15)"/><path style="fill:none;stroke:#010101;stroke-width:1" d="m23 24 2 1 1 2" transform="translate(3 -7)"/><path style="fill:none;stroke:#010101;stroke-width:1" d="m13 34 1 2 2 1" transform="translate(5 -2)"/><path style="fill:none;stroke:#010101;stroke-width:1" d="m23 24 2 1 1 2" transform="translate(8 17)"/></svg>