<svg width="64" height="64" color-interpolation="linearRGB" xmlns="http://www.w3.org/2000/svg"><path style="fill:#000;fill-opacity:.4196" d="m38 64 20-22v-3l6 3-18 22h-8zM14 52h10V42L14 52z"/><path style="fill:none;stroke:#000;stroke-width:4" d="M6 24v22l8 4 8-8 4 2v12l12 6 20-21V25"/><linearGradient id="a" gradientUnits="userSpaceOnUse" x1="51.61" y1="9.9" x2="69.91" y2="17.59"><stop offset=".007" stop-color="#630"/><stop offset="1" stop-color="#9b6632"/></linearGradient><path style="fill:url(#a)" d="m38 62 20-21V24L38 41v21z"/><linearGradient id="b" gradientUnits="userSpaceOnUse" x1="-2.8" y1="44.49" x2="-1.01" y2="35.33"><stop offset="0" stop-color="#7c3f03"/><stop offset="1" stop-color="#630"/></linearGradient><path style="fill:url(#b)" d="M14 38v12l8-8-8-4z"/><linearGradient id="c" gradientUnits="userSpaceOnUse" x1="62.48" y1="51.42" x2="61" y2="54.78"><stop offset="0" stop-color="#a8733f"/><stop offset="1" stop-color="#d69e68"/></linearGradient><path style="fill:url(#c)" d="m26 56 12 5.93V38.99l-32-13V46l8 4V38l12 5.99V56z"/><path style="fill:#986432" d="M14 40v-2l-8-4v2l8 4zm24 12v-2l-12-6v2l12 6zM15.37 38.87 14 38v-8l1.37.87v8zM26 44l-2-1v-8l2 1v8z"/><path style="fill:#603307" d="m8 38.81 4 2v2.24l-4-2v-2.24z"/><path style="fill:#603307" d="m8 38.81 4 2v2.24l-4-2v-2.24z" transform="translate(0 -10)"/><path style="fill:#603307" d="m8 38.81 4 2v2.24l-4-2v-2.24z" transform="translate(10 -4)"/><path style="fill:#603307" d="m8 38.81 4 2v2.24l-4-2v-2.24z" transform="translate(22 2)"/><path style="fill:#603307" d="m8 38.81 4 2v2.24l-4-2v-2.24z" transform="translate(22 12)"/><linearGradient id="d" gradientUnits="userSpaceOnUse" x1="-4" y1="-20" x2="64" y2="-20"><stop offset="0" stop-color="#ffeddc"/><stop offset="1" stop-color="#ffcb98"/></linearGradient><path style="fill:url(#d)" d="m9 41.55 3 1.49v1.25l-3-1.5v-1.24z"/><linearGradient id="e" gradientUnits="userSpaceOnUse" x1="-4" y1="-20" x2="64" y2="-20"><stop offset="0" stop-color="#ffeddc"/><stop offset="1" stop-color="#ffcb98"/></linearGradient><path style="fill:url(#e)" d="m9 41.55 3 1.49v1.25l-3-1.5v-1.24z" transform="translate(0 -10)"/><linearGradient id="f" gradientUnits="userSpaceOnUse" x1="-4" y1="-20" x2="64" y2="-20"><stop offset="0" stop-color="#ffeddc"/><stop offset="1" stop-color="#ffcb98"/></linearGradient><path style="fill:url(#f)" d="m9 41.55 3 1.49v1.25l-3-1.5v-1.24z" transform="translate(10 -4)"/><linearGradient id="g" gradientUnits="userSpaceOnUse" x1="-4" y1="-20" x2="64" y2="-20"><stop offset="0" stop-color="#ffeddc"/><stop offset="1" stop-color="#ffcb98"/></linearGradient><path style="fill:url(#g)" d="m9 41.55 3 1.49v1.25l-3-1.5v-1.24z" transform="translate(22 2)"/><linearGradient id="h" gradientUnits="userSpaceOnUse" x1="-4" y1="-20" x2="64" y2="-20"><stop offset="0" stop-color="#ffeddc"/><stop offset="1" stop-color="#ffcb98"/></linearGradient><path style="fill:url(#h)" d="m9 41.55 3 1.49v1.25l-3-1.5v-1.24z" transform="translate(22 12)"/><path style="fill:none;stroke:#000;stroke-width:4" d="M2 20v3l38 17 22-17v-3L24 8 2 20z"/><linearGradient id="i" gradientUnits="userSpaceOnUse" x1="-4" y1="-20" x2="64" y2="-20"><stop offset="0" stop-color="#ffeddc"/><stop offset="1" stop-color="#ffcb98"/></linearGradient><path style="fill:url(#i)" d="M24 8 2 20l38 16 22-16L24 8z"/><path style="fill:#cb9867" d="M2 20v3l38 17v-4L2 20z"/><linearGradient id="j" gradientUnits="userSpaceOnUse" x1="50.61" y1="3.9" x2="68.91" y2="11.59"><stop offset="0" stop-color="#89511a"/><stop offset="1" stop-color="#98622d"/></linearGradient><path style="fill:url(#j)" d="M40 36v4l22-17v-3L40 36z"/><path style="fill:#cb9867" d="m38 16-12 9-11-4 12 6 11-11z"/><path style="fill:#fff" d="m27 13 11 3-12 9-11-4 12-8z"/><path style="fill:#000" d="m28 20-3 1 3 1.5h8.46V20H28z"/><linearGradient id="k" gradientUnits="userSpaceOnUse" x1="-2.8" y1="44.49" x2="-1.01" y2="35.33"><stop offset="0" stop-color="#7c3f03"/><stop offset="1" stop-color="#630"/></linearGradient><path style="fill:#cb9867" d="m52 21-3 3h2.99l1 1H55l7-5h-5l-3 1h-2z"/><radialGradient id="l" gradientUnits="userSpaceOnUse" cx="0" cy="0" r="64" gradientTransform="matrix(.2573 0 0 .2729 43.335 13.6)"><stop offset="0" stop-color="gray"/><stop offset="1"/></radialGradient><path style="fill:none;stroke:url(#l);stroke-width:4" d="M48 19c-2.21 0-4 .89-4 2 0 1.1 1.79 2 4 2 2.2 0 4-.9 4-2 0-1.11-1.8-2-4-2zm-1 1v-8h2v8h-2z"/><radialGradient id="m" gradientUnits="userSpaceOnUse" cx="0" cy="0" r="64" gradientTransform="matrix(.0823 0 0 .0667 46.115 18.73)"><stop offset="0" stop-color="#fff"/><stop offset=".33" stop-color="#fff"/><stop offset="1" stop-color="gray"/></radialGradient><path style="fill:url(#m)" d="M48 19c-2.21 0-4 .89-4 2 0 1.1 1.79 2 4 2 2.2 0 4-.9 4-2 0-1.11-1.8-2-4-2z"/><linearGradient id="n" gradientUnits="userSpaceOnUse" x1="47" y1="10.2" x2="49" y2="10.2"><stop offset="0" stop-color="#fff"/><stop offset="1" stop-color="gray"/></linearGradient><path style="fill:url(#n)" d="M47 20v-8h2v8h-2z"/><path style="fill:none;stroke:#000;stroke-width:4;stroke-linejoin:round" d="M39 6s.21-2.11 2-3l2-1c2-1 9 .99 11 3 2 2 3 4 3 4l-4 2-14-5z"/><radialGradient id="o" gradientUnits="userSpaceOnUse" cx="0" cy="0" r="64" gradientTransform="matrix(.3124 .0362 -.0163 .1411 41.256 1.433)"><stop offset="0" stop-color="#0f0"/><stop offset="1" stop-color="#108e35"/></radialGradient><path style="fill:url(#o)" d="M39 6s.21-2.11 2-3l2-1c2-1 9 .99 11 3 2 2 3 4 3 4l-4 2-14-5z"/></svg>