<svg xmlns="http://www.w3.org/2000/svg" version="1.0" width="145.972" height="150.913"><g transform="translate(-10 -4.544)"><circle cx="9.124" cy="46.904" r="9.124" transform="matrix(1.60906 0 0 1.60906 10 4.54)" style="fill:#ff6309"/><circle cx="74.548" cy="84.667" r="9.124" transform="matrix(1.60906 0 0 1.60906 10 4.54)" style="fill:#ffb515"/><circle cx="74.54" cy="9.126" r="9.124" transform="matrix(1.60906 0 0 1.60906 10 4.54)" style="fill:#c90016"/><path d="M94.86 43.684c18.28 0 33.448 13.574 35.96 31.173h25.153c-1.143-13.829-6.876-26.717-16.461-36.882-6.139 3.127-13.687 3.186-20.099-.515-6.417-3.705-10.14-10.277-10.498-17.164a61.849 61.849 0 0 0-14.055-1.612c-9.178 0-18.047 2.003-26.113 5.802l12.592 21.811a36.136 36.136 0 0 1 13.521-2.613z" style="fill:#ff6309"/><path d="M58.534 80.012c0-11.574 5.44-21.9 13.896-28.556L59.84 29.648a62.189 62.189 0 0 0-8.347 6.998c-7.286 7.286-12.51 16.083-15.386 25.684 5.793 3.752 9.629 10.266 9.629 17.682 0 7.415-3.836 13.93-9.629 17.68 2.875 9.602 8.1 18.398 15.386 25.684 2.6 2.6 5.39 4.932 8.341 6.996l12.591-21.809c-8.454-6.657-13.89-16.982-13.89-28.551z" style="fill:#ffb515"/><path d="M130.821 85.151c-2.505 17.605-17.675 31.187-35.96 31.187-4.78 0-9.344-.93-13.526-2.616L68.74 135.534c8.065 3.8 16.937 5.806 26.119 5.806 4.796 0 9.51-.554 14.066-1.616.35-6.895 4.076-13.477 10.498-17.185 6.413-3.704 13.965-3.644 20.105-.511 9.577-10.166 15.304-23.053 16.443-36.877h-25.15v0z" style="fill:#c90016"/></g></svg>