<svg width="64" height="64" color-interpolation="linearRGB" xmlns="http://www.w3.org/2000/svg"><path style="fill:none;stroke:#010000;stroke-opacity:.4352;stroke-width:4" d="M16 4v32l40 20c-2-12 2-22 0-30v-6L16 4z"/><path style="fill:none;stroke:#000;stroke-width:4" d="M16 10c-1.99 2 0 26-2 30 10.01 6 30 14 36.01 20 4-2 1.99-32 6-34L56 20 16 4v6z"/><linearGradient id="a" gradientUnits="userSpaceOnUse" x1="72.77" y1="39.7" x2="50.5" y2="1.79"><stop offset="0" stop-color="#e8ca06"/><stop offset=".537" stop-color="#fff600"/><stop offset="1" stop-color="#fffcb3"/></linearGradient><path style="fill:url(#a)" d="M16 10c-1.99 2 0 26-2 30 10.01 6 30 14 36.01 20 4-2 1.99-32 6-34L56 20 16 4v6z"/><radialGradient id="b" gradientUnits="userSpaceOnUse" cx="0" cy="0" r="64" gradientTransform="matrix(.6448 -.0438 .0222 .3274 17.507 10.54)"><stop offset="0" stop-color="#fff675"/><stop offset="1" stop-color="#faea03"/></radialGradient><path style="fill:url(#b)" d="M56 26v-6L16 4v6l40 16z"/><path style="fill:none;stroke:#000;stroke-width:2;stroke-linecap:round;stroke-linejoin:round" d="M24 22c0 4 2 8 4 10m-6-6h6m0 14 2 4s4-2 3-5-5-1-9-1M32 26c-1 1-1 3 0 4s3 2 5 0-1-6-5-6"/><path style="fill:none;stroke:#000;stroke-width:2;stroke-linecap:round;stroke-linejoin:round" d="M32 26c-1 1-1 3 0 4s3 2 5 0-1-6-5-6" transform="translate(5 11)"/></svg>