<svg width="64" height="64" color-interpolation="linearRGB" xmlns="http://www.w3.org/2000/svg"><path style="fill:#010101;fill-opacity:.4941" d="M44 60h8l12-13-6.01-3.01L60 42l-4-2-12 20z"/><path style="fill:none;stroke:#010000;stroke-width:4" d="m30 5 5-3 15 4v6"/><linearGradient id="a" gradientUnits="userSpaceOnUse" x1="122.91" y1="-32.33" x2="131.68" y2="-5.43"><stop offset=".007" stop-color="#ececec"/><stop offset="1" stop-color="#c3c3c3"/></linearGradient><path style="fill:url(#a)" d="m30 5 5-3 15 4-5 4-15-5z"/><path style="fill:#4b4b4b" d="m45 10 5-4v6l-5-2z"/><path style="fill:none;stroke:#010000;stroke-width:4" d="M14 6v37l30 15 10-10V12L24 2 14 6z"/><linearGradient id="b" gradientUnits="userSpaceOnUse" x1="13.84" y1="-38.14" x2="58.34" y2="-27.7"><stop offset="0" stop-color="#fff"/><stop offset="1" stop-color="#d3d3d3"/></linearGradient><path style="fill:url(#b)" d="m14 6 30 12 10-6L24 2 14 6z"/><linearGradient id="c" gradientUnits="userSpaceOnUse" x1="40.61" y1="-4.89" x2="77.77" y2="1.75"><stop offset="0" stop-color="#474747"/><stop offset="1" stop-color="#a5a0a0"/></linearGradient><path style="fill:url(#c)" d="M44 18v40l10-10V12l-10 6z"/><linearGradient id="d" gradientUnits="userSpaceOnUse" x1="11.3" y1="82.69" x2="-25.59" y2="46.62"><stop offset="0" stop-color="#909090"/><stop offset="1" stop-color="#d4d4d4"/></linearGradient><path style="fill:url(#d)" d="M14 6v37l30 15V18L14 6zm27 14v26L16 35V10l25 10z"/><radialGradient id="e" gradientUnits="userSpaceOnUse" cx="0" cy="0" r="64" gradientTransform="matrix(.5274 .0626 -.0587 .495 29.773 22.915)"><stop offset="0" stop-color="#0593dc"/><stop offset="1" stop-color="#00337f"/></radialGradient><path style="fill:url(#e)" d="M41 20v23L18 33l.05-22.13L41 20z"/><linearGradient id="f" gradientUnits="userSpaceOnUse" x1="63.81" y1="3.47" x2="73.7" y2="31.53"><stop offset="1" stop-color="#9a9a9a"/><stop offset="0" stop-color="#242222"/></linearGradient><path style="fill:url(#f)" d="M17.97 33.01 16 35V10l2.05.87-.08 22.14z"/><linearGradient id="g" gradientUnits="userSpaceOnUse" x1=".69" y1="-5.52" x2="39.3" y2="-5.52"><stop offset=".348" stop-color="#f3f3f3"/><stop offset="0" stop-color="#d4cece"/><stop offset="1" stop-color="#d9d9d9"/></linearGradient><path style="fill:url(#g)" d="M41 43v3L16 35l2-1.99L41 43z"/><path style="fill:none;stroke:#8dff06;stroke-width:2;stroke-linecap:round" d="m38 47 1 .5"/><path style="fill:#4b4b4b" d="M18 38v4l18 9v-5l-18-8z"/><linearGradient id="h" gradientUnits="userSpaceOnUse" x1="42.47" y1="42.7" x2="41.03" y2="52.39"><stop offset="0" stop-color="#cecece"/><stop offset="1" stop-color="#666"/></linearGradient><path style="fill:url(#h)" d="M20 40v1l14 7v-2l-14-6z"/></svg>